<svg xmlns="http://www.w3.org/2000/svg" xmlns:xlink="http://www.w3.org/1999/xlink" width="2500" zoomAndPan="magnify" viewBox="0 0 1874.88 1867.499939" height="2490" preserveAspectRatio="xMidYMid meet" version="1.0"><defs><clipPath id="a5b8d99e9c"><path d="M 846 70.058594 L 940 70.058594 L 940 164 L 846 164 Z M 846 70.058594 " clip-rule="nonzero"/></clipPath></defs><path fill="#dbe6fa" d="M 672.15625 987.023438 L 672.578125 1067.480469 C 672.351562 987.777344 724.839844 907.949219 829.933594 847.277344 C 1038.777344 726.707031 1377.523438 726.710938 1585.011719 847.28125 C 1688.085938 907.179688 1739.683594 985.742188 1739.90625 1064.425781 L 1739.480469 983.96875 C 1739.257812 905.285156 1687.660156 826.722656 1584.585938 766.824219 C 1377.101562 646.253906 1038.355469 646.25 829.511719 766.820312 C 724.417969 827.492188 671.929688 907.320312 672.15625 987.023438 Z M 672.15625 987.023438 " fill-opacity="1" fill-rule="nonzero"/><path fill="#dbe6fa" d="M 599.03125 987.230469 L 599.453125 1067.6875 C 599.707031 1157.148438 658.378906 1246.46875 775.582031 1314.578125 C 1011.515625 1451.679688 1396.742188 1451.75 1634.21875 1314.648438 C 1753.71875 1245.660156 1813.402344 1154.867188 1813.148438 1064.214844 L 1812.722656 983.757812 C 1812.980469 1074.410156 1753.296875 1165.203125 1633.792969 1234.191406 C 1396.320312 1371.292969 1011.09375 1371.222656 775.160156 1234.121094 C 657.953125 1166.011719 599.285156 1076.691406 599.03125 987.230469 Z M 599.03125 987.230469 " fill-opacity="1" fill-rule="nonzero"/><path fill="#cbdbf4" d="M 1739.484375 983.964844 C 1739.257812 905.285156 1687.664062 826.722656 1584.585938 766.824219 C 1461.082031 695.054688 1291.136719 666.355469 1129.691406 680.027344 L 1129.691406 760.523438 C 1291.257812 746.761719 1461.390625 775.445312 1585.007812 847.28125 C 1688.085938 907.179688 1739.683594 985.742188 1739.90625 1064.421875 Z M 1739.484375 983.964844 " fill-opacity="1" fill-rule="nonzero"/><path fill="#cbdbf4" d="M 1812.722656 983.757812 C 1812.976562 1074.410156 1753.296875 1165.203125 1633.796875 1234.191406 C 1496.105469 1313.679688 1308.820312 1346.738281 1129.691406 1334.035156 L 1129.691406 1414.457031 C 1308.945312 1427.242188 1496.421875 1394.203125 1634.214844 1314.648438 C 1753.71875 1245.660156 1813.40625 1154.863281 1813.144531 1064.214844 Z M 1812.722656 983.757812 " fill-opacity="1" fill-rule="nonzero"/><path fill="#ebf2ff" d="M 1636.59375 736.800781 C 1872.527344 873.902344 1871.269531 1097.09375 1633.792969 1234.191406 C 1396.320312 1371.292969 1011.09375 1371.222656 775.160156 1234.121094 C 539.230469 1097.019531 540.484375 873.960938 777.960938 736.863281 C 1015.433594 599.765625 1400.660156 599.699219 1636.59375 736.800781 Z M 1582.125 1204.167969 C 1790.96875 1083.597656 1792.074219 887.394531 1584.585938 766.824219 C 1377.101562 646.253906 1038.355469 646.25 829.511719 766.820312 C 620.667969 887.390625 619.5625 1083.59375 827.050781 1204.164062 C 1034.535156 1324.734375 1373.285156 1324.738281 1582.125 1204.167969 " fill-opacity="1" fill-rule="nonzero"/><path fill="#4f575f" d="M 663.914062 1397.875 L 787.75 1325.910156 C 794.101562 1322.335938 798.074219 1314.195312 798.273438 1302.882812 C 798.273438 1280.449219 782.394531 1253.054688 762.738281 1241.742188 C 752.8125 1235.984375 743.878906 1235.390625 737.328125 1239.160156 L 606.128906 1315.402344 C 625.503906 1342.820312 644.925781 1370.203125 663.914062 1397.875 Z M 663.914062 1397.875 " fill-opacity="1" fill-rule="nonzero"/><path fill="#3d4449" d="M 707.800781 1256.324219 C 714.347656 1252.550781 723.28125 1253.144531 733.207031 1258.902344 C 752.859375 1270.21875 768.742188 1297.613281 768.742188 1320.042969 C 768.542969 1331.355469 764.574219 1339.496094 758.222656 1343.070312 L 787.75 1325.910156 C 794.101562 1322.335938 798.074219 1314.195312 798.273438 1302.882812 C 798.273438 1280.449219 782.394531 1253.054688 762.738281 1241.742188 C 752.8125 1235.984375 743.878906 1235.390625 737.328125 1239.160156 Z M 707.800781 1256.324219 " fill-opacity="1" fill-rule="nonzero"/><path fill="#b785ff" d="M 18.984375 1596.621094 C 32.902344 1588.605469 51.886719 1589.871094 72.980469 1602.105469 C 114.746094 1626.152344 148.5 1684.367188 148.5 1732.035156 C 148.078125 1756.082031 139.636719 1773.378906 126.140625 1780.96875 L 690.316406 1453.113281 C 703.8125 1445.519531 712.253906 1428.222656 712.675781 1404.175781 C 712.675781 1356.507812 678.929688 1298.292969 637.160156 1274.246094 C 616.066406 1262.011719 597.082031 1260.75 583.164062 1268.761719 Z M 18.984375 1596.621094 " fill-opacity="1" fill-rule="nonzero"/><path fill="#ffca6c" d="M 520.40625 1305.230469 C 534.324219 1297.21875 553.308594 1298.480469 574.402344 1310.714844 C 616.167969 1334.761719 649.921875 1392.976562 649.921875 1440.648438 C 649.5 1464.691406 641.058594 1481.988281 627.5625 1489.582031 L 690.316406 1453.113281 C 703.8125 1445.519531 712.253906 1428.222656 712.675781 1404.175781 C 712.675781 1356.507812 678.929688 1298.292969 637.160156 1274.246094 C 616.066406 1262.011719 597.082031 1260.75 583.164062 1268.761719 Z M 520.40625 1305.230469 " fill-opacity="1" fill-rule="nonzero"/><path fill="#ffca6c" d="M 21.976562 1592.859375 C 36.027344 1584.765625 55.199219 1586.042969 76.5 1598.398438 C 118.671875 1622.679688 152.753906 1681.460938 152.753906 1729.597656 C 152.328125 1753.875 143.804688 1771.34375 130.175781 1779.007812 L 193.542969 1742.183594 C 207.171875 1734.515625 215.695312 1717.050781 216.121094 1692.769531 C 216.121094 1644.636719 182.046875 1585.851562 139.867188 1561.570312 C 118.566406 1549.21875 99.398438 1547.941406 85.34375 1556.035156 Z M 21.976562 1592.859375 " fill-opacity="1" fill-rule="nonzero"/><path fill="#ffa20d" d="M 78.011719 1597.207031 C 35.585938 1572.710938 1.476562 1592.148438 1.339844 1640.589844 C 1.199219 1689.339844 35.085938 1748.347656 77.515625 1772.839844 C 119.671875 1797.179688 153.78125 1777.429688 153.921875 1728.675781 C 154.058594 1680.238281 120.171875 1621.542969 78.011719 1597.207031 Z M 78.011719 1597.207031 " fill-opacity="1" fill-rule="nonzero"/><path fill="#ffde9b" d="M 1206.632812 935.1875 L 1207.023438 1072.25 L 1208.535156 803.621094 L 1208.144531 666.5625 Z M 1206.632812 935.1875 " fill-opacity="1" fill-rule="nonzero"/><path fill="#9156e5" d="M 1206.632812 598.117188 L 1207.023438 1072.25 L 1535.976562 882.335938 L 1535.589844 408.207031 Z M 1206.632812 598.117188 " fill-opacity="1" fill-rule="nonzero"/><path fill="#ffde9b" d="M 860.019531 521.410156 C 775.804688 570.019531 723.546875 637.144531 723.132812 711.285156 L 1186.851562 711.324219 L 1188.363281 442.695312 C 1060.300781 442.730469 944.199219 472.820312 860.019531 521.410156 Z M 860.019531 521.410156 " fill-opacity="1" fill-rule="nonzero"/><path fill="#ffb63c" d="M 723.132812 711.285156 L 723.519531 1052.429688 L 1186.304688 1052.46875 L 1186.851562 711.324219 Z M 723.132812 711.285156 " fill-opacity="1" fill-rule="nonzero"/><path fill="#a46ef2" d="M 1208.210938 329.453125 L 1206.632812 598.117188 L 1535.589844 408.207031 C 1451.828125 359.53125 1336.179688 329.492188 1208.210938 329.453125 Z M 1208.210938 329.453125 " fill-opacity="1" fill-rule="nonzero"/><path fill="#4dcdf3" d="M 1246.199219 800.269531 L 1246.585938 1025.003906 L 1573.527344 1214.992188 L 1573.136719 990.253906 Z M 1246.199219 800.269531 " fill-opacity="1" fill-rule="nonzero"/><path fill="#71d8f8" d="M 1573.136719 990.253906 L 1573.527344 1214.992188 C 1657.644531 1166.355469 1709.953125 1099.164062 1710.371094 1025.007812 L 1709.980469 800.269531 C 1709.566406 874.429688 1657.257812 941.621094 1573.136719 990.253906 Z M 1573.136719 990.253906 " fill-opacity="1" fill-rule="nonzero"/><path fill="#95e2fe" d="M 1246.199219 800.269531 L 1573.136719 990.253906 C 1754.992188 885.109375 1755.539062 715.105469 1575.277344 610.355469 Z M 1246.199219 800.269531 " fill-opacity="1" fill-rule="nonzero"/><path fill="#ff6161" d="M 723.132812 877.015625 C 722.296875 1025.476562 929.152344 1145.679688 1185.339844 1145.679688 L 1186.851562 877.054688 Z M 723.132812 877.015625 " fill-opacity="1" fill-rule="nonzero"/><path fill="#ff6161" d="M 1205.121094 1203.8125 L 1205.511719 1293.632812 L 1207.023438 1072.25 L 1206.632812 935.1875 Z M 1205.121094 1203.8125 " fill-opacity="1" fill-rule="nonzero"/><path fill="#e22525" d="M 723.132812 877.015625 L 723.519531 1044.75 C 722.683594 1193.207031 929.539062 1313.410156 1185.730469 1313.414062 L 1185.339844 1145.679688 C 929.152344 1145.679688 722.296875 1025.476562 723.132812 877.015625 Z M 723.132812 877.015625 " fill-opacity="1" fill-rule="nonzero"/><path fill="#457aef" d="M 1205.121094 1203.8125 L 1205.511719 1293.632812 C 1333.542969 1293.632812 1449.71875 1263.554688 1533.964844 1214.992188 L 1533.574219 1125.175781 C 1449.332031 1173.738281 1333.15625 1203.816406 1205.121094 1203.8125 Z M 1205.121094 1203.8125 " fill-opacity="1" fill-rule="nonzero"/><path fill="#4f91ff" d="M 1206.632812 935.1875 L 1205.121094 1203.8125 C 1333.15625 1203.816406 1449.332031 1173.738281 1533.574219 1125.175781 Z M 1206.632812 935.1875 " fill-opacity="1" fill-rule="nonzero"/><path fill="#ebf2ff" d="M 1732.46875 934.855469 C 1758.96875 1029.945312 1708.894531 1130.984375 1582.125 1204.167969 C 1373.285156 1324.738281 1034.535156 1324.734375 827.046875 1204.164062 C 701.109375 1130.980469 652.167969 1029.941406 679.738281 934.855469 L 605.597656 934.855469 C 578.570312 1040.917969 635.019531 1152.683594 775.160156 1234.121094 C 1011.089844 1371.222656 1396.320312 1371.289062 1633.796875 1234.191406 C 1774.847656 1152.761719 1832.554688 1040.953125 1806.730469 934.855469 Z M 1732.46875 934.855469 " fill-opacity="1" fill-rule="nonzero"/><path fill="#ffca6c" d="M 1177.351562 260.710938 C 1177.351562 286.40625 1156.570312 307.1875 1130.871094 307.1875 C 1105.175781 307.1875 1084.394531 286.40625 1084.394531 260.710938 C 1084.394531 235.128906 1105.175781 214.347656 1130.871094 214.347656 C 1156.570312 214.347656 1177.351562 235.128906 1177.351562 260.710938 Z M 1177.351562 260.710938 " fill-opacity="1" fill-rule="nonzero"/><path fill="#4f575f" d="M 1107.167969 261.140625 C 1104.71875 261.140625 1102.238281 260.457031 1100.027344 259.039062 L 886.15625 121.414062 C 880.019531 117.460938 878.25 109.289062 882.195312 103.148438 C 886.136719 96.996094 894.320312 95.253906 900.460938 99.1875 L 1114.328125 236.8125 C 1120.464844 240.765625 1122.234375 248.9375 1118.292969 255.074219 C 1115.765625 259 1111.507812 261.140625 1107.167969 261.140625 Z M 1107.167969 261.140625 " fill-opacity="1" fill-rule="nonzero"/><g clip-path="url(#a5b8d99e9c)"><path fill="#ff6161" d="M 939.78125 116.800781 C 939.78125 142.496094 919 163.273438 893.304688 163.273438 C 867.609375 163.273438 846.828125 142.496094 846.828125 116.800781 C 846.828125 91.214844 867.609375 70.4375 893.304688 70.4375 C 919 70.4375 939.78125 91.214844 939.78125 116.800781 Z M 939.78125 116.800781 " fill-opacity="1" fill-rule="nonzero"/></g><path fill="#4f575f" d="M 644.761719 597.933594 C 638.253906 594.613281 635.664062 586.664062 638.972656 580.164062 L 871.109375 124.261719 C 874.425781 117.746094 882.386719 115.140625 888.875 118.472656 C 895.382812 121.792969 897.972656 129.746094 894.664062 136.242188 L 662.527344 592.144531 C 659.195312 598.675781 651.230469 601.226562 644.761719 597.933594 Z M 644.761719 597.933594 " fill-opacity="1" fill-rule="nonzero"/><path fill="#b785ff" d="M 697.230469 585.433594 C 697.230469 611.128906 676.449219 631.910156 650.75 631.910156 C 625.054688 631.910156 604.273438 611.128906 604.273438 585.433594 C 604.273438 559.851562 625.054688 539.070312 650.75 539.070312 C 676.449219 539.070312 697.230469 559.851562 697.230469 585.433594 Z M 697.230469 585.433594 " fill-opacity="1" fill-rule="nonzero"/><path fill="#4f575f" d="M 624.863281 588.117188 L 375.800781 465.257812 C 369.257812 462.023438 366.566406 454.105469 369.792969 447.5625 C 373.019531 441.011719 380.925781 438.332031 387.488281 441.554688 L 636.550781 564.417969 C 643.09375 567.652344 645.785156 575.566406 642.558594 582.109375 C 639.34375 588.613281 631.476562 591.359375 624.863281 588.117188 Z M 624.863281 588.117188 " fill-opacity="1" fill-rule="nonzero"/><path fill="#49e4a3" d="M 433.078125 454.914062 C 433.078125 480.605469 412.296875 501.386719 386.597656 501.386719 C 360.902344 501.386719 340.121094 480.605469 340.121094 454.914062 C 340.121094 429.328125 360.902344 408.550781 386.597656 408.550781 C 412.296875 408.550781 433.078125 429.328125 433.078125 454.914062 Z M 433.078125 454.914062 " fill-opacity="1" fill-rule="nonzero"/><path fill="#4f575f" d="M 240.851562 932.964844 C 233.839844 930.917969 229.8125 923.59375 231.847656 916.589844 L 361.105469 472.140625 C 363.160156 465.128906 370.550781 461.175781 377.480469 463.136719 C 384.492188 465.183594 388.519531 472.507812 386.484375 479.511719 L 257.226562 923.960938 C 255.214844 930.855469 248.015625 935.011719 240.851562 932.964844 Z M 240.851562 932.964844 " fill-opacity="1" fill-rule="nonzero"/><path fill="#ff6161" d="M 282.105469 939.636719 C 282.105469 965.332031 261.324219 986.113281 235.625 986.113281 C 209.929688 986.113281 189.148438 965.332031 189.148438 939.636719 C 189.148438 914.054688 209.929688 893.273438 235.625 893.273438 C 261.324219 893.273438 282.105469 914.054688 282.105469 939.636719 Z M 282.105469 939.636719 " fill-opacity="1" fill-rule="nonzero"/></svg>