<svg xmlns="http://www.w3.org/2000/svg" xmlns:xlink="http://www.w3.org/1999/xlink" width="2500" zoomAndPan="magnify" viewBox="0 0 1874.88 1867.499939" height="2490" preserveAspectRatio="xMidYMid meet" version="1.0"><defs><clipPath id="03123d3bbb"><path d="M 0.191406 257 L 323 257 L 323 580 L 0.191406 580 Z M 0.191406 257 " clip-rule="nonzero"/></clipPath><clipPath id="530e35835b"><path d="M 0.191406 772 L 323 772 L 323 1095 L 0.191406 1095 Z M 0.191406 772 " clip-rule="nonzero"/></clipPath><clipPath id="b1855d870c"><path d="M 0.191406 1287 L 323 1287 L 323 1610 L 0.191406 1610 Z M 0.191406 1287 " clip-rule="nonzero"/></clipPath><clipPath id="b0336358ce"><path d="M 1545 515 L 1867.191406 515 L 1867.191406 837 L 1545 837 Z M 1545 515 " clip-rule="nonzero"/></clipPath><clipPath id="83028ccf93"><path d="M 1545 1030 L 1867.191406 1030 L 1867.191406 1352 L 1545 1352 Z M 1545 1030 " clip-rule="nonzero"/></clipPath></defs><path fill="#ced7dd" d="M 656.730469 195.777344 L 561.644531 154.832031 C 545.355469 147.78125 526.332031 155.316406 519.378906 171.636719 C 512.328125 187.957031 519.894531 206.914062 536.179688 213.898438 L 560.097656 224.199219 L 229.285156 356.371094 L 253.167969 416.148438 L 583.628906 284.136719 L 573.488281 307.667969 C 566.4375 323.988281 574.003906 342.949219 590.292969 349.933594 C 594.445312 351.738281 598.757812 352.574219 603.039062 352.574219 C 615.496094 352.574219 627.375 345.265625 632.589844 333.128906 L 673.535156 238.042969 C 680.582031 221.722656 673.050781 202.761719 656.730469 195.777344 Z M 656.730469 195.777344 " fill-opacity="1" fill-rule="nonzero"/><path fill="#ced7dd" d="M 1303.582031 374.140625 C 1287.035156 380.707031 1278.988281 399.441406 1285.523438 415.953125 C 1290.546875 428.605469 1302.648438 436.265625 1315.460938 436.265625 C 1319.417969 436.265625 1323.445312 435.558594 1327.339844 434.011719 L 1423.554688 395.773438 C 1431.503906 392.585938 1437.84375 386.4375 1441.226562 378.582031 C 1444.605469 370.761719 1444.734375 361.875 1441.578125 353.925781 L 1403.304688 257.710938 C 1396.738281 241.195312 1378.164062 233.054688 1361.492188 239.714844 C 1344.976562 246.28125 1336.898438 264.984375 1343.496094 281.53125 L 1353.121094 305.707031 L 1042.941406 172.730469 L 1017.546875 231.894531 L 1327.371094 364.707031 L 1303.582031 374.171875 Z M 1303.582031 374.140625 " fill-opacity="1" fill-rule="nonzero"/><path fill="#ced7dd" d="M 1423.585938 1471.261719 L 1327.371094 1433.019531 C 1310.855469 1426.484375 1292.15625 1434.53125 1285.554688 1451.078125 C 1279.023438 1467.589844 1287.070312 1486.324219 1303.613281 1492.890625 L 1327.402344 1502.355469 L 1017.578125 1635.171875 L 1042.976562 1694.335938 L 1353.15625 1561.359375 L 1343.53125 1585.535156 C 1336.929688 1602.078125 1345.011719 1620.78125 1361.523438 1627.347656 C 1365.449219 1628.925781 1369.476562 1629.632812 1373.433594 1629.632812 C 1386.214844 1629.632812 1398.316406 1621.972656 1403.339844 1609.355469 L 1441.613281 1513.140625 C 1444.796875 1505.1875 1444.667969 1496.335938 1441.257812 1488.480469 C 1437.910156 1480.628906 1431.535156 1474.445312 1423.585938 1471.292969 Z M 1423.585938 1471.261719 " fill-opacity="1" fill-rule="nonzero"/><path fill="#ced7dd" d="M 1407.105469 653.226562 L 1342.726562 588.84375 C 1330.140625 576.257812 1309.796875 576.257812 1297.207031 588.84375 C 1284.621094 601.429688 1284.621094 621.773438 1297.207031 634.363281 L 1306.640625 643.792969 L 1030.261719 643.792969 L 1030.261719 708.171875 L 1306.640625 708.171875 L 1297.207031 717.605469 C 1284.621094 730.191406 1284.621094 750.535156 1297.207031 763.121094 C 1303.484375 769.398438 1311.726562 772.550781 1319.96875 772.550781 C 1328.207031 772.550781 1336.449219 769.398438 1342.726562 763.121094 L 1407.105469 698.742188 C 1419.691406 686.15625 1419.691406 665.8125 1407.105469 653.222656 Z M 1407.105469 653.226562 " fill-opacity="1" fill-rule="nonzero"/><path fill="#ced7dd" d="M 656.730469 710.8125 L 561.644531 669.867188 C 545.355469 662.847656 526.332031 670.316406 519.378906 686.667969 C 512.328125 702.988281 519.894531 721.949219 536.179688 728.933594 L 560.066406 739.234375 L 245.765625 864.808594 L 269.652344 924.582031 L 583.597656 799.171875 L 573.457031 822.703125 C 566.40625 839.023438 573.972656 857.984375 590.257812 864.96875 C 594.410156 866.769531 598.726562 867.609375 603.007812 867.609375 C 615.464844 867.609375 627.34375 860.300781 632.558594 848.164062 L 673.5 753.078125 C 680.550781 736.757812 673.019531 717.796875 656.699219 710.8125 Z M 656.730469 710.8125 " fill-opacity="1" fill-rule="nonzero"/><path fill="#ced7dd" d="M 632.589844 1533.835938 C 625.570312 1517.453125 606.546875 1509.984375 590.324219 1517.035156 C 574.003906 1524.050781 566.472656 1543.011719 573.519531 1559.300781 L 583.660156 1582.828125 L 237.523438 1444.511719 L 213.640625 1504.285156 L 560.128906 1642.734375 L 536.214844 1653.035156 C 519.894531 1660.050781 512.359375 1679.011719 519.410156 1695.300781 C 524.625 1707.5 536.503906 1714.742188 548.960938 1714.742188 C 553.242188 1714.742188 557.554688 1713.90625 561.707031 1712.101562 L 656.796875 1671.15625 C 673.148438 1664.140625 680.648438 1645.179688 673.597656 1628.894531 L 632.652344 1533.804688 Z M 632.589844 1533.835938 " fill-opacity="1" fill-rule="nonzero"/><path fill="#ced7dd" d="M 632.589844 1018.800781 C 625.570312 1002.417969 606.546875 995.015625 590.324219 1002 C 574.003906 1009.015625 566.472656 1027.976562 573.519531 1044.265625 L 583.660156 1067.796875 L 269.714844 942.382812 L 245.832031 1002.160156 L 560.128906 1127.730469 L 536.246094 1138.03125 C 519.925781 1145.050781 512.394531 1164.011719 519.441406 1180.296875 C 524.65625 1192.496094 536.535156 1199.742188 548.992188 1199.742188 C 553.273438 1199.742188 557.585938 1198.902344 561.738281 1197.101562 L 656.828125 1156.15625 C 673.179688 1149.136719 680.679688 1130.179688 673.628906 1113.890625 L 632.683594 1018.800781 Z M 632.589844 1018.800781 " fill-opacity="1" fill-rule="nonzero"/><path fill="#ced7dd" d="M 1297.207031 1278.15625 C 1303.484375 1284.429688 1311.726562 1287.585938 1319.96875 1287.585938 C 1328.207031 1287.585938 1336.449219 1284.429688 1342.726562 1278.15625 L 1407.105469 1213.773438 C 1419.691406 1201.1875 1419.691406 1180.84375 1407.105469 1168.257812 L 1342.726562 1103.878906 C 1330.140625 1091.292969 1309.796875 1091.292969 1297.207031 1103.878906 C 1284.621094 1116.464844 1284.621094 1136.808594 1297.207031 1149.394531 L 1306.640625 1158.828125 L 1030.261719 1158.828125 L 1030.261719 1223.207031 L 1306.640625 1223.207031 L 1297.207031 1232.636719 C 1284.621094 1245.222656 1284.621094 1265.570312 1297.207031 1278.15625 Z M 1297.207031 1278.15625 " fill-opacity="1" fill-rule="nonzero"/><path fill="#f7ca3c" d="M 1094.640625 160.949219 C 1094.640625 163.582031 1094.574219 166.214844 1094.445312 168.84375 C 1094.316406 171.476562 1094.121094 174.101562 1093.863281 176.722656 C 1093.605469 179.34375 1093.285156 181.957031 1092.898438 184.5625 C 1092.511719 187.167969 1092.058594 189.765625 1091.546875 192.347656 C 1091.03125 194.929688 1090.457031 197.5 1089.816406 200.054688 C 1089.175781 202.609375 1088.472656 205.148438 1087.707031 207.667969 C 1086.945312 210.191406 1086.117188 212.691406 1085.230469 215.171875 C 1084.34375 217.648438 1083.394531 220.105469 1082.386719 222.539062 C 1081.378906 224.972656 1080.3125 227.382812 1079.1875 229.761719 C 1078.058594 232.144531 1076.875 234.496094 1075.632812 236.820312 C 1074.394531 239.140625 1073.09375 241.433594 1071.742188 243.691406 C 1070.386719 245.953125 1068.976562 248.175781 1067.515625 250.367188 C 1066.050781 252.554688 1064.535156 254.710938 1062.964844 256.824219 C 1061.398438 258.941406 1059.777344 261.015625 1058.105469 263.054688 C 1056.433594 265.089844 1054.714844 267.082031 1052.945312 269.035156 C 1051.175781 270.984375 1049.359375 272.894531 1047.5 274.757812 C 1045.636719 276.617188 1043.730469 278.433594 1041.777344 280.203125 C 1039.824219 281.972656 1037.832031 283.691406 1035.796875 285.363281 C 1033.757812 287.035156 1031.683594 288.652344 1029.566406 290.222656 C 1027.453125 291.792969 1025.300781 293.308594 1023.109375 294.773438 C 1020.917969 296.234375 1018.695312 297.644531 1016.433594 299 C 1014.175781 300.351562 1011.882812 301.648438 1009.5625 302.890625 C 1007.238281 304.132812 1004.886719 305.316406 1002.503906 306.445312 C 1000.125 307.570312 997.714844 308.636719 995.28125 309.644531 C 992.847656 310.652344 990.394531 311.601562 987.914062 312.488281 C 985.433594 313.375 982.933594 314.203125 980.410156 314.964844 C 977.890625 315.730469 975.351562 316.433594 972.796875 317.074219 C 970.242188 317.714844 967.671875 318.289062 965.089844 318.804688 C 962.507812 319.316406 959.914062 319.769531 957.308594 320.15625 C 954.703125 320.539062 952.089844 320.863281 949.464844 321.121094 C 946.84375 321.378906 944.21875 321.574219 941.589844 321.703125 C 938.957031 321.832031 936.324219 321.898438 933.691406 321.898438 C 931.058594 321.898438 928.425781 321.832031 925.792969 321.703125 C 923.164062 321.574219 920.535156 321.378906 917.914062 321.121094 C 915.292969 320.863281 912.679688 320.539062 910.074219 320.15625 C 907.46875 319.769531 904.875 319.316406 902.292969 318.804688 C 899.707031 318.289062 897.140625 317.714844 894.582031 317.074219 C 892.027344 316.433594 889.492188 315.730469 886.96875 314.964844 C 884.449219 314.203125 881.949219 313.375 879.46875 312.488281 C 876.988281 311.601562 874.53125 310.652344 872.097656 309.644531 C 869.664062 308.636719 867.257812 307.570312 864.875 306.445312 C 862.496094 305.316406 860.144531 304.132812 857.820312 302.890625 C 855.496094 301.648438 853.207031 300.351562 850.945312 299 C 848.6875 297.644531 846.464844 296.234375 844.273438 294.773438 C 842.082031 293.308594 839.929688 291.792969 837.8125 290.222656 C 835.699219 288.652344 833.621094 287.035156 831.585938 285.363281 C 829.550781 283.691406 827.554688 281.972656 825.605469 280.203125 C 823.652344 278.433594 821.746094 276.617188 819.882812 274.757812 C 818.019531 272.894531 816.207031 270.984375 814.4375 269.035156 C 812.667969 267.082031 810.949219 265.089844 809.277344 263.054688 C 807.605469 261.015625 805.984375 258.941406 804.414062 256.824219 C 802.847656 254.710938 801.332031 252.554688 799.867188 250.367188 C 798.402344 248.175781 796.996094 245.953125 795.640625 243.691406 C 794.285156 241.433594 792.988281 239.140625 791.746094 236.820312 C 790.503906 234.496094 789.320312 232.144531 788.195312 229.761719 C 787.070312 227.382812 786.003906 224.972656 784.992188 222.539062 C 783.984375 220.105469 783.039062 217.648438 782.152344 215.171875 C 781.261719 212.691406 780.4375 210.191406 779.671875 207.667969 C 778.910156 205.148438 778.207031 202.609375 777.566406 200.054688 C 776.925781 197.5 776.347656 194.929688 775.835938 192.347656 C 775.320312 189.765625 774.871094 187.167969 774.484375 184.5625 C 774.097656 181.957031 773.777344 179.34375 773.519531 176.722656 C 773.257812 174.101562 773.066406 171.476562 772.9375 168.84375 C 772.808594 166.214844 772.742188 163.582031 772.742188 160.949219 C 772.742188 158.3125 772.808594 155.683594 772.9375 153.050781 C 773.066406 150.421875 773.257812 147.792969 773.519531 145.171875 C 773.777344 142.550781 774.097656 139.9375 774.484375 137.332031 C 774.871094 134.726562 775.320312 132.132812 775.835938 129.546875 C 776.347656 126.964844 776.925781 124.394531 777.566406 121.839844 C 778.207031 119.285156 778.910156 116.75 779.671875 114.226562 C 780.4375 111.707031 781.261719 109.207031 782.152344 106.726562 C 783.039062 104.246094 783.984375 101.789062 784.992188 99.355469 C 786.003906 96.921875 787.070312 94.515625 788.195312 92.132812 C 789.320312 89.753906 790.503906 87.402344 791.746094 85.078125 C 792.988281 82.753906 794.285156 80.464844 795.640625 78.203125 C 796.996094 75.945312 798.402344 73.71875 799.867188 71.53125 C 801.332031 69.339844 802.847656 67.1875 804.414062 65.070312 C 805.984375 62.957031 807.605469 60.878906 809.277344 58.84375 C 810.949219 56.808594 812.667969 54.8125 814.4375 52.863281 C 816.203125 50.910156 818.019531 49.003906 819.882812 47.140625 C 821.746094 45.277344 823.652344 43.460938 825.605469 41.695312 C 827.554688 39.925781 829.550781 38.203125 831.585938 36.535156 C 833.621094 34.863281 835.699219 33.242188 837.8125 31.671875 C 839.929688 30.105469 842.082031 28.589844 844.273438 27.125 C 846.464844 25.660156 848.6875 24.253906 850.945312 22.898438 C 853.207031 21.542969 855.496094 20.246094 857.820312 19.003906 C 860.144531 17.761719 862.496094 16.578125 864.875 15.453125 C 867.257812 14.328125 869.664062 13.257812 872.097656 12.25 C 874.53125 11.242188 876.988281 10.296875 879.46875 9.410156 C 881.949219 8.519531 884.449219 7.695312 886.96875 6.929688 C 889.492188 6.164062 892.027344 5.464844 894.582031 4.824219 C 897.140625 4.183594 899.707031 3.605469 902.292969 3.09375 C 904.875 2.578125 907.46875 2.128906 910.074219 1.742188 C 912.679688 1.355469 915.292969 1.03125 917.914062 0.773438 C 920.535156 0.515625 923.164062 0.324219 925.792969 0.195312 C 928.425781 0.0664062 931.058594 0 933.691406 0 C 936.324219 0 938.957031 0.0664062 941.589844 0.195312 C 944.21875 0.324219 946.84375 0.515625 949.464844 0.773438 C 952.089844 1.03125 954.703125 1.355469 957.308594 1.742188 C 959.914062 2.128906 962.507812 2.578125 965.089844 3.09375 C 967.671875 3.605469 970.242188 4.183594 972.796875 4.824219 C 975.351562 5.464844 977.890625 6.164062 980.410156 6.929688 C 982.933594 7.695312 985.433594 8.519531 987.914062 9.410156 C 990.394531 10.296875 992.847656 11.242188 995.28125 12.25 C 997.714844 13.257812 1000.125 14.328125 1002.503906 15.453125 C 1004.886719 16.578125 1007.238281 17.761719 1009.5625 19.003906 C 1011.882812 20.246094 1014.175781 21.542969 1016.433594 22.898438 C 1018.695312 24.253906 1020.917969 25.660156 1023.109375 27.125 C 1025.300781 28.589844 1027.453125 30.105469 1029.566406 31.671875 C 1031.683594 33.242188 1033.757812 34.863281 1035.796875 36.535156 C 1037.832031 38.203125 1039.824219 39.925781 1041.777344 41.695312 C 1043.730469 43.460938 1045.636719 45.277344 1047.5 47.140625 C 1049.359375 49.003906 1051.175781 50.910156 1052.945312 52.863281 C 1054.714844 54.8125 1056.433594 56.808594 1058.105469 58.84375 C 1059.777344 60.878906 1061.398438 62.957031 1062.964844 65.070312 C 1064.535156 67.1875 1066.050781 69.339844 1067.515625 71.53125 C 1068.976562 73.71875 1070.386719 75.945312 1071.742188 78.203125 C 1073.09375 80.464844 1074.394531 82.753906 1075.632812 85.078125 C 1076.875 87.402344 1078.058594 89.753906 1079.1875 92.132812 C 1080.3125 94.515625 1081.378906 96.921875 1082.386719 99.355469 C 1083.394531 101.789062 1084.34375 104.246094 1085.230469 106.726562 C 1086.117188 109.207031 1086.945312 111.707031 1087.707031 114.226562 C 1088.472656 116.75 1089.175781 119.285156 1089.816406 121.839844 C 1090.457031 124.394531 1091.03125 126.964844 1091.546875 129.546875 C 1092.058594 132.132812 1092.511719 134.726562 1092.898438 137.332031 C 1093.285156 139.9375 1093.605469 142.550781 1093.863281 145.171875 C 1094.121094 147.792969 1094.316406 150.421875 1094.445312 153.050781 C 1094.574219 155.683594 1094.640625 158.3125 1094.640625 160.949219 Z M 1094.640625 160.949219 " fill-opacity="1" fill-rule="nonzero"/><path fill="#f7ca3c" d="M 1094.640625 675.984375 C 1094.640625 678.617188 1094.574219 681.25 1094.445312 683.878906 C 1094.316406 686.511719 1094.121094 689.136719 1093.863281 691.757812 C 1093.605469 694.378906 1093.285156 696.992188 1092.898438 699.597656 C 1092.511719 702.203125 1092.058594 704.796875 1091.546875 707.382812 C 1091.03125 709.964844 1090.457031 712.535156 1089.816406 715.089844 C 1089.175781 717.644531 1088.472656 720.183594 1087.707031 722.703125 C 1086.945312 725.222656 1086.117188 727.722656 1085.230469 730.203125 C 1084.34375 732.683594 1083.394531 735.140625 1082.386719 737.574219 C 1081.378906 740.007812 1080.3125 742.414062 1079.1875 744.796875 C 1078.058594 747.179688 1076.875 749.53125 1075.632812 751.851562 C 1074.394531 754.175781 1073.09375 756.46875 1071.742188 758.726562 C 1070.386719 760.984375 1068.976562 763.210938 1067.515625 765.402344 C 1066.050781 767.589844 1064.535156 769.742188 1062.964844 771.859375 C 1061.398438 773.976562 1059.777344 776.050781 1058.105469 778.085938 C 1056.433594 780.125 1054.714844 782.117188 1052.945312 784.070312 C 1051.175781 786.019531 1049.359375 787.925781 1047.5 789.789062 C 1045.636719 791.652344 1043.730469 793.46875 1041.777344 795.238281 C 1039.824219 797.007812 1037.832031 798.726562 1035.796875 800.398438 C 1033.757812 802.070312 1031.683594 803.6875 1029.566406 805.257812 C 1027.453125 806.828125 1025.300781 808.34375 1023.109375 809.804688 C 1020.917969 811.269531 1018.695312 812.679688 1016.433594 814.03125 C 1014.175781 815.386719 1011.882812 816.683594 1009.5625 817.925781 C 1007.238281 819.167969 1004.886719 820.351562 1002.503906 821.476562 C 1000.125 822.605469 997.714844 823.671875 995.28125 824.679688 C 992.847656 825.6875 990.394531 826.636719 987.914062 827.523438 C 985.433594 828.410156 982.933594 829.234375 980.410156 830 C 977.890625 830.765625 975.351562 831.46875 972.796875 832.109375 C 970.242188 832.746094 967.671875 833.324219 965.089844 833.839844 C 962.507812 834.351562 959.914062 834.800781 957.308594 835.1875 C 954.703125 835.574219 952.089844 835.898438 949.464844 836.15625 C 946.84375 836.414062 944.21875 836.609375 941.589844 836.738281 C 938.957031 836.867188 936.324219 836.929688 933.691406 836.929688 C 931.058594 836.929688 928.425781 836.867188 925.792969 836.738281 C 923.164062 836.609375 920.535156 836.414062 917.914062 836.15625 C 915.292969 835.898438 912.679688 835.574219 910.074219 835.1875 C 907.46875 834.800781 904.875 834.351562 902.292969 833.839844 C 899.707031 833.324219 897.140625 832.746094 894.582031 832.109375 C 892.027344 831.46875 889.492188 830.765625 886.96875 830 C 884.449219 829.234375 881.949219 828.410156 879.46875 827.523438 C 876.988281 826.636719 874.53125 825.6875 872.097656 824.679688 C 869.664062 823.671875 867.257812 822.605469 864.875 821.476562 C 862.496094 820.351562 860.144531 819.167969 857.820312 817.925781 C 855.496094 816.683594 853.207031 815.386719 850.945312 814.03125 C 848.6875 812.679688 846.464844 811.269531 844.273438 809.804688 C 842.082031 808.34375 839.929688 806.828125 837.8125 805.257812 C 835.699219 803.6875 833.621094 802.070312 831.585938 800.398438 C 829.550781 798.726562 827.554688 797.007812 825.605469 795.238281 C 823.652344 793.46875 821.746094 791.652344 819.882812 789.789062 C 818.019531 787.925781 816.207031 786.019531 814.4375 784.070312 C 812.667969 782.117188 810.949219 780.125 809.277344 778.085938 C 807.605469 776.050781 805.984375 773.976562 804.414062 771.859375 C 802.847656 769.742188 801.332031 767.589844 799.867188 765.402344 C 798.402344 763.210938 796.996094 760.984375 795.640625 758.726562 C 794.285156 756.46875 792.988281 754.175781 791.746094 751.851562 C 790.503906 749.53125 789.320312 747.179688 788.195312 744.796875 C 787.070312 742.414062 786.003906 740.007812 784.992188 737.574219 C 783.984375 735.140625 783.039062 732.683594 782.152344 730.203125 C 781.261719 727.722656 780.4375 725.222656 779.671875 722.703125 C 778.910156 720.183594 778.207031 717.644531 777.566406 715.089844 C 776.925781 712.535156 776.347656 709.964844 775.835938 707.382812 C 775.320312 704.796875 774.871094 702.203125 774.484375 699.597656 C 774.097656 696.992188 773.777344 694.378906 773.519531 691.757812 C 773.257812 689.136719 773.066406 686.511719 772.9375 683.878906 C 772.808594 681.25 772.742188 678.617188 772.742188 675.984375 C 772.742188 673.347656 772.808594 670.714844 772.9375 668.085938 C 773.066406 665.453125 773.257812 662.828125 773.519531 660.207031 C 773.777344 657.585938 774.097656 654.972656 774.484375 652.367188 C 774.871094 649.761719 775.320312 647.167969 775.835938 644.582031 C 776.347656 642 776.925781 639.429688 777.566406 636.875 C 778.207031 634.320312 778.910156 631.78125 779.671875 629.261719 C 780.4375 626.742188 781.261719 624.242188 782.152344 621.761719 C 783.039062 619.28125 783.984375 616.824219 784.992188 614.390625 C 786.003906 611.957031 787.070312 609.550781 788.195312 607.167969 C 789.320312 604.789062 790.503906 602.433594 791.746094 600.113281 C 792.988281 597.789062 794.285156 595.496094 795.640625 593.238281 C 796.996094 590.980469 798.402344 588.753906 799.867188 586.566406 C 801.332031 584.375 802.847656 582.222656 804.414062 580.105469 C 805.984375 577.992188 807.605469 575.914062 809.277344 573.878906 C 810.949219 571.84375 812.667969 569.847656 814.4375 567.894531 C 816.203125 565.945312 818.019531 564.039062 819.882812 562.175781 C 821.746094 560.3125 823.652344 558.496094 825.605469 556.726562 C 827.554688 554.960938 829.550781 553.238281 831.585938 551.566406 C 833.621094 549.898438 835.699219 548.277344 837.8125 546.707031 C 839.929688 545.140625 842.082031 543.621094 844.273438 542.160156 C 846.464844 540.695312 848.6875 539.285156 850.945312 537.933594 C 853.207031 536.578125 855.496094 535.28125 857.820312 534.039062 C 860.144531 532.796875 862.496094 531.613281 864.875 530.488281 C 867.257812 529.359375 869.664062 528.292969 872.097656 527.285156 C 874.53125 526.277344 876.988281 525.332031 879.46875 524.441406 C 881.949219 523.554688 884.449219 522.730469 886.96875 521.964844 C 889.492188 521.199219 892.027344 520.496094 894.582031 519.859375 C 897.140625 519.21875 899.707031 518.640625 902.292969 518.128906 C 904.875 517.613281 907.46875 517.164062 910.074219 516.777344 C 912.679688 516.390625 915.292969 516.066406 917.914062 515.808594 C 920.535156 515.550781 923.164062 515.359375 925.792969 515.226562 C 928.425781 515.097656 931.058594 515.035156 933.691406 515.035156 C 936.324219 515.035156 938.957031 515.097656 941.589844 515.226562 C 944.21875 515.359375 946.84375 515.550781 949.464844 515.808594 C 952.089844 516.066406 954.703125 516.390625 957.308594 516.777344 C 959.914062 517.164062 962.507812 517.613281 965.089844 518.128906 C 967.671875 518.640625 970.242188 519.21875 972.796875 519.859375 C 975.351562 520.496094 977.890625 521.199219 980.410156 521.964844 C 982.933594 522.730469 985.433594 523.554688 987.914062 524.441406 C 990.394531 525.332031 992.847656 526.277344 995.28125 527.285156 C 997.714844 528.292969 1000.125 529.359375 1002.503906 530.488281 C 1004.886719 531.613281 1007.238281 532.796875 1009.5625 534.039062 C 1011.882812 535.28125 1014.175781 536.578125 1016.433594 537.933594 C 1018.695312 539.285156 1020.917969 540.695312 1023.109375 542.160156 C 1025.300781 543.621094 1027.453125 545.140625 1029.566406 546.707031 C 1031.683594 548.277344 1033.757812 549.898438 1035.796875 551.566406 C 1037.832031 553.238281 1039.824219 554.960938 1041.777344 556.726562 C 1043.730469 558.496094 1045.636719 560.3125 1047.5 562.175781 C 1049.359375 564.039062 1051.175781 565.945312 1052.945312 567.894531 C 1054.714844 569.847656 1056.433594 571.84375 1058.105469 573.878906 C 1059.777344 575.914062 1061.398438 577.992188 1062.964844 580.105469 C 1064.535156 582.222656 1066.050781 584.375 1067.515625 586.566406 C 1068.976562 588.753906 1070.386719 590.980469 1071.742188 593.238281 C 1073.09375 595.496094 1074.394531 597.789062 1075.632812 600.113281 C 1076.875 602.433594 1078.058594 604.789062 1079.1875 607.167969 C 1080.3125 609.550781 1081.378906 611.957031 1082.386719 614.390625 C 1083.394531 616.824219 1084.34375 619.28125 1085.230469 621.761719 C 1086.117188 624.242188 1086.945312 626.742188 1087.707031 629.261719 C 1088.472656 631.78125 1089.175781 634.320312 1089.816406 636.875 C 1090.457031 639.429688 1091.03125 642 1091.546875 644.582031 C 1092.058594 647.167969 1092.511719 649.761719 1092.898438 652.367188 C 1093.285156 654.972656 1093.605469 657.585938 1093.863281 660.207031 C 1094.121094 662.828125 1094.316406 665.453125 1094.445312 668.085938 C 1094.574219 670.714844 1094.640625 673.347656 1094.640625 675.984375 Z M 1094.640625 675.984375 " fill-opacity="1" fill-rule="nonzero"/><path fill="#f7ca3c" d="M 1094.640625 1191.015625 C 1094.640625 1193.652344 1094.574219 1196.285156 1094.445312 1198.914062 C 1094.316406 1201.546875 1094.121094 1204.171875 1093.863281 1206.792969 C 1093.605469 1209.414062 1093.285156 1212.027344 1092.898438 1214.632812 C 1092.511719 1217.238281 1092.058594 1219.832031 1091.546875 1222.417969 C 1091.03125 1225 1090.457031 1227.570312 1089.816406 1230.125 C 1089.175781 1232.679688 1088.472656 1235.21875 1087.707031 1237.738281 C 1086.945312 1240.257812 1086.117188 1242.757812 1085.230469 1245.238281 C 1084.34375 1247.71875 1083.394531 1250.175781 1082.386719 1252.609375 C 1081.378906 1255.042969 1080.3125 1257.449219 1079.1875 1259.832031 C 1078.058594 1262.210938 1076.875 1264.566406 1075.632812 1266.886719 C 1074.394531 1269.210938 1073.09375 1271.5 1071.742188 1273.761719 C 1070.386719 1276.019531 1068.976562 1278.246094 1067.515625 1280.433594 C 1066.050781 1282.625 1064.535156 1284.777344 1062.964844 1286.894531 C 1061.398438 1289.007812 1059.777344 1291.085938 1058.105469 1293.121094 C 1056.433594 1295.15625 1054.714844 1297.152344 1052.945312 1299.101562 C 1051.175781 1301.054688 1049.359375 1302.960938 1047.5 1304.824219 C 1045.636719 1306.6875 1043.730469 1308.503906 1041.777344 1310.273438 C 1039.824219 1312.039062 1037.832031 1313.761719 1035.796875 1315.433594 C 1033.757812 1317.101562 1031.683594 1318.722656 1029.566406 1320.292969 C 1027.453125 1321.859375 1025.300781 1323.378906 1023.109375 1324.839844 C 1020.917969 1326.304688 1018.695312 1327.714844 1016.433594 1329.066406 C 1014.175781 1330.421875 1011.882812 1331.71875 1009.5625 1332.960938 C 1007.238281 1334.203125 1004.886719 1335.386719 1002.503906 1336.511719 C 1000.125 1337.640625 997.714844 1338.707031 995.28125 1339.714844 C 992.847656 1340.722656 990.394531 1341.667969 987.914062 1342.558594 C 985.433594 1343.445312 982.933594 1344.269531 980.410156 1345.035156 C 977.890625 1345.800781 975.351562 1346.503906 972.796875 1347.140625 C 970.242188 1347.78125 967.671875 1348.359375 965.089844 1348.871094 C 962.507812 1349.386719 959.914062 1349.835938 957.308594 1350.222656 C 954.703125 1350.609375 952.089844 1350.933594 949.464844 1351.191406 C 946.84375 1351.449219 944.21875 1351.640625 941.589844 1351.773438 C 938.957031 1351.902344 936.324219 1351.964844 933.691406 1351.964844 C 931.058594 1351.964844 928.425781 1351.902344 925.792969 1351.773438 C 923.164062 1351.640625 920.535156 1351.449219 917.914062 1351.191406 C 915.292969 1350.933594 912.679688 1350.609375 910.074219 1350.222656 C 907.46875 1349.835938 904.875 1349.386719 902.292969 1348.871094 C 899.707031 1348.359375 897.140625 1347.78125 894.582031 1347.140625 C 892.027344 1346.503906 889.492188 1345.800781 886.96875 1345.035156 C 884.449219 1344.269531 881.949219 1343.445312 879.46875 1342.558594 C 876.988281 1341.667969 874.53125 1340.722656 872.097656 1339.714844 C 869.664062 1338.707031 867.257812 1337.640625 864.875 1336.511719 C 862.496094 1335.386719 860.144531 1334.203125 857.820312 1332.960938 C 855.496094 1331.71875 853.207031 1330.421875 850.945312 1329.066406 C 848.6875 1327.714844 846.464844 1326.304688 844.273438 1324.839844 C 842.082031 1323.378906 839.929688 1321.863281 837.8125 1320.292969 C 835.699219 1318.722656 833.621094 1317.101562 831.585938 1315.433594 C 829.550781 1313.761719 827.554688 1312.042969 825.605469 1310.273438 C 823.652344 1308.503906 821.746094 1306.6875 819.882812 1304.824219 C 818.019531 1302.960938 816.207031 1301.054688 814.4375 1299.101562 C 812.667969 1297.152344 810.949219 1295.15625 809.277344 1293.121094 C 807.605469 1291.085938 805.984375 1289.007812 804.414062 1286.894531 C 802.847656 1284.777344 801.332031 1282.625 799.867188 1280.433594 C 798.402344 1278.246094 796.996094 1276.019531 795.640625 1273.761719 C 794.285156 1271.5 792.988281 1269.210938 791.746094 1266.886719 C 790.503906 1264.566406 789.320312 1262.210938 788.195312 1259.832031 C 787.070312 1257.449219 786.003906 1255.042969 784.992188 1252.609375 C 783.984375 1250.175781 783.039062 1247.71875 782.152344 1245.238281 C 781.261719 1242.757812 780.4375 1240.257812 779.671875 1237.738281 C 778.910156 1235.21875 778.207031 1232.679688 777.566406 1230.125 C 776.925781 1227.570312 776.347656 1225 775.835938 1222.417969 C 775.320312 1219.832031 774.871094 1217.238281 774.484375 1214.632812 C 774.097656 1212.027344 773.777344 1209.414062 773.519531 1206.792969 C 773.257812 1204.171875 773.066406 1201.546875 772.9375 1198.914062 C 772.808594 1196.285156 772.742188 1193.652344 772.742188 1191.015625 C 772.742188 1188.382812 772.808594 1185.75 772.9375 1183.121094 C 773.066406 1180.488281 773.257812 1177.863281 773.519531 1175.242188 C 773.777344 1172.621094 774.097656 1170.007812 774.484375 1167.402344 C 774.871094 1164.796875 775.320312 1162.203125 775.835938 1159.617188 C 776.347656 1157.035156 776.925781 1154.464844 777.566406 1151.910156 C 778.207031 1149.355469 778.910156 1146.816406 779.671875 1144.296875 C 780.4375 1141.777344 781.261719 1139.273438 782.152344 1136.796875 C 783.039062 1134.316406 783.984375 1131.859375 784.992188 1129.425781 C 786.003906 1126.992188 787.070312 1124.585938 788.195312 1122.203125 C 789.320312 1119.820312 790.503906 1117.46875 791.746094 1115.148438 C 792.988281 1112.824219 794.285156 1110.53125 795.640625 1108.273438 C 796.996094 1106.015625 798.402344 1103.789062 799.867188 1101.597656 C 801.332031 1099.410156 802.847656 1097.257812 804.414062 1095.140625 C 805.984375 1093.023438 807.605469 1090.949219 809.277344 1088.914062 C 810.949219 1086.875 812.667969 1084.882812 814.4375 1082.929688 C 816.203125 1080.980469 818.019531 1079.070312 819.882812 1077.210938 C 821.746094 1075.347656 823.652344 1073.53125 825.605469 1071.761719 C 827.554688 1069.992188 829.550781 1068.273438 831.585938 1066.601562 C 833.621094 1064.929688 835.699219 1063.3125 837.8125 1061.742188 C 839.929688 1060.171875 842.082031 1058.65625 844.273438 1057.195312 C 846.464844 1055.730469 848.6875 1054.320312 850.945312 1052.96875 C 853.207031 1051.613281 855.496094 1050.316406 857.820312 1049.074219 C 860.144531 1047.832031 862.496094 1046.648438 864.875 1045.523438 C 867.257812 1044.394531 869.664062 1043.328125 872.097656 1042.320312 C 874.53125 1041.3125 876.988281 1040.363281 879.46875 1039.476562 C 881.949219 1038.589844 884.449219 1037.765625 886.96875 1037 C 889.492188 1036.234375 892.027344 1035.53125 894.582031 1034.890625 C 897.140625 1034.253906 899.707031 1033.675781 902.292969 1033.160156 C 904.875 1032.648438 907.46875 1032.199219 910.074219 1031.8125 C 912.679688 1031.425781 915.292969 1031.101562 917.914062 1030.84375 C 920.535156 1030.585938 923.164062 1030.390625 925.792969 1030.261719 C 928.425781 1030.132812 931.058594 1030.070312 933.691406 1030.070312 C 936.324219 1030.070312 938.957031 1030.132812 941.589844 1030.261719 C 944.21875 1030.390625 946.84375 1030.585938 949.464844 1030.84375 C 952.089844 1031.101562 954.703125 1031.425781 957.308594 1031.8125 C 959.914062 1032.199219 962.507812 1032.648438 965.089844 1033.160156 C 967.671875 1033.675781 970.242188 1034.253906 972.796875 1034.890625 C 975.351562 1035.53125 977.890625 1036.234375 980.410156 1037 C 982.933594 1037.765625 985.433594 1038.589844 987.914062 1039.476562 C 990.394531 1040.363281 992.847656 1041.3125 995.28125 1042.320312 C 997.714844 1043.328125 1000.125 1044.394531 1002.503906 1045.523438 C 1004.886719 1046.648438 1007.238281 1047.832031 1009.5625 1049.074219 C 1011.882812 1050.316406 1014.175781 1051.613281 1016.433594 1052.96875 C 1018.695312 1054.320312 1020.917969 1055.730469 1023.109375 1057.195312 C 1025.300781 1058.65625 1027.453125 1060.171875 1029.566406 1061.742188 C 1031.683594 1063.3125 1033.757812 1064.929688 1035.796875 1066.601562 C 1037.832031 1068.273438 1039.824219 1069.992188 1041.777344 1071.761719 C 1043.730469 1073.53125 1045.636719 1075.347656 1047.5 1077.210938 C 1049.359375 1079.070312 1051.175781 1080.980469 1052.945312 1082.929688 C 1054.714844 1084.882812 1056.433594 1086.875 1058.105469 1088.914062 C 1059.777344 1090.949219 1061.398438 1093.023438 1062.964844 1095.140625 C 1064.535156 1097.257812 1066.050781 1099.410156 1067.515625 1101.597656 C 1068.976562 1103.789062 1070.386719 1106.015625 1071.742188 1108.273438 C 1073.09375 1110.53125 1074.394531 1112.824219 1075.632812 1115.148438 C 1076.875 1117.46875 1078.058594 1119.820312 1079.1875 1122.203125 C 1080.3125 1124.585938 1081.378906 1126.992188 1082.386719 1129.425781 C 1083.394531 1131.859375 1084.34375 1134.316406 1085.230469 1136.796875 C 1086.117188 1139.273438 1086.945312 1141.777344 1087.707031 1144.296875 C 1088.472656 1146.816406 1089.175781 1149.355469 1089.816406 1151.910156 C 1090.457031 1154.464844 1091.03125 1157.035156 1091.546875 1159.617188 C 1092.058594 1162.203125 1092.511719 1164.796875 1092.898438 1167.402344 C 1093.285156 1170.007812 1093.605469 1172.621094 1093.863281 1175.242188 C 1094.121094 1177.863281 1094.316406 1180.488281 1094.445312 1183.121094 C 1094.574219 1185.75 1094.640625 1188.382812 1094.640625 1191.015625 Z M 1094.640625 1191.015625 " fill-opacity="1" fill-rule="nonzero"/><g clip-path="url(#03123d3bbb)"><path fill="#4ed8d5" d="M 322.085938 418.464844 C 322.085938 421.097656 322.023438 423.730469 321.894531 426.363281 C 321.765625 428.992188 321.570312 431.621094 321.3125 434.242188 C 321.054688 436.863281 320.730469 439.476562 320.34375 442.082031 C 319.957031 444.6875 319.507812 447.28125 318.996094 449.863281 C 318.480469 452.449219 317.902344 455.019531 317.265625 457.574219 C 316.625 460.128906 315.921875 462.664062 315.15625 465.1875 C 314.390625 467.707031 313.566406 470.207031 312.679688 472.6875 C 311.792969 475.167969 310.84375 477.625 309.835938 480.058594 C 308.828125 482.492188 307.761719 484.898438 306.632812 487.28125 C 305.507812 489.660156 304.324219 492.011719 303.082031 494.335938 C 301.839844 496.660156 300.542969 498.949219 299.1875 501.210938 C 297.835938 503.46875 296.425781 505.691406 294.960938 507.882812 C 293.5 510.074219 291.984375 512.226562 290.414062 514.34375 C 288.84375 516.457031 287.226562 518.535156 285.554688 520.570312 C 283.882812 522.605469 282.164062 524.601562 280.394531 526.550781 C 278.625 528.503906 276.808594 530.410156 274.945312 532.273438 C 273.085938 534.136719 271.175781 535.953125 269.226562 537.71875 C 267.273438 539.488281 265.28125 541.210938 263.242188 542.878906 C 261.207031 544.550781 259.132812 546.171875 257.015625 547.742188 C 254.898438 549.308594 252.746094 550.824219 250.558594 552.289062 C 248.367188 553.753906 246.140625 555.160156 243.882812 556.515625 C 241.625 557.871094 239.332031 559.167969 237.007812 560.410156 C 234.6875 561.652344 232.335938 562.835938 229.953125 563.960938 C 227.574219 565.085938 225.164062 566.152344 222.730469 567.164062 C 220.296875 568.171875 217.839844 569.117188 215.359375 570.003906 C 212.882812 570.894531 210.378906 571.71875 207.859375 572.484375 C 205.339844 573.246094 202.800781 573.949219 200.246094 574.589844 C 197.691406 575.230469 195.121094 575.808594 192.539062 576.320312 C 189.957031 576.835938 187.359375 577.285156 184.753906 577.671875 C 182.148438 578.058594 179.535156 578.378906 176.914062 578.640625 C 174.292969 578.898438 171.667969 579.089844 169.035156 579.21875 C 166.40625 579.347656 163.773438 579.414062 161.140625 579.414062 C 158.503906 579.414062 155.871094 579.347656 153.242188 579.21875 C 150.609375 579.089844 147.984375 578.898438 145.363281 578.640625 C 142.742188 578.378906 140.128906 578.058594 137.523438 577.671875 C 134.917969 577.285156 132.324219 576.835938 129.738281 576.320312 C 127.15625 575.808594 124.585938 575.230469 122.03125 574.589844 C 119.476562 573.949219 116.9375 573.246094 114.417969 572.484375 C 111.898438 571.71875 109.398438 570.894531 106.917969 570.003906 C 104.4375 569.117188 101.980469 568.171875 99.546875 567.164062 C 97.113281 566.152344 94.707031 565.085938 92.324219 563.960938 C 89.945312 562.835938 87.589844 561.652344 85.269531 560.410156 C 82.945312 559.167969 80.65625 557.871094 78.394531 556.515625 C 76.136719 555.160156 73.910156 553.753906 71.722656 552.289062 C 69.53125 550.824219 67.378906 549.308594 65.261719 547.742188 C 63.148438 546.171875 61.070312 544.550781 59.035156 542.878906 C 57 541.210938 55.003906 539.488281 53.054688 537.71875 C 51.101562 535.953125 49.195312 534.136719 47.332031 532.273438 C 45.46875 530.410156 43.652344 528.503906 41.882812 526.550781 C 40.117188 524.601562 38.394531 522.605469 36.722656 520.570312 C 35.054688 518.535156 33.433594 516.457031 31.863281 514.34375 C 30.296875 512.226562 28.777344 510.074219 27.316406 507.882812 C 25.851562 505.691406 24.445312 503.46875 23.089844 501.210938 C 21.734375 498.949219 20.4375 496.660156 19.195312 494.335938 C 17.953125 492.011719 16.769531 489.660156 15.644531 487.28125 C 14.515625 484.898438 13.449219 482.492188 12.441406 480.058594 C 11.433594 477.625 10.488281 475.167969 9.597656 472.6875 C 8.710938 470.207031 7.886719 467.707031 7.121094 465.1875 C 6.355469 462.664062 5.65625 460.128906 5.015625 457.574219 C 4.375 455.019531 3.796875 452.449219 3.285156 449.863281 C 2.769531 447.28125 2.320312 444.6875 1.933594 442.082031 C 1.546875 439.476562 1.222656 436.863281 0.964844 434.242188 C 0.707031 431.621094 0.515625 428.992188 0.386719 426.363281 C 0.253906 423.730469 0.191406 421.097656 0.191406 418.464844 C 0.191406 415.832031 0.253906 413.199219 0.386719 410.566406 C 0.515625 407.9375 0.707031 405.3125 0.964844 402.691406 C 1.222656 400.070312 1.546875 397.453125 1.933594 394.847656 C 2.320312 392.242188 2.769531 389.648438 3.285156 387.066406 C 3.796875 384.484375 4.375 381.914062 5.015625 379.359375 C 5.65625 376.804688 6.355469 374.265625 7.121094 371.746094 C 7.886719 369.222656 8.710938 366.722656 9.597656 364.242188 C 10.488281 361.761719 11.433594 359.308594 12.441406 356.875 C 13.449219 354.441406 14.515625 352.03125 15.644531 349.652344 C 16.769531 347.269531 17.953125 344.917969 19.195312 342.59375 C 20.4375 340.273438 21.734375 337.980469 23.089844 335.722656 C 24.445312 333.460938 25.851562 331.238281 27.316406 329.046875 C 28.777344 326.855469 30.296875 324.703125 31.863281 322.589844 C 33.433594 320.472656 35.054688 318.398438 36.722656 316.359375 C 38.394531 314.324219 40.117188 312.332031 41.882812 310.378906 C 43.652344 308.425781 45.46875 306.519531 47.332031 304.65625 C 49.195312 302.796875 51.101562 300.980469 53.054688 299.210938 C 55.003906 297.441406 57 295.722656 59.035156 294.050781 C 61.070312 292.378906 63.148438 290.757812 65.261719 289.191406 C 67.378906 287.621094 69.53125 286.105469 71.722656 284.640625 C 73.910156 283.179688 76.136719 281.769531 78.394531 280.414062 C 80.65625 279.0625 82.945312 277.761719 85.269531 276.523438 C 87.589844 275.28125 89.945312 274.097656 92.324219 272.96875 C 94.707031 271.84375 97.113281 270.777344 99.546875 269.769531 C 101.980469 268.761719 104.4375 267.8125 106.917969 266.925781 C 109.398438 266.039062 111.898438 265.210938 114.417969 264.449219 C 116.9375 263.683594 119.476562 262.980469 122.03125 262.339844 C 124.585938 261.699219 127.15625 261.125 129.738281 260.609375 C 132.324219 260.097656 134.917969 259.644531 137.523438 259.257812 C 140.128906 258.871094 142.742188 258.550781 145.363281 258.292969 C 147.984375 258.035156 150.609375 257.839844 153.242188 257.710938 C 155.871094 257.582031 158.503906 257.515625 161.140625 257.515625 C 163.773438 257.515625 166.40625 257.582031 169.035156 257.710938 C 171.667969 257.839844 174.292969 258.035156 176.914062 258.292969 C 179.535156 258.550781 182.148438 258.871094 184.753906 259.257812 C 187.359375 259.644531 189.957031 260.097656 192.539062 260.609375 C 195.121094 261.125 197.691406 261.699219 200.246094 262.339844 C 202.800781 262.980469 205.339844 263.683594 207.859375 264.449219 C 210.378906 265.210938 212.882812 266.039062 215.359375 266.925781 C 217.839844 267.8125 220.296875 268.761719 222.730469 269.769531 C 225.164062 270.777344 227.574219 271.84375 229.953125 272.96875 C 232.335938 274.097656 234.6875 275.28125 237.007812 276.523438 C 239.332031 277.761719 241.625 279.0625 243.882812 280.414062 C 246.140625 281.769531 248.367188 283.179688 250.558594 284.640625 C 252.746094 286.105469 254.898438 287.621094 257.015625 289.191406 C 259.132812 290.757812 261.207031 292.378906 263.242188 294.050781 C 265.28125 295.722656 267.273438 297.441406 269.226562 299.210938 C 271.175781 300.980469 273.085938 302.796875 274.945312 304.65625 C 276.808594 306.519531 278.625 308.425781 280.394531 310.378906 C 282.164062 312.332031 283.882812 314.324219 285.554688 316.359375 C 287.226562 318.398438 288.84375 320.472656 290.414062 322.589844 C 291.984375 324.703125 293.5 326.855469 294.960938 329.046875 C 296.425781 331.238281 297.835938 333.460938 299.1875 335.722656 C 300.542969 337.980469 301.839844 340.273438 303.082031 342.59375 C 304.324219 344.917969 305.507812 347.269531 306.632812 349.652344 C 307.761719 352.03125 308.828125 354.441406 309.835938 356.875 C 310.84375 359.308594 311.792969 361.761719 312.679688 364.242188 C 313.566406 366.722656 314.390625 369.222656 315.15625 371.746094 C 315.921875 374.265625 316.625 376.804688 317.265625 379.359375 C 317.902344 381.914062 318.480469 384.484375 318.996094 387.066406 C 319.507812 389.648438 319.957031 392.242188 320.34375 394.847656 C 320.730469 397.453125 321.054688 400.070312 321.3125 402.691406 C 321.570312 405.3125 321.765625 407.9375 321.894531 410.566406 C 322.023438 413.199219 322.085938 415.832031 322.085938 418.464844 Z M 322.085938 418.464844 " fill-opacity="1" fill-rule="nonzero"/></g><g clip-path="url(#530e35835b)"><path fill="#4ed8d5" d="M 322.085938 933.5 C 322.085938 936.132812 322.023438 938.765625 321.894531 941.398438 C 321.765625 944.027344 321.570312 946.65625 321.3125 949.277344 C 321.054688 951.898438 320.730469 954.511719 320.34375 957.117188 C 319.957031 959.722656 319.507812 962.316406 318.996094 964.898438 C 318.480469 967.484375 317.902344 970.050781 317.265625 972.605469 C 316.625 975.164062 315.921875 977.699219 315.15625 980.222656 C 314.390625 982.742188 313.566406 985.242188 312.679688 987.722656 C 311.792969 990.203125 310.84375 992.660156 309.835938 995.09375 C 308.828125 997.527344 307.761719 999.933594 306.632812 1002.3125 C 305.507812 1004.695312 304.324219 1007.046875 303.082031 1009.371094 C 301.839844 1011.691406 300.542969 1013.984375 299.1875 1016.242188 C 297.835938 1018.503906 296.425781 1020.726562 294.960938 1022.917969 C 293.5 1025.109375 291.984375 1027.261719 290.414062 1029.375 C 288.84375 1031.492188 287.226562 1033.566406 285.554688 1035.605469 C 283.882812 1037.640625 282.164062 1039.632812 280.394531 1041.585938 C 278.625 1043.539062 276.808594 1045.445312 274.945312 1047.308594 C 273.085938 1049.171875 271.175781 1050.984375 269.226562 1052.753906 C 267.273438 1054.523438 265.28125 1056.242188 263.242188 1057.914062 C 261.207031 1059.585938 259.132812 1061.207031 257.015625 1062.773438 C 254.898438 1064.34375 252.746094 1065.859375 250.558594 1067.324219 C 248.367188 1068.785156 246.140625 1070.195312 243.882812 1071.550781 C 241.625 1072.902344 239.332031 1074.203125 237.007812 1075.445312 C 234.6875 1076.683594 232.335938 1077.871094 229.953125 1078.996094 C 227.574219 1080.121094 225.164062 1081.1875 222.730469 1082.195312 C 220.296875 1083.203125 217.839844 1084.152344 215.359375 1085.039062 C 212.882812 1085.925781 210.378906 1086.753906 207.859375 1087.519531 C 205.339844 1088.28125 202.800781 1088.984375 200.246094 1089.625 C 197.691406 1090.265625 195.121094 1090.839844 192.539062 1091.355469 C 189.957031 1091.871094 187.359375 1092.320312 184.753906 1092.707031 C 182.148438 1093.09375 179.535156 1093.414062 176.914062 1093.671875 C 174.292969 1093.929688 171.667969 1094.125 169.035156 1094.253906 C 166.40625 1094.382812 163.773438 1094.449219 161.140625 1094.449219 C 158.503906 1094.449219 155.871094 1094.382812 153.242188 1094.253906 C 150.609375 1094.125 147.984375 1093.929688 145.363281 1093.671875 C 142.742188 1093.414062 140.128906 1093.09375 137.523438 1092.707031 C 134.917969 1092.320312 132.324219 1091.871094 129.738281 1091.355469 C 127.15625 1090.839844 124.585938 1090.265625 122.03125 1089.625 C 119.476562 1088.984375 116.9375 1088.28125 114.417969 1087.519531 C 111.898438 1086.753906 109.398438 1085.925781 106.917969 1085.039062 C 104.4375 1084.152344 101.980469 1083.203125 99.546875 1082.195312 C 97.113281 1081.1875 94.707031 1080.121094 92.324219 1078.996094 C 89.945312 1077.871094 87.589844 1076.683594 85.269531 1075.445312 C 82.945312 1074.203125 80.65625 1072.902344 78.394531 1071.550781 C 76.136719 1070.195312 73.910156 1068.785156 71.722656 1067.324219 C 69.53125 1065.859375 67.378906 1064.34375 65.261719 1062.773438 C 63.148438 1061.207031 61.070312 1059.585938 59.035156 1057.914062 C 57 1056.242188 55.003906 1054.523438 53.054688 1052.753906 C 51.101562 1050.984375 49.195312 1049.171875 47.332031 1047.308594 C 45.46875 1045.445312 43.652344 1043.539062 41.882812 1041.585938 C 40.117188 1039.632812 38.394531 1037.640625 36.722656 1035.605469 C 35.054688 1033.566406 33.433594 1031.492188 31.863281 1029.375 C 30.296875 1027.261719 28.777344 1025.109375 27.316406 1022.917969 C 25.851562 1020.726562 24.445312 1018.503906 23.089844 1016.242188 C 21.734375 1013.984375 20.4375 1011.695312 19.195312 1009.371094 C 17.953125 1007.046875 16.769531 1004.695312 15.644531 1002.3125 C 14.515625 999.933594 13.449219 997.527344 12.441406 995.09375 C 11.433594 992.660156 10.488281 990.203125 9.597656 987.722656 C 8.710938 985.242188 7.886719 982.742188 7.121094 980.222656 C 6.355469 977.699219 5.65625 975.164062 5.015625 972.605469 C 4.375 970.050781 3.796875 967.484375 3.285156 964.898438 C 2.769531 962.316406 2.320312 959.722656 1.933594 957.117188 C 1.546875 954.511719 1.222656 951.898438 0.964844 949.277344 C 0.707031 946.65625 0.515625 944.027344 0.386719 941.398438 C 0.253906 938.765625 0.191406 936.132812 0.191406 933.5 C 0.191406 930.867188 0.253906 928.234375 0.386719 925.601562 C 0.515625 922.972656 0.707031 920.34375 0.964844 917.722656 C 1.222656 915.101562 1.546875 912.488281 1.933594 909.882812 C 2.320312 907.277344 2.769531 904.683594 3.285156 902.101562 C 3.796875 899.515625 4.375 896.949219 5.015625 894.394531 C 5.65625 891.835938 6.355469 889.300781 7.121094 886.777344 C 7.886719 884.257812 8.710938 881.757812 9.597656 879.277344 C 10.488281 876.796875 11.433594 874.339844 12.441406 871.90625 C 13.449219 869.472656 14.515625 867.066406 15.644531 864.6875 C 16.769531 862.304688 17.953125 859.953125 19.195312 857.628906 C 20.4375 855.304688 21.734375 853.015625 23.089844 850.757812 C 24.445312 848.496094 25.851562 846.273438 27.316406 844.082031 C 28.777344 841.890625 30.296875 839.738281 31.863281 837.625 C 33.433594 835.507812 35.054688 833.429688 36.722656 831.394531 C 38.394531 829.359375 40.117188 827.367188 41.882812 825.414062 C 43.652344 823.460938 45.46875 821.554688 47.332031 819.691406 C 49.195312 817.828125 51.101562 816.015625 53.054688 814.246094 C 55.003906 812.476562 57 810.757812 59.035156 809.085938 C 61.070312 807.414062 63.148438 805.792969 65.261719 804.226562 C 67.378906 802.65625 69.53125 801.140625 71.722656 799.675781 C 73.910156 798.214844 76.136719 796.804688 78.394531 795.449219 C 80.65625 794.097656 82.945312 792.796875 85.269531 791.554688 C 87.589844 790.316406 89.945312 789.128906 92.324219 788.003906 C 94.707031 786.878906 97.113281 785.8125 99.546875 784.804688 C 101.980469 783.796875 104.4375 782.847656 106.917969 781.960938 C 109.398438 781.074219 111.898438 780.246094 114.417969 779.480469 C 116.9375 778.71875 119.476562 778.015625 122.03125 777.375 C 124.585938 776.734375 127.15625 776.15625 129.738281 775.644531 C 132.324219 775.128906 134.917969 774.679688 137.523438 774.292969 C 140.128906 773.90625 142.742188 773.585938 145.363281 773.328125 C 147.984375 773.070312 150.609375 772.875 153.242188 772.746094 C 155.871094 772.617188 158.503906 772.550781 161.140625 772.550781 C 163.773438 772.550781 166.40625 772.617188 169.035156 772.746094 C 171.667969 772.875 174.292969 773.070312 176.914062 773.328125 C 179.535156 773.585938 182.148438 773.90625 184.753906 774.292969 C 187.359375 774.679688 189.957031 775.128906 192.539062 775.644531 C 195.121094 776.15625 197.691406 776.734375 200.246094 777.375 C 202.800781 778.015625 205.339844 778.71875 207.859375 779.480469 C 210.378906 780.246094 212.882812 781.074219 215.359375 781.960938 C 217.839844 782.847656 220.296875 783.796875 222.730469 784.804688 C 225.164062 785.8125 227.574219 786.878906 229.953125 788.003906 C 232.335938 789.128906 234.6875 790.316406 237.007812 791.554688 C 239.332031 792.796875 241.625 794.097656 243.882812 795.449219 C 246.140625 796.804688 248.367188 798.214844 250.558594 799.675781 C 252.746094 801.140625 254.898438 802.65625 257.015625 804.226562 C 259.132812 805.792969 261.207031 807.414062 263.242188 809.085938 C 265.28125 810.757812 267.273438 812.476562 269.226562 814.246094 C 271.175781 816.015625 273.085938 817.828125 274.945312 819.691406 C 276.808594 821.554688 278.625 823.460938 280.394531 825.414062 C 282.164062 827.367188 283.882812 829.359375 285.554688 831.394531 C 287.226562 833.429688 288.84375 835.507812 290.414062 837.625 C 291.984375 839.738281 293.5 841.890625 294.960938 844.082031 C 296.425781 846.273438 297.835938 848.496094 299.1875 850.757812 C 300.542969 853.015625 301.839844 855.304688 303.082031 857.628906 C 304.324219 859.953125 305.507812 862.304688 306.632812 864.6875 C 307.761719 867.066406 308.828125 869.472656 309.835938 871.90625 C 310.84375 874.339844 311.792969 876.796875 312.679688 879.277344 C 313.566406 881.757812 314.390625 884.257812 315.15625 886.777344 C 315.921875 889.300781 316.625 891.835938 317.265625 894.394531 C 317.902344 896.949219 318.480469 899.515625 318.996094 902.101562 C 319.507812 904.683594 319.957031 907.277344 320.34375 909.882812 C 320.730469 912.488281 321.054688 915.101562 321.3125 917.722656 C 321.570312 920.34375 321.765625 922.972656 321.894531 925.601562 C 322.023438 928.234375 322.085938 930.867188 322.085938 933.5 Z M 322.085938 933.5 " fill-opacity="1" fill-rule="nonzero"/></g><g clip-path="url(#b1855d870c)"><path fill="#4ed8d5" d="M 322.085938 1448.535156 C 322.085938 1451.167969 322.023438 1453.800781 321.894531 1456.433594 C 321.765625 1459.0625 321.570312 1461.6875 321.3125 1464.308594 C 321.054688 1466.929688 320.730469 1469.546875 320.34375 1472.152344 C 319.957031 1474.757812 319.507812 1477.351562 318.996094 1479.933594 C 318.480469 1482.515625 317.902344 1485.085938 317.265625 1487.640625 C 316.625 1490.195312 315.921875 1492.734375 315.15625 1495.253906 C 314.390625 1497.777344 313.566406 1500.277344 312.679688 1502.757812 C 311.792969 1505.234375 310.84375 1507.691406 309.835938 1510.125 C 308.828125 1512.558594 307.761719 1514.96875 306.632812 1517.347656 C 305.507812 1519.730469 304.324219 1522.082031 303.082031 1524.40625 C 301.839844 1526.726562 300.542969 1529.019531 299.1875 1531.277344 C 297.835938 1533.539062 296.425781 1535.761719 294.960938 1537.953125 C 293.5 1540.140625 291.984375 1542.296875 290.414062 1544.410156 C 288.84375 1546.527344 287.226562 1548.601562 285.554688 1550.640625 C 283.882812 1552.675781 282.164062 1554.667969 280.394531 1556.621094 C 278.625 1558.574219 276.808594 1560.480469 274.945312 1562.34375 C 273.085938 1564.203125 271.175781 1566.019531 269.226562 1567.789062 C 267.273438 1569.558594 265.28125 1571.277344 263.242188 1572.949219 C 261.207031 1574.621094 259.132812 1576.238281 257.015625 1577.808594 C 254.898438 1579.378906 252.746094 1580.894531 250.558594 1582.359375 C 248.367188 1583.820312 246.140625 1585.230469 243.882812 1586.585938 C 241.625 1587.9375 239.332031 1589.238281 237.007812 1590.476562 C 234.6875 1591.71875 232.335938 1592.902344 229.953125 1594.03125 C 227.574219 1595.15625 225.164062 1596.222656 222.730469 1597.230469 C 220.296875 1598.238281 217.839844 1599.1875 215.359375 1600.074219 C 212.882812 1600.960938 210.378906 1601.789062 207.859375 1602.550781 C 205.339844 1603.316406 202.800781 1604.019531 200.246094 1604.660156 C 197.691406 1605.300781 195.121094 1605.875 192.539062 1606.390625 C 189.957031 1606.902344 187.359375 1607.355469 184.753906 1607.742188 C 182.148438 1608.128906 179.535156 1608.449219 176.914062 1608.707031 C 174.292969 1608.964844 171.667969 1609.160156 169.035156 1609.289062 C 166.40625 1609.417969 163.773438 1609.484375 161.140625 1609.484375 C 158.503906 1609.484375 155.871094 1609.417969 153.242188 1609.289062 C 150.609375 1609.160156 147.984375 1608.964844 145.363281 1608.707031 C 142.742188 1608.449219 140.128906 1608.128906 137.523438 1607.742188 C 134.917969 1607.355469 132.324219 1606.902344 129.738281 1606.390625 C 127.15625 1605.875 124.585938 1605.300781 122.03125 1604.660156 C 119.476562 1604.019531 116.9375 1603.316406 114.417969 1602.550781 C 111.898438 1601.789062 109.398438 1600.960938 106.917969 1600.074219 C 104.4375 1599.1875 101.980469 1598.238281 99.546875 1597.230469 C 97.113281 1596.222656 94.707031 1595.15625 92.324219 1594.03125 C 89.945312 1592.902344 87.589844 1591.71875 85.269531 1590.476562 C 82.945312 1589.238281 80.65625 1587.9375 78.394531 1586.585938 C 76.136719 1585.230469 73.910156 1583.820312 71.722656 1582.359375 C 69.53125 1580.894531 67.378906 1579.378906 65.261719 1577.808594 C 63.148438 1576.238281 61.070312 1574.621094 59.035156 1572.949219 C 57 1571.277344 55.003906 1569.558594 53.054688 1567.789062 C 51.101562 1566.019531 49.195312 1564.203125 47.332031 1562.34375 C 45.46875 1560.480469 43.652344 1558.574219 41.882812 1556.621094 C 40.117188 1554.667969 38.394531 1552.675781 36.722656 1550.640625 C 35.054688 1548.601562 33.433594 1546.527344 31.863281 1544.410156 C 30.296875 1542.296875 28.777344 1540.140625 27.316406 1537.953125 C 25.851562 1535.761719 24.445312 1533.539062 23.089844 1531.277344 C 21.734375 1529.019531 20.4375 1526.726562 19.195312 1524.40625 C 17.953125 1522.082031 16.769531 1519.730469 15.644531 1517.347656 C 14.515625 1514.96875 13.449219 1512.558594 12.441406 1510.125 C 11.433594 1507.691406 10.488281 1505.234375 9.597656 1502.757812 C 8.710938 1500.277344 7.886719 1497.777344 7.121094 1495.253906 C 6.355469 1492.734375 5.65625 1490.195312 5.015625 1487.640625 C 4.375 1485.085938 3.796875 1482.515625 3.285156 1479.933594 C 2.769531 1477.351562 2.320312 1474.757812 1.933594 1472.152344 C 1.546875 1469.546875 1.222656 1466.929688 0.964844 1464.308594 C 0.707031 1461.6875 0.515625 1459.0625 0.386719 1456.433594 C 0.253906 1453.800781 0.191406 1451.167969 0.191406 1448.535156 C 0.191406 1445.902344 0.253906 1443.269531 0.386719 1440.636719 C 0.515625 1438.007812 0.707031 1435.378906 0.964844 1432.757812 C 1.222656 1430.136719 1.546875 1427.523438 1.933594 1424.917969 C 2.320312 1422.3125 2.769531 1419.71875 3.285156 1417.136719 C 3.796875 1414.550781 4.375 1411.980469 5.015625 1409.425781 C 5.65625 1406.871094 6.355469 1404.335938 7.121094 1401.8125 C 7.886719 1399.292969 8.710938 1396.792969 9.597656 1394.3125 C 10.488281 1391.832031 11.433594 1389.375 12.441406 1386.941406 C 13.449219 1384.507812 14.515625 1382.101562 15.644531 1379.71875 C 16.769531 1377.339844 17.953125 1374.988281 19.195312 1372.664062 C 20.4375 1370.339844 21.734375 1368.050781 23.089844 1365.789062 C 24.445312 1363.53125 25.851562 1361.304688 27.316406 1359.117188 C 28.777344 1356.925781 30.296875 1354.773438 31.863281 1352.65625 C 33.433594 1350.542969 35.054688 1348.464844 36.722656 1346.429688 C 38.394531 1344.394531 40.117188 1342.398438 41.882812 1340.449219 C 43.652344 1338.496094 45.46875 1336.589844 47.332031 1334.726562 C 49.195312 1332.863281 51.101562 1331.046875 53.054688 1329.28125 C 55.003906 1327.511719 57 1325.789062 59.035156 1324.121094 C 61.070312 1322.449219 63.148438 1320.828125 65.261719 1319.257812 C 67.378906 1317.691406 69.53125 1316.175781 71.722656 1314.710938 C 73.910156 1313.246094 76.136719 1311.839844 78.394531 1310.484375 C 80.65625 1309.128906 82.945312 1307.832031 85.269531 1306.589844 C 87.589844 1305.347656 89.945312 1304.164062 92.324219 1303.039062 C 94.707031 1301.914062 97.113281 1300.84375 99.546875 1299.835938 C 101.980469 1298.828125 104.4375 1297.882812 106.917969 1296.996094 C 109.398438 1296.105469 111.898438 1295.28125 114.417969 1294.515625 C 116.9375 1293.753906 119.476562 1293.050781 122.03125 1292.410156 C 124.585938 1291.769531 127.15625 1291.191406 129.738281 1290.679688 C 132.324219 1290.164062 134.917969 1289.714844 137.523438 1289.328125 C 140.128906 1288.941406 142.742188 1288.621094 145.363281 1288.359375 C 147.984375 1288.101562 150.609375 1287.910156 153.242188 1287.78125 C 155.871094 1287.652344 158.503906 1287.585938 161.140625 1287.585938 C 163.773438 1287.585938 166.40625 1287.652344 169.035156 1287.78125 C 171.667969 1287.910156 174.292969 1288.101562 176.914062 1288.359375 C 179.535156 1288.621094 182.148438 1288.941406 184.753906 1289.328125 C 187.359375 1289.714844 189.957031 1290.164062 192.539062 1290.679688 C 195.121094 1291.191406 197.691406 1291.769531 200.246094 1292.410156 C 202.800781 1293.050781 205.339844 1293.753906 207.859375 1294.515625 C 210.378906 1295.28125 212.882812 1296.105469 215.359375 1296.996094 C 217.839844 1297.882812 220.296875 1298.828125 222.730469 1299.835938 C 225.164062 1300.84375 227.574219 1301.914062 229.953125 1303.039062 C 232.335938 1304.164062 234.6875 1305.347656 237.007812 1306.589844 C 239.332031 1307.832031 241.625 1309.128906 243.882812 1310.484375 C 246.140625 1311.839844 248.367188 1313.246094 250.558594 1314.710938 C 252.746094 1316.175781 254.898438 1317.691406 257.015625 1319.257812 C 259.132812 1320.828125 261.207031 1322.449219 263.242188 1324.121094 C 265.28125 1325.789062 267.273438 1327.511719 269.226562 1329.28125 C 271.175781 1331.046875 273.085938 1332.863281 274.945312 1334.726562 C 276.808594 1336.589844 278.625 1338.496094 280.394531 1340.449219 C 282.164062 1342.398438 283.882812 1344.394531 285.554688 1346.429688 C 287.226562 1348.464844 288.84375 1350.542969 290.414062 1352.65625 C 291.984375 1354.773438 293.5 1356.925781 294.960938 1359.117188 C 296.425781 1361.304688 297.835938 1363.53125 299.1875 1365.789062 C 300.542969 1368.050781 301.839844 1370.339844 303.082031 1372.664062 C 304.324219 1374.988281 305.507812 1377.339844 306.632812 1379.71875 C 307.761719 1382.101562 308.828125 1384.507812 309.835938 1386.941406 C 310.84375 1389.375 311.792969 1391.832031 312.679688 1394.3125 C 313.566406 1396.792969 314.390625 1399.292969 315.15625 1401.8125 C 315.921875 1404.335938 316.625 1406.871094 317.265625 1409.425781 C 317.902344 1411.980469 318.480469 1414.550781 318.996094 1417.136719 C 319.507812 1419.71875 319.957031 1422.3125 320.34375 1424.917969 C 320.730469 1427.523438 321.054688 1430.136719 321.3125 1432.757812 C 321.570312 1435.378906 321.765625 1438.007812 321.894531 1440.636719 C 322.023438 1443.269531 322.085938 1445.902344 322.085938 1448.535156 Z M 322.085938 1448.535156 " fill-opacity="1" fill-rule="nonzero"/></g><g clip-path="url(#b0336358ce)"><path fill="#ea4458" d="M 1867.191406 675.984375 C 1867.191406 678.617188 1867.125 681.25 1866.996094 683.878906 C 1866.867188 686.511719 1866.675781 689.136719 1866.417969 691.757812 C 1866.15625 694.378906 1865.835938 696.992188 1865.449219 699.597656 C 1865.0625 702.203125 1864.613281 704.796875 1864.097656 707.382812 C 1863.585938 709.964844 1863.007812 712.535156 1862.367188 715.089844 C 1861.726562 717.644531 1861.023438 720.183594 1860.261719 722.703125 C 1859.496094 725.222656 1858.667969 727.722656 1857.78125 730.203125 C 1856.894531 732.683594 1855.949219 735.140625 1854.9375 737.574219 C 1853.929688 740.007812 1852.863281 742.414062 1851.738281 744.796875 C 1850.613281 747.179688 1849.429688 749.53125 1848.1875 751.851562 C 1846.945312 754.175781 1845.648438 756.46875 1844.292969 758.726562 C 1842.9375 760.984375 1841.53125 763.210938 1840.066406 765.402344 C 1838.601562 767.589844 1837.085938 769.742188 1835.515625 771.859375 C 1833.949219 773.976562 1832.328125 776.050781 1830.65625 778.085938 C 1828.984375 780.125 1827.265625 782.117188 1825.496094 784.070312 C 1823.726562 786.019531 1821.914062 787.925781 1820.050781 789.789062 C 1818.1875 791.652344 1816.28125 793.46875 1814.328125 795.238281 C 1812.378906 797.007812 1810.382812 798.726562 1808.347656 800.398438 C 1806.3125 802.070312 1804.234375 803.6875 1802.121094 805.257812 C 1800.003906 806.828125 1797.851562 808.34375 1795.660156 809.804688 C 1793.46875 811.269531 1791.246094 812.679688 1788.988281 814.03125 C 1786.726562 815.386719 1784.4375 816.683594 1782.113281 817.925781 C 1779.789062 819.167969 1777.4375 820.351562 1775.058594 821.476562 C 1772.675781 822.605469 1770.269531 823.671875 1767.835938 824.679688 C 1765.402344 825.6875 1762.945312 826.636719 1760.464844 827.523438 C 1757.984375 828.410156 1755.484375 829.234375 1752.964844 830 C 1750.441406 830.765625 1747.90625 831.46875 1745.351562 832.109375 C 1742.792969 832.746094 1740.226562 833.324219 1737.640625 833.839844 C 1735.058594 834.351562 1732.464844 834.800781 1729.859375 835.1875 C 1727.253906 835.574219 1724.640625 835.898438 1722.019531 836.15625 C 1719.398438 836.414062 1716.769531 836.609375 1714.140625 836.738281 C 1711.507812 836.867188 1708.875 836.929688 1706.242188 836.929688 C 1703.609375 836.929688 1700.976562 836.867188 1698.34375 836.738281 C 1695.714844 836.609375 1693.089844 836.414062 1690.46875 836.15625 C 1687.847656 835.898438 1685.230469 835.574219 1682.625 835.1875 C 1680.019531 834.800781 1677.425781 834.351562 1674.84375 833.839844 C 1672.261719 833.324219 1669.691406 832.746094 1667.136719 832.109375 C 1664.582031 831.46875 1662.042969 830.765625 1659.523438 830 C 1657 829.234375 1654.5 828.410156 1652.019531 827.523438 C 1649.539062 826.636719 1647.082031 825.6875 1644.648438 824.679688 C 1642.214844 823.671875 1639.808594 822.605469 1637.429688 821.476562 C 1635.046875 820.351562 1632.695312 819.167969 1630.371094 817.925781 C 1628.050781 816.683594 1625.757812 815.386719 1623.5 814.03125 C 1621.238281 812.679688 1619.015625 811.269531 1616.824219 809.804688 C 1614.632812 808.34375 1612.480469 806.828125 1610.367188 805.257812 C 1608.25 803.6875 1606.175781 802.070312 1604.136719 800.398438 C 1602.101562 798.726562 1600.109375 797.007812 1598.15625 795.238281 C 1596.203125 793.46875 1594.296875 791.652344 1592.433594 789.789062 C 1590.574219 787.925781 1588.757812 786.019531 1586.988281 784.070312 C 1585.21875 782.117188 1583.5 780.125 1581.828125 778.085938 C 1580.15625 776.050781 1578.535156 773.976562 1576.96875 771.859375 C 1575.398438 769.742188 1573.882812 767.589844 1572.417969 765.402344 C 1570.957031 763.210938 1569.546875 760.984375 1568.191406 758.726562 C 1566.839844 756.46875 1565.539062 754.175781 1564.300781 751.851562 C 1563.058594 749.53125 1561.875 747.179688 1560.746094 744.796875 C 1559.621094 742.414062 1558.554688 740.007812 1557.546875 737.574219 C 1556.539062 735.140625 1555.589844 732.683594 1554.703125 730.203125 C 1553.816406 727.722656 1552.988281 725.222656 1552.226562 722.703125 C 1551.460938 720.183594 1550.757812 717.644531 1550.117188 715.089844 C 1549.476562 712.535156 1548.902344 709.964844 1548.386719 707.382812 C 1547.871094 704.796875 1547.421875 702.203125 1547.035156 699.597656 C 1546.648438 696.992188 1546.328125 694.378906 1546.070312 691.757812 C 1545.8125 689.136719 1545.617188 686.511719 1545.488281 683.878906 C 1545.359375 681.25 1545.292969 678.617188 1545.292969 675.984375 C 1545.292969 673.347656 1545.359375 670.714844 1545.488281 668.085938 C 1545.617188 665.453125 1545.8125 662.828125 1546.070312 660.207031 C 1546.328125 657.585938 1546.648438 654.972656 1547.035156 652.367188 C 1547.421875 649.761719 1547.871094 647.167969 1548.386719 644.582031 C 1548.902344 642 1549.476562 639.429688 1550.117188 636.875 C 1550.757812 634.320312 1551.460938 631.78125 1552.226562 629.261719 C 1552.988281 626.742188 1553.816406 624.242188 1554.703125 621.761719 C 1555.589844 619.28125 1556.539062 616.824219 1557.546875 614.390625 C 1558.554688 611.957031 1559.621094 609.550781 1560.746094 607.167969 C 1561.875 604.789062 1563.058594 602.433594 1564.300781 600.113281 C 1565.539062 597.789062 1566.839844 595.496094 1568.191406 593.238281 C 1569.546875 590.980469 1570.957031 588.753906 1572.417969 586.566406 C 1573.882812 584.375 1575.398438 582.222656 1576.96875 580.105469 C 1578.535156 577.992188 1580.15625 575.914062 1581.828125 573.878906 C 1583.5 571.84375 1585.21875 569.847656 1586.988281 567.894531 C 1588.757812 565.945312 1590.574219 564.039062 1592.433594 562.175781 C 1594.296875 560.3125 1596.203125 558.496094 1598.15625 556.726562 C 1600.109375 554.960938 1602.101562 553.238281 1604.136719 551.566406 C 1606.175781 549.898438 1608.25 548.277344 1610.367188 546.707031 C 1612.480469 545.140625 1614.632812 543.621094 1616.824219 542.160156 C 1619.015625 540.695312 1621.238281 539.285156 1623.5 537.933594 C 1625.757812 536.578125 1628.050781 535.28125 1630.371094 534.039062 C 1632.695312 532.796875 1635.046875 531.613281 1637.429688 530.488281 C 1639.808594 529.359375 1642.214844 528.292969 1644.648438 527.285156 C 1647.082031 526.277344 1649.539062 525.332031 1652.019531 524.441406 C 1654.5 523.554688 1657 522.730469 1659.523438 521.964844 C 1662.042969 521.199219 1664.582031 520.496094 1667.136719 519.859375 C 1669.691406 519.21875 1672.257812 518.640625 1674.84375 518.128906 C 1677.425781 517.613281 1680.019531 517.164062 1682.625 516.777344 C 1685.230469 516.390625 1687.847656 516.066406 1690.46875 515.808594 C 1693.089844 515.550781 1695.714844 515.359375 1698.34375 515.226562 C 1700.976562 515.097656 1703.609375 515.035156 1706.242188 515.035156 C 1708.875 515.035156 1711.507812 515.097656 1714.140625 515.226562 C 1716.769531 515.359375 1719.398438 515.550781 1722.019531 515.808594 C 1724.640625 516.066406 1727.253906 516.390625 1729.859375 516.777344 C 1732.464844 517.164062 1735.058594 517.613281 1737.640625 518.128906 C 1740.226562 518.640625 1742.792969 519.21875 1745.351562 519.859375 C 1747.90625 520.496094 1750.441406 521.199219 1752.964844 521.964844 C 1755.484375 522.730469 1757.984375 523.554688 1760.464844 524.441406 C 1762.945312 525.332031 1765.402344 526.277344 1767.835938 527.285156 C 1770.269531 528.292969 1772.675781 529.359375 1775.058594 530.488281 C 1777.4375 531.613281 1779.789062 532.796875 1782.113281 534.039062 C 1784.4375 535.28125 1786.726562 536.578125 1788.988281 537.933594 C 1791.246094 539.285156 1793.46875 540.695312 1795.660156 542.160156 C 1797.851562 543.621094 1800.003906 545.140625 1802.121094 546.707031 C 1804.234375 548.277344 1806.3125 549.898438 1808.347656 551.566406 C 1810.382812 553.238281 1812.378906 554.960938 1814.328125 556.726562 C 1816.28125 558.496094 1818.1875 560.3125 1820.050781 562.175781 C 1821.914062 564.039062 1823.726562 565.945312 1825.496094 567.894531 C 1827.265625 569.847656 1828.984375 571.84375 1830.65625 573.878906 C 1832.328125 575.914062 1833.949219 577.992188 1835.515625 580.105469 C 1837.085938 582.222656 1838.601562 584.375 1840.066406 586.566406 C 1841.53125 588.753906 1842.9375 590.980469 1844.292969 593.238281 C 1845.648438 595.496094 1846.945312 597.789062 1848.1875 600.113281 C 1849.429688 602.433594 1850.613281 604.789062 1851.738281 607.167969 C 1852.863281 609.550781 1853.929688 611.957031 1854.9375 614.390625 C 1855.949219 616.824219 1856.894531 619.28125 1857.78125 621.761719 C 1858.667969 624.242188 1859.496094 626.742188 1860.261719 629.261719 C 1861.023438 631.78125 1861.726562 634.320312 1862.367188 636.875 C 1863.007812 639.429688 1863.585938 642 1864.097656 644.582031 C 1864.613281 647.167969 1865.0625 649.761719 1865.449219 652.367188 C 1865.835938 654.972656 1866.15625 657.585938 1866.417969 660.207031 C 1866.675781 662.828125 1866.867188 665.453125 1866.996094 668.085938 C 1867.125 670.714844 1867.191406 673.347656 1867.191406 675.984375 Z M 1867.191406 675.984375 " fill-opacity="1" fill-rule="nonzero"/></g><g clip-path="url(#83028ccf93)"><path fill="#ea4458" d="M 1867.191406 1191.015625 C 1867.191406 1193.652344 1867.125 1196.285156 1866.996094 1198.914062 C 1866.867188 1201.546875 1866.675781 1204.171875 1866.417969 1206.792969 C 1866.15625 1209.414062 1865.835938 1212.027344 1865.449219 1214.632812 C 1865.0625 1217.238281 1864.613281 1219.832031 1864.097656 1222.417969 C 1863.585938 1225 1863.007812 1227.570312 1862.367188 1230.125 C 1861.726562 1232.679688 1861.023438 1235.21875 1860.261719 1237.738281 C 1859.496094 1240.257812 1858.667969 1242.757812 1857.78125 1245.238281 C 1856.894531 1247.71875 1855.949219 1250.175781 1854.9375 1252.609375 C 1853.929688 1255.042969 1852.863281 1257.449219 1851.738281 1259.832031 C 1850.613281 1262.210938 1849.429688 1264.566406 1848.1875 1266.886719 C 1846.945312 1269.210938 1845.648438 1271.5 1844.292969 1273.761719 C 1842.9375 1276.019531 1841.53125 1278.246094 1840.066406 1280.433594 C 1838.601562 1282.625 1837.085938 1284.777344 1835.515625 1286.894531 C 1833.949219 1289.007812 1832.328125 1291.085938 1830.65625 1293.121094 C 1828.984375 1295.15625 1827.265625 1297.152344 1825.496094 1299.101562 C 1823.726562 1301.054688 1821.914062 1302.960938 1820.050781 1304.824219 C 1818.1875 1306.6875 1816.28125 1308.503906 1814.328125 1310.273438 C 1812.378906 1312.039062 1810.382812 1313.761719 1808.347656 1315.433594 C 1806.3125 1317.101562 1804.234375 1318.722656 1802.121094 1320.292969 C 1800.003906 1321.859375 1797.851562 1323.378906 1795.660156 1324.839844 C 1793.46875 1326.304688 1791.246094 1327.714844 1788.988281 1329.066406 C 1786.726562 1330.421875 1784.4375 1331.71875 1782.113281 1332.960938 C 1779.789062 1334.203125 1777.4375 1335.386719 1775.058594 1336.511719 C 1772.675781 1337.640625 1770.269531 1338.707031 1767.835938 1339.714844 C 1765.402344 1340.722656 1762.945312 1341.667969 1760.464844 1342.558594 C 1757.984375 1343.445312 1755.484375 1344.269531 1752.964844 1345.035156 C 1750.441406 1345.800781 1747.90625 1346.503906 1745.351562 1347.140625 C 1742.792969 1347.78125 1740.226562 1348.359375 1737.640625 1348.871094 C 1735.058594 1349.386719 1732.464844 1349.835938 1729.859375 1350.222656 C 1727.253906 1350.609375 1724.640625 1350.933594 1722.019531 1351.191406 C 1719.398438 1351.449219 1716.769531 1351.640625 1714.140625 1351.773438 C 1711.507812 1351.902344 1708.875 1351.964844 1706.242188 1351.964844 C 1703.609375 1351.964844 1700.976562 1351.902344 1698.34375 1351.773438 C 1695.714844 1351.640625 1693.089844 1351.449219 1690.46875 1351.191406 C 1687.847656 1350.933594 1685.230469 1350.609375 1682.625 1350.222656 C 1680.019531 1349.835938 1677.425781 1349.386719 1674.84375 1348.871094 C 1672.261719 1348.359375 1669.691406 1347.78125 1667.136719 1347.140625 C 1664.582031 1346.503906 1662.042969 1345.800781 1659.523438 1345.035156 C 1657 1344.269531 1654.5 1343.445312 1652.019531 1342.558594 C 1649.539062 1341.667969 1647.082031 1340.722656 1644.648438 1339.714844 C 1642.214844 1338.707031 1639.808594 1337.640625 1637.429688 1336.511719 C 1635.046875 1335.386719 1632.695312 1334.203125 1630.371094 1332.960938 C 1628.050781 1331.71875 1625.757812 1330.421875 1623.5 1329.066406 C 1621.238281 1327.714844 1619.015625 1326.304688 1616.824219 1324.839844 C 1614.632812 1323.378906 1612.480469 1321.863281 1610.367188 1320.292969 C 1608.25 1318.722656 1606.175781 1317.101562 1604.136719 1315.433594 C 1602.101562 1313.761719 1600.109375 1312.042969 1598.15625 1310.273438 C 1596.203125 1308.503906 1594.296875 1306.6875 1592.433594 1304.824219 C 1590.574219 1302.960938 1588.757812 1301.054688 1586.988281 1299.101562 C 1585.21875 1297.152344 1583.5 1295.15625 1581.828125 1293.121094 C 1580.15625 1291.085938 1578.535156 1289.007812 1576.96875 1286.894531 C 1575.398438 1284.777344 1573.882812 1282.625 1572.417969 1280.433594 C 1570.957031 1278.246094 1569.546875 1276.019531 1568.191406 1273.761719 C 1566.839844 1271.5 1565.539062 1269.210938 1564.300781 1266.886719 C 1563.058594 1264.566406 1561.875 1262.210938 1560.746094 1259.832031 C 1559.621094 1257.449219 1558.554688 1255.042969 1557.546875 1252.609375 C 1556.539062 1250.175781 1555.589844 1247.71875 1554.703125 1245.238281 C 1553.816406 1242.757812 1552.988281 1240.257812 1552.226562 1237.738281 C 1551.460938 1235.21875 1550.757812 1232.679688 1550.117188 1230.125 C 1549.476562 1227.570312 1548.902344 1225 1548.386719 1222.417969 C 1547.871094 1219.832031 1547.421875 1217.238281 1547.035156 1214.632812 C 1546.648438 1212.027344 1546.328125 1209.414062 1546.070312 1206.792969 C 1545.8125 1204.171875 1545.617188 1201.546875 1545.488281 1198.914062 C 1545.359375 1196.285156 1545.292969 1193.652344 1545.292969 1191.015625 C 1545.292969 1188.382812 1545.359375 1185.75 1545.488281 1183.121094 C 1545.617188 1180.488281 1545.8125 1177.863281 1546.070312 1175.242188 C 1546.328125 1172.621094 1546.648438 1170.007812 1547.035156 1167.402344 C 1547.421875 1164.796875 1547.871094 1162.203125 1548.386719 1159.617188 C 1548.902344 1157.035156 1549.476562 1154.464844 1550.117188 1151.910156 C 1550.757812 1149.355469 1551.460938 1146.816406 1552.226562 1144.296875 C 1552.988281 1141.777344 1553.816406 1139.273438 1554.703125 1136.796875 C 1555.589844 1134.316406 1556.539062 1131.859375 1557.546875 1129.425781 C 1558.554688 1126.992188 1559.621094 1124.585938 1560.746094 1122.203125 C 1561.875 1119.820312 1563.058594 1117.46875 1564.300781 1115.148438 C 1565.539062 1112.824219 1566.839844 1110.53125 1568.191406 1108.273438 C 1569.546875 1106.015625 1570.957031 1103.789062 1572.417969 1101.597656 C 1573.882812 1099.410156 1575.398438 1097.257812 1576.96875 1095.140625 C 1578.535156 1093.023438 1580.15625 1090.949219 1581.828125 1088.914062 C 1583.5 1086.875 1585.21875 1084.882812 1586.988281 1082.929688 C 1588.757812 1080.980469 1590.574219 1079.070312 1592.433594 1077.210938 C 1594.296875 1075.347656 1596.203125 1073.53125 1598.15625 1071.761719 C 1600.109375 1069.992188 1602.101562 1068.273438 1604.136719 1066.601562 C 1606.175781 1064.929688 1608.25 1063.3125 1610.367188 1061.742188 C 1612.480469 1060.171875 1614.632812 1058.65625 1616.824219 1057.195312 C 1619.015625 1055.730469 1621.238281 1054.320312 1623.5 1052.96875 C 1625.757812 1051.613281 1628.050781 1050.316406 1630.371094 1049.074219 C 1632.695312 1047.832031 1635.046875 1046.648438 1637.429688 1045.523438 C 1639.808594 1044.394531 1642.214844 1043.328125 1644.648438 1042.320312 C 1647.082031 1041.3125 1649.539062 1040.363281 1652.019531 1039.476562 C 1654.5 1038.589844 1657 1037.765625 1659.523438 1037 C 1662.042969 1036.234375 1664.582031 1035.53125 1667.136719 1034.890625 C 1669.691406 1034.253906 1672.257812 1033.675781 1674.84375 1033.160156 C 1677.425781 1032.648438 1680.019531 1032.199219 1682.625 1031.8125 C 1685.230469 1031.425781 1687.847656 1031.101562 1690.46875 1030.84375 C 1693.089844 1030.585938 1695.714844 1030.390625 1698.34375 1030.261719 C 1700.976562 1030.132812 1703.609375 1030.070312 1706.242188 1030.070312 C 1708.875 1030.070312 1711.507812 1030.132812 1714.140625 1030.261719 C 1716.769531 1030.390625 1719.398438 1030.585938 1722.019531 1030.84375 C 1724.640625 1031.101562 1727.253906 1031.425781 1729.859375 1031.8125 C 1732.464844 1032.199219 1735.058594 1032.648438 1737.640625 1033.160156 C 1740.226562 1033.675781 1742.792969 1034.253906 1745.351562 1034.890625 C 1747.90625 1035.53125 1750.441406 1036.234375 1752.964844 1037 C 1755.484375 1037.765625 1757.984375 1038.589844 1760.464844 1039.476562 C 1762.945312 1040.363281 1765.402344 1041.3125 1767.835938 1042.320312 C 1770.269531 1043.328125 1772.675781 1044.394531 1775.058594 1045.523438 C 1777.4375 1046.648438 1779.789062 1047.832031 1782.113281 1049.074219 C 1784.4375 1050.316406 1786.726562 1051.613281 1788.988281 1052.96875 C 1791.246094 1054.320312 1793.46875 1055.730469 1795.660156 1057.195312 C 1797.851562 1058.65625 1800.003906 1060.171875 1802.121094 1061.742188 C 1804.234375 1063.3125 1806.3125 1064.929688 1808.347656 1066.601562 C 1810.382812 1068.273438 1812.378906 1069.992188 1814.328125 1071.761719 C 1816.28125 1073.53125 1818.1875 1075.347656 1820.050781 1077.210938 C 1821.914062 1079.070312 1823.726562 1080.980469 1825.496094 1082.929688 C 1827.265625 1084.882812 1828.984375 1086.875 1830.65625 1088.914062 C 1832.328125 1090.949219 1833.949219 1093.023438 1835.515625 1095.140625 C 1837.085938 1097.257812 1838.601562 1099.410156 1840.066406 1101.597656 C 1841.53125 1103.789062 1842.9375 1106.015625 1844.292969 1108.273438 C 1845.648438 1110.53125 1846.945312 1112.824219 1848.1875 1115.148438 C 1849.429688 1117.46875 1850.613281 1119.820312 1851.738281 1122.203125 C 1852.863281 1124.585938 1853.929688 1126.992188 1854.9375 1129.425781 C 1855.949219 1131.859375 1856.894531 1134.316406 1857.78125 1136.796875 C 1858.667969 1139.273438 1859.496094 1141.777344 1860.261719 1144.296875 C 1861.023438 1146.816406 1861.726562 1149.355469 1862.367188 1151.910156 C 1863.007812 1154.464844 1863.585938 1157.035156 1864.097656 1159.617188 C 1864.613281 1162.203125 1865.0625 1164.796875 1865.449219 1167.402344 C 1865.835938 1170.007812 1866.15625 1172.621094 1866.417969 1175.242188 C 1866.675781 1177.863281 1866.867188 1180.488281 1866.996094 1183.121094 C 1867.125 1185.75 1867.191406 1188.382812 1867.191406 1191.015625 Z M 1867.191406 1191.015625 " fill-opacity="1" fill-rule="nonzero"/></g><path fill="#f7ca3c" d="M 1094.640625 1706.050781 C 1094.640625 1708.6875 1094.574219 1711.316406 1094.445312 1713.949219 C 1094.316406 1716.578125 1094.121094 1719.207031 1093.863281 1721.828125 C 1093.605469 1724.449219 1093.285156 1727.0625 1092.898438 1729.667969 C 1092.511719 1732.273438 1092.058594 1734.867188 1091.546875 1737.449219 C 1091.03125 1740.035156 1090.457031 1742.605469 1089.816406 1745.160156 C 1089.175781 1747.714844 1088.472656 1750.253906 1087.707031 1752.773438 C 1086.945312 1755.292969 1086.117188 1757.792969 1085.230469 1760.273438 C 1084.34375 1762.753906 1083.394531 1765.210938 1082.386719 1767.644531 C 1081.378906 1770.078125 1080.3125 1772.484375 1079.1875 1774.867188 C 1078.058594 1777.246094 1076.875 1779.597656 1075.632812 1781.921875 C 1074.394531 1784.246094 1073.09375 1786.535156 1071.742188 1788.796875 C 1070.386719 1791.054688 1068.976562 1793.28125 1067.515625 1795.46875 C 1066.050781 1797.660156 1064.535156 1799.8125 1062.964844 1801.929688 C 1061.398438 1804.042969 1059.777344 1806.121094 1058.105469 1808.15625 C 1056.433594 1810.191406 1054.714844 1812.1875 1052.945312 1814.136719 C 1051.175781 1816.089844 1049.359375 1817.996094 1047.5 1819.859375 C 1045.636719 1821.722656 1043.730469 1823.539062 1041.777344 1825.304688 C 1039.824219 1827.074219 1037.832031 1828.796875 1035.796875 1830.464844 C 1033.757812 1832.136719 1031.683594 1833.757812 1029.566406 1835.328125 C 1027.453125 1836.894531 1025.300781 1838.410156 1023.109375 1839.875 C 1020.917969 1841.339844 1018.695312 1842.746094 1016.433594 1844.101562 C 1014.175781 1845.457031 1011.882812 1846.753906 1009.5625 1847.996094 C 1007.238281 1849.238281 1004.886719 1850.421875 1002.503906 1851.546875 C 1000.125 1852.671875 997.714844 1853.742188 995.28125 1854.75 C 992.847656 1855.757812 990.394531 1856.703125 987.914062 1857.589844 C 985.433594 1858.480469 982.933594 1859.304688 980.410156 1860.070312 C 977.890625 1860.835938 975.351562 1861.535156 972.796875 1862.175781 C 970.242188 1862.816406 967.671875 1863.394531 965.089844 1863.90625 C 962.507812 1864.421875 959.914062 1864.871094 957.308594 1865.257812 C 954.703125 1865.644531 952.089844 1865.96875 949.464844 1866.226562 C 946.84375 1866.484375 944.21875 1866.675781 941.589844 1866.804688 C 938.957031 1866.933594 936.324219 1867 933.691406 1867 C 931.058594 1867 928.425781 1866.933594 925.792969 1866.804688 C 923.164062 1866.675781 920.535156 1866.484375 917.914062 1866.226562 C 915.292969 1865.96875 912.679688 1865.644531 910.074219 1865.257812 C 907.46875 1864.871094 904.875 1864.421875 902.292969 1863.90625 C 899.707031 1863.394531 897.140625 1862.816406 894.582031 1862.175781 C 892.027344 1861.535156 889.492188 1860.835938 886.96875 1860.070312 C 884.449219 1859.304688 881.949219 1858.480469 879.46875 1857.589844 C 876.988281 1856.703125 874.53125 1855.757812 872.097656 1854.75 C 869.664062 1853.742188 867.257812 1852.671875 864.875 1851.546875 C 862.496094 1850.421875 860.144531 1849.238281 857.820312 1847.996094 C 855.496094 1846.753906 853.207031 1845.457031 850.945312 1844.101562 C 848.6875 1842.746094 846.464844 1841.339844 844.273438 1839.875 C 842.082031 1838.410156 839.929688 1836.894531 837.8125 1835.328125 C 835.699219 1833.757812 833.621094 1832.136719 831.585938 1830.464844 C 829.550781 1828.796875 827.554688 1827.074219 825.605469 1825.304688 C 823.652344 1823.539062 821.746094 1821.722656 819.882812 1819.859375 C 818.019531 1817.996094 816.207031 1816.089844 814.4375 1814.136719 C 812.667969 1812.1875 810.949219 1810.191406 809.277344 1808.15625 C 807.605469 1806.121094 805.984375 1804.042969 804.414062 1801.929688 C 802.847656 1799.8125 801.332031 1797.660156 799.867188 1795.46875 C 798.402344 1793.28125 796.996094 1791.054688 795.640625 1788.796875 C 794.285156 1786.535156 792.988281 1784.246094 791.746094 1781.921875 C 790.503906 1779.597656 789.320312 1777.246094 788.195312 1774.867188 C 787.070312 1772.484375 786.003906 1770.078125 784.992188 1767.644531 C 783.984375 1765.210938 783.039062 1762.753906 782.152344 1760.273438 C 781.261719 1757.792969 780.4375 1755.292969 779.671875 1752.773438 C 778.910156 1750.253906 778.207031 1747.714844 777.566406 1745.160156 C 776.925781 1742.605469 776.347656 1740.035156 775.835938 1737.449219 C 775.320312 1734.867188 774.871094 1732.273438 774.484375 1729.667969 C 774.097656 1727.0625 773.777344 1724.449219 773.519531 1721.828125 C 773.257812 1719.207031 773.066406 1716.578125 772.9375 1713.949219 C 772.808594 1711.316406 772.742188 1708.6875 772.742188 1706.050781 C 772.742188 1703.417969 772.808594 1700.785156 772.9375 1698.15625 C 773.066406 1695.523438 773.257812 1692.898438 773.519531 1690.277344 C 773.777344 1687.65625 774.097656 1685.042969 774.484375 1682.4375 C 774.871094 1679.832031 775.320312 1677.234375 775.835938 1674.652344 C 776.347656 1672.070312 776.925781 1669.5 777.566406 1666.945312 C 778.207031 1664.390625 778.910156 1661.851562 779.671875 1659.332031 C 780.4375 1656.808594 781.261719 1654.308594 782.152344 1651.828125 C 783.039062 1649.351562 783.984375 1646.894531 784.992188 1644.460938 C 786.003906 1642.027344 787.070312 1639.617188 788.195312 1637.238281 C 789.320312 1634.855469 790.503906 1632.503906 791.746094 1630.179688 C 792.988281 1627.859375 794.285156 1625.566406 795.640625 1623.308594 C 796.996094 1621.046875 798.402344 1618.824219 799.867188 1616.632812 C 801.332031 1614.445312 802.847656 1612.289062 804.414062 1610.175781 C 805.984375 1608.058594 807.605469 1605.984375 809.277344 1603.945312 C 810.949219 1601.910156 812.667969 1599.917969 814.4375 1597.964844 C 816.203125 1596.011719 818.019531 1594.105469 819.882812 1592.242188 C 821.746094 1590.382812 823.652344 1588.566406 825.605469 1586.796875 C 827.554688 1585.027344 829.550781 1583.308594 831.585938 1581.636719 C 833.621094 1579.964844 835.699219 1578.347656 837.8125 1576.777344 C 839.929688 1575.207031 842.082031 1573.691406 844.273438 1572.226562 C 846.464844 1570.765625 848.6875 1569.355469 850.945312 1568 C 853.207031 1566.648438 855.496094 1565.347656 857.820312 1564.109375 C 860.144531 1562.867188 862.496094 1561.683594 864.875 1560.554688 C 867.257812 1559.429688 869.664062 1558.363281 872.097656 1557.355469 C 874.53125 1556.347656 876.988281 1555.398438 879.46875 1554.511719 C 881.949219 1553.625 884.449219 1552.796875 886.96875 1552.035156 C 889.492188 1551.269531 892.027344 1550.566406 894.582031 1549.925781 C 897.140625 1549.285156 899.707031 1548.710938 902.292969 1548.195312 C 904.875 1547.683594 907.46875 1547.230469 910.074219 1546.84375 C 912.679688 1546.457031 915.292969 1546.136719 917.914062 1545.878906 C 920.535156 1545.621094 923.164062 1545.425781 925.792969 1545.296875 C 928.425781 1545.167969 931.058594 1545.101562 933.691406 1545.101562 C 936.324219 1545.101562 938.957031 1545.167969 941.589844 1545.296875 C 944.21875 1545.425781 946.84375 1545.621094 949.464844 1545.878906 C 952.089844 1546.136719 954.703125 1546.457031 957.308594 1546.84375 C 959.914062 1547.230469 962.507812 1547.683594 965.089844 1548.195312 C 967.671875 1548.710938 970.242188 1549.285156 972.796875 1549.925781 C 975.351562 1550.566406 977.890625 1551.269531 980.410156 1552.035156 C 982.933594 1552.796875 985.433594 1553.625 987.914062 1554.511719 C 990.394531 1555.398438 992.847656 1556.347656 995.28125 1557.355469 C 997.714844 1558.363281 1000.125 1559.429688 1002.503906 1560.554688 C 1004.886719 1561.683594 1007.238281 1562.867188 1009.5625 1564.109375 C 1011.882812 1565.347656 1014.175781 1566.648438 1016.433594 1568 C 1018.695312 1569.355469 1020.917969 1570.765625 1023.109375 1572.226562 C 1025.300781 1573.691406 1027.453125 1575.207031 1029.566406 1576.777344 C 1031.683594 1578.347656 1033.757812 1579.964844 1035.796875 1581.636719 C 1037.832031 1583.308594 1039.824219 1585.027344 1041.777344 1586.796875 C 1043.730469 1588.566406 1045.636719 1590.382812 1047.5 1592.242188 C 1049.359375 1594.105469 1051.175781 1596.011719 1052.945312 1597.964844 C 1054.714844 1599.917969 1056.433594 1601.910156 1058.105469 1603.945312 C 1059.777344 1605.984375 1061.398438 1608.058594 1062.964844 1610.175781 C 1064.535156 1612.289062 1066.050781 1614.445312 1067.515625 1616.632812 C 1068.976562 1618.824219 1070.386719 1621.046875 1071.742188 1623.308594 C 1073.09375 1625.566406 1074.394531 1627.859375 1075.632812 1630.179688 C 1076.875 1632.503906 1078.058594 1634.855469 1079.1875 1637.238281 C 1080.3125 1639.617188 1081.378906 1642.027344 1082.386719 1644.460938 C 1083.394531 1646.894531 1084.34375 1649.347656 1085.230469 1651.828125 C 1086.117188 1654.308594 1086.945312 1656.808594 1087.707031 1659.332031 C 1088.472656 1661.851562 1089.175781 1664.390625 1089.816406 1666.945312 C 1090.457031 1669.5 1091.03125 1672.070312 1091.546875 1674.652344 C 1092.058594 1677.234375 1092.511719 1679.832031 1092.898438 1682.4375 C 1093.285156 1685.042969 1093.605469 1687.65625 1093.863281 1690.277344 C 1094.121094 1692.898438 1094.316406 1695.523438 1094.445312 1698.15625 C 1094.574219 1700.785156 1094.640625 1703.417969 1094.640625 1706.050781 Z M 1094.640625 1706.050781 " fill-opacity="1" fill-rule="nonzero"/></svg>