<svg xmlns="http://www.w3.org/2000/svg" xmlns:xlink="http://www.w3.org/1999/xlink" width="2500" zoomAndPan="magnify" viewBox="0 0 1874.88 1867.499939" height="2490" preserveAspectRatio="xMidYMid meet" version="1.0"><defs><clipPath id="45e4d68e04"><path d="M 1 262.195312 L 1874.570312 262.195312 L 1874.570312 1605 L 1 1605 Z M 1 262.195312 " clip-rule="nonzero"/></clipPath></defs><g clip-path="url(#45e4d68e04)"><path fill="#38b6ff" d="M 1856.214844 769.574219 C 1850.597656 765.828125 1803.769531 729.304688 1702.644531 729.304688 C 1676.417969 729.304688 1650.199219 732.113281 1623.980469 736.796875 C 1604.3125 605.695312 1494.757812 539.210938 1490.070312 536.402344 L 1462.921875 520.480469 L 1446.054688 545.765625 C 1423.582031 579.476562 1405.796875 617.871094 1398.296875 657.199219 C 1379.570312 732.113281 1390.804688 803.285156 1429.203125 864.148438 C 1383.316406 890.375 1308.40625 896.925781 1292.484375 896.925781 L 59.207031 896.925781 C 27.367188 896.925781 1.148438 923.144531 1.148438 955.921875 C 1.148438 1063.605469 18.003906 1171.300781 55.460938 1272.4375 C 97.601562 1383.867188 161.277344 1466.277344 242.746094 1516.839844 C 334.515625 1573.03125 485.28125 1604.867188 656.648438 1604.867188 C 730.628906 1604.867188 807.414062 1598.316406 883.265625 1584.265625 C 988.144531 1565.539062 1089.28125 1529.015625 1181.984375 1475.640625 C 1258.777344 1431.625 1327.132812 1375.445312 1385.1875 1308.019531 C 1483.519531 1198.460938 1541.574219 1073.910156 1583.714844 966.226562 L 1601.507812 966.226562 C 1708.261719 966.226562 1774.75 923.144531 1811.273438 886.621094 C 1835.617188 864.148438 1853.402344 837 1866.511719 805.15625 L 1874.011719 782.683594 Z M 174.390625 862.277344 L 339.199219 862.277344 C 346.691406 862.277344 354.183594 855.726562 354.183594 847.292969 L 354.183594 699.339844 C 354.183594 691.847656 347.628906 684.355469 339.199219 684.355469 L 174.390625 684.355469 C 165.960938 684.355469 159.40625 690.914062 159.40625 699.339844 L 159.40625 847.292969 C 160.339844 855.726562 165.960938 862.277344 174.390625 862.277344 Z M 401.941406 862.277344 L 566.75 862.277344 C 574.242188 862.277344 581.734375 855.726562 581.734375 847.292969 L 581.734375 699.339844 C 581.734375 691.847656 575.179688 684.355469 566.75 684.355469 L 401.941406 684.355469 C 393.511719 684.355469 386.957031 690.914062 386.957031 699.339844 L 386.957031 847.292969 C 387.894531 855.726562 393.511719 862.277344 401.941406 862.277344 Z M 633.238281 862.277344 L 797.113281 862.277344 C 806.476562 862.277344 813.03125 855.726562 813.03125 847.292969 L 813.03125 699.339844 C 813.03125 691.847656 807.414062 684.355469 797.113281 684.355469 L 633.238281 684.355469 C 625.746094 684.355469 619.191406 690.914062 619.191406 699.339844 L 619.191406 847.292969 C 619.191406 855.726562 624.808594 862.277344 633.238281 862.277344 Z M 861.722656 862.277344 L 1027.472656 862.277344 C 1034.964844 862.277344 1041.523438 855.726562 1041.523438 847.292969 L 1041.523438 699.339844 C 1041.523438 691.847656 1035.90625 684.355469 1027.472656 684.355469 L 861.722656 684.355469 C 854.234375 684.355469 847.683594 690.914062 847.683594 699.339844 L 847.683594 847.292969 C 847.683594 855.726562 854.234375 862.277344 861.722656 862.277344 Z M 401.941406 652.519531 L 566.75 652.519531 C 574.242188 652.519531 581.734375 644.089844 581.734375 635.664062 L 581.734375 488.644531 C 581.734375 480.214844 575.179688 473.660156 566.75 473.660156 L 401.941406 473.660156 C 393.511719 473.660156 386.957031 479.28125 386.957031 488.644531 L 386.957031 635.664062 C 387.894531 644.089844 393.511719 652.519531 401.941406 652.519531 Z M 633.238281 652.519531 L 797.113281 652.519531 C 806.476562 652.519531 813.03125 644.089844 813.03125 635.664062 L 813.03125 488.644531 C 813.03125 480.214844 807.414062 473.660156 797.113281 473.660156 L 633.238281 473.660156 C 625.746094 473.660156 619.191406 479.28125 619.191406 488.644531 L 619.191406 635.664062 C 619.191406 644.089844 624.808594 652.519531 633.238281 652.519531 Z M 861.722656 652.519531 L 1027.472656 652.519531 C 1034.964844 652.519531 1041.523438 644.089844 1041.523438 635.664062 L 1041.523438 488.644531 C 1041.523438 480.214844 1034.964844 473.660156 1027.472656 473.660156 L 861.722656 473.660156 C 854.234375 473.660156 847.683594 479.28125 847.683594 488.644531 L 847.683594 635.664062 C 847.683594 644.089844 854.234375 652.519531 861.722656 652.519531 Z M 861.722656 439.011719 L 1027.472656 439.011719 C 1034.964844 439.011719 1041.523438 432.457031 1041.523438 424.03125 L 1041.523438 277.945312 C 1041.523438 268.582031 1034.964844 262.027344 1027.472656 262.027344 L 861.722656 262.027344 C 854.234375 262.027344 847.683594 267.644531 847.683594 277.945312 L 847.683594 424.03125 C 847.683594 431.523438 854.234375 439.011719 861.722656 439.011719 Z M 1092.085938 862.277344 L 1256.902344 862.277344 C 1265.324219 862.277344 1271.882812 855.726562 1271.882812 847.292969 L 1271.882812 699.339844 C 1271.882812 691.847656 1265.324219 684.355469 1256.902344 684.355469 L 1092.085938 684.355469 C 1084.59375 684.355469 1078.046875 690.914062 1078.046875 699.339844 L 1078.046875 847.292969 C 1078.046875 855.726562 1084.59375 862.277344 1092.085938 862.277344 Z M 1092.085938 862.277344 " fill-opacity="1" fill-rule="nonzero"/></g></svg>