<svg xmlns="http://www.w3.org/2000/svg" xmlns:xlink="http://www.w3.org/1999/xlink" width="2500" zoomAndPan="magnify" viewBox="0 0 1874.88 1867.499939" height="2490" preserveAspectRatio="xMidYMid meet" version="1.0"><defs><clipPath id="d63fd81404"><path d="M 0.191406 6 L 1874.570312 6 L 1874.570312 1867 L 0.191406 1867 Z M 0.191406 6 " clip-rule="nonzero"/></clipPath><clipPath id="68b773a1bf"><path d="M 207 214 L 1874.570312 214 L 1874.570312 1867 L 207 1867 Z M 207 214 " clip-rule="nonzero"/></clipPath><clipPath id="6f45585d39"><path d="M 1034 1114 L 1763 1114 L 1763 1867 L 1034 1867 Z M 1034 1114 " clip-rule="nonzero"/></clipPath><clipPath id="8a8c7615bd"><path d="M 1064 1455 L 1763 1455 L 1763 1867 L 1064 1867 Z M 1064 1455 " clip-rule="nonzero"/></clipPath><clipPath id="0ad8f6209e"><path d="M 112 1114 L 841 1114 L 841 1867 L 112 1867 Z M 112 1114 " clip-rule="nonzero"/></clipPath><clipPath id="5eb002d256"><path d="M 112 1455 L 810 1455 L 810 1867 L 112 1867 Z M 112 1455 " clip-rule="nonzero"/></clipPath></defs><g clip-path="url(#d63fd81404)"><path fill="#ffd93b" d="M 1874.6875 943.714844 C 1874.6875 959.054688 1874.3125 974.382812 1873.558594 989.703125 C 1872.808594 1005.023438 1871.679688 1020.316406 1870.175781 1035.582031 C 1868.671875 1050.847656 1866.796875 1066.066406 1864.542969 1081.238281 C 1862.292969 1096.414062 1859.671875 1111.519531 1856.679688 1126.566406 C 1853.6875 1141.609375 1850.328125 1156.570312 1846.601562 1171.449219 C 1842.875 1186.328125 1838.785156 1201.109375 1834.332031 1215.789062 C 1829.878906 1230.464844 1825.070312 1245.027344 1819.902344 1259.46875 C 1814.734375 1273.910156 1809.214844 1288.21875 1803.34375 1302.390625 C 1797.476562 1316.558594 1791.261719 1330.578125 1784.703125 1344.445312 C 1778.144531 1358.3125 1771.25 1372.007812 1764.019531 1385.535156 C 1756.789062 1399.0625 1749.230469 1412.40625 1741.34375 1425.5625 C 1733.460938 1438.71875 1725.253906 1451.675781 1716.734375 1464.429688 C 1708.210938 1477.183594 1699.382812 1489.71875 1690.246094 1502.039062 C 1681.109375 1514.359375 1671.675781 1526.449219 1661.941406 1538.304688 C 1652.210938 1550.164062 1642.195312 1561.773438 1631.894531 1573.140625 C 1621.59375 1584.503906 1611.019531 1595.613281 1600.175781 1606.457031 C 1589.328125 1617.304688 1578.222656 1627.878906 1566.859375 1638.179688 C 1555.492188 1648.480469 1543.882812 1658.496094 1532.023438 1668.226562 C 1520.167969 1677.957031 1508.078125 1687.390625 1495.757812 1696.527344 C 1483.4375 1705.667969 1470.902344 1714.496094 1458.148438 1723.019531 C 1445.394531 1731.539062 1432.4375 1739.742188 1419.28125 1747.628906 C 1406.125 1755.515625 1392.785156 1763.074219 1379.257812 1770.304688 C 1365.726562 1777.535156 1352.03125 1784.429688 1338.164062 1790.988281 C 1324.300781 1797.546875 1310.28125 1803.761719 1296.109375 1809.628906 C 1281.9375 1815.5 1267.632812 1821.019531 1253.191406 1826.1875 C 1238.746094 1831.355469 1224.1875 1836.164062 1209.507812 1840.617188 C 1194.832031 1845.070312 1180.050781 1849.160156 1165.171875 1852.886719 C 1150.292969 1856.613281 1135.332031 1859.972656 1120.289062 1862.964844 C 1105.242188 1865.957031 1090.136719 1868.578125 1074.964844 1870.832031 C 1059.789062 1873.082031 1044.570312 1874.957031 1029.304688 1876.460938 C 1014.042969 1877.964844 998.75 1879.09375 983.429688 1879.847656 C 968.109375 1880.597656 952.777344 1880.976562 937.441406 1880.976562 C 922.101562 1880.976562 906.773438 1880.597656 891.453125 1879.847656 C 876.132812 1879.09375 860.839844 1877.964844 845.574219 1876.460938 C 830.308594 1874.957031 815.089844 1873.082031 799.917969 1870.832031 C 784.746094 1868.578125 769.636719 1865.957031 754.589844 1862.964844 C 739.546875 1859.972656 724.585938 1856.613281 709.707031 1852.886719 C 694.828125 1849.160156 680.050781 1845.070312 665.371094 1840.617188 C 650.691406 1836.164062 636.132812 1831.355469 621.691406 1826.1875 C 607.25 1821.019531 592.941406 1815.5 578.769531 1809.628906 C 564.597656 1803.761719 550.582031 1797.546875 536.714844 1790.988281 C 522.847656 1784.429688 509.152344 1777.535156 495.625 1770.304688 C 482.097656 1763.074219 468.753906 1755.515625 455.597656 1747.628906 C 442.441406 1739.742188 429.484375 1731.539062 416.730469 1723.019531 C 403.980469 1714.496094 391.441406 1705.667969 379.121094 1696.527344 C 366.800781 1687.390625 354.710938 1677.957031 342.855469 1668.226562 C 331 1658.496094 319.386719 1648.480469 308.023438 1638.179688 C 296.65625 1627.878906 285.550781 1617.304688 274.703125 1606.457031 C 263.859375 1595.613281 253.285156 1584.503906 242.984375 1573.140625 C 232.683594 1561.773438 222.667969 1550.164062 212.9375 1538.304688 C 203.207031 1526.449219 193.773438 1514.359375 184.632812 1502.039062 C 175.496094 1489.71875 166.667969 1477.183594 158.144531 1464.429688 C 149.625 1451.675781 141.421875 1438.71875 133.535156 1425.5625 C 125.648438 1412.40625 118.089844 1399.0625 110.859375 1385.535156 C 103.628906 1372.007812 96.734375 1358.3125 90.175781 1344.445312 C 83.617188 1330.578125 77.40625 1316.558594 71.535156 1302.390625 C 65.664062 1288.21875 60.144531 1273.910156 54.980469 1259.46875 C 49.8125 1245.027344 45 1230.464844 40.546875 1215.789062 C 36.097656 1201.109375 32.007812 1186.328125 28.277344 1171.449219 C 24.550781 1156.570312 21.191406 1141.609375 18.199219 1126.566406 C 15.207031 1111.519531 12.585938 1096.414062 10.335938 1081.238281 C 8.085938 1066.066406 6.207031 1050.847656 4.703125 1035.582031 C 3.199219 1020.316406 2.074219 1005.023438 1.320312 989.703125 C 0.566406 974.382812 0.191406 959.054688 0.191406 943.714844 C 0.191406 928.375 0.566406 913.046875 1.320312 897.726562 C 2.074219 882.40625 3.199219 867.113281 4.703125 851.847656 C 6.207031 836.582031 8.085938 821.363281 10.335938 806.191406 C 12.585938 791.015625 15.207031 775.910156 18.199219 760.863281 C 21.191406 745.820312 24.550781 730.859375 28.277344 715.980469 C 32.007812 701.101562 36.097656 686.320312 40.546875 671.644531 C 45 656.964844 49.8125 642.402344 54.980469 627.960938 C 60.144531 613.519531 65.664062 599.210938 71.535156 585.042969 C 77.40625 570.871094 83.617188 556.851562 90.175781 542.984375 C 96.734375 529.117188 103.628906 515.421875 110.859375 501.894531 C 118.089844 488.367188 125.648438 475.023438 133.535156 461.867188 C 141.421875 448.710938 149.625 435.753906 158.144531 423 C 166.667969 410.246094 175.496094 397.710938 184.632812 385.390625 C 193.773438 373.070312 203.207031 360.980469 212.9375 349.125 C 222.667969 337.265625 232.683594 325.65625 242.984375 314.289062 C 253.285156 302.925781 263.859375 291.820312 274.703125 280.972656 C 285.550781 270.125 296.65625 259.550781 308.023438 249.25 C 319.386719 238.949219 331 228.933594 342.855469 219.203125 C 354.710938 209.472656 366.800781 200.039062 379.121094 190.902344 C 391.441406 181.761719 403.980469 172.933594 416.730469 164.414062 C 429.484375 155.890625 442.441406 147.6875 455.597656 139.800781 C 468.753906 131.914062 482.097656 124.355469 495.625 117.125 C 509.152344 109.894531 522.847656 103 536.714844 96.441406 C 550.582031 89.882812 564.597656 83.671875 578.769531 77.800781 C 592.941406 71.929688 607.25 66.410156 621.691406 61.242188 C 636.132812 56.078125 650.691406 51.265625 665.371094 46.8125 C 680.050781 42.359375 694.828125 38.269531 709.707031 34.542969 C 724.585938 30.816406 739.546875 27.457031 754.589844 24.464844 C 769.636719 21.472656 784.746094 18.851562 799.917969 16.601562 C 815.089844 14.347656 830.308594 12.472656 845.574219 10.96875 C 860.839844 9.464844 876.132812 8.335938 891.453125 7.585938 C 906.773438 6.832031 922.101562 6.457031 937.441406 6.457031 C 952.777344 6.457031 968.109375 6.832031 983.429688 7.585938 C 998.75 8.335938 1014.042969 9.464844 1029.304688 10.96875 C 1044.570312 12.472656 1059.789062 14.347656 1074.964844 16.601562 C 1090.136719 18.851562 1105.242188 21.472656 1120.289062 24.464844 C 1135.332031 27.457031 1150.292969 30.816406 1165.171875 34.542969 C 1180.050781 38.269531 1194.832031 42.359375 1209.507812 46.8125 C 1224.1875 51.265625 1238.746094 56.078125 1253.191406 61.242188 C 1267.632812 66.410156 1281.9375 71.929688 1296.109375 77.800781 C 1310.28125 83.671875 1324.300781 89.882812 1338.164062 96.441406 C 1352.03125 103 1365.726562 109.894531 1379.257812 117.125 C 1392.785156 124.355469 1406.125 131.914062 1419.28125 139.800781 C 1432.4375 147.6875 1445.394531 155.890625 1458.148438 164.414062 C 1470.902344 172.933594 1483.4375 181.761719 1495.757812 190.902344 C 1508.078125 200.039062 1520.167969 209.472656 1532.023438 219.203125 C 1543.882812 228.933594 1555.492188 238.949219 1566.859375 249.25 C 1578.222656 259.550781 1589.328125 270.125 1600.175781 280.972656 C 1611.019531 291.820312 1621.59375 302.925781 1631.894531 314.289062 C 1642.195312 325.65625 1652.210938 337.265625 1661.941406 349.125 C 1671.675781 360.980469 1681.109375 373.070312 1690.246094 385.390625 C 1699.382812 397.710938 1708.210938 410.246094 1716.734375 423 C 1725.253906 435.753906 1733.460938 448.710938 1741.34375 461.867188 C 1749.230469 475.023438 1756.789062 488.367188 1764.019531 501.894531 C 1771.25 515.421875 1778.144531 529.117188 1784.703125 542.984375 C 1791.261719 556.851562 1797.476562 570.871094 1803.34375 585.042969 C 1809.214844 599.210938 1814.734375 613.519531 1819.902344 627.960938 C 1825.070312 642.402344 1829.878906 656.964844 1834.332031 671.644531 C 1838.785156 686.320312 1842.875 701.101562 1846.601562 715.980469 C 1850.328125 730.859375 1853.6875 745.820312 1856.679688 760.863281 C 1859.671875 775.910156 1862.292969 791.015625 1864.542969 806.191406 C 1866.796875 821.363281 1868.671875 836.582031 1870.175781 851.847656 C 1871.679688 867.113281 1872.808594 882.40625 1873.558594 897.726562 C 1874.3125 913.046875 1874.6875 928.375 1874.6875 943.714844 Z M 1874.6875 943.714844 " fill-opacity="1" fill-rule="nonzero"/></g><g clip-path="url(#68b773a1bf)"><path fill="#f4c534" d="M 1874.6875 943.714844 C 1874.6875 1461.550781 1454.976562 1880.976562 937.441406 1880.976562 C 642.792969 1880.976562 379.777344 1745.070312 207.851562 1532.136719 C 368.648438 1662.183594 573.378906 1739.800781 796.265625 1739.800781 C 1313.804688 1739.800781 1733.515625 1320.375 1733.515625 802.539062 C 1733.515625 579.648438 1655.898438 374.914062 1525.855469 214.117188 C 1738.496094 386.046875 1874.6875 649.0625 1874.6875 943.714844 Z M 1874.6875 943.714844 " fill-opacity="1" fill-rule="nonzero"/></g><g clip-path="url(#6f45585d39)"><path fill="#ffffff" d="M 1196.179688 1437.828125 C 1196.179688 1437.828125 1231.675781 1246.15625 1145.507812 1242.523438 C 1100.167969 1240.59375 1068.304688 1349.371094 1040.832031 1499.804688 C 1009.433594 1671.847656 1095.953125 1769.089844 1171.34375 1824.210938 C 1281.820312 1904.992188 1398.332031 1890.40625 1509.335938 1837.449219 C 1646.996094 1771.785156 1760.988281 1518.195312 1762.746094 1455.925781 C 1765.382812 1359.566406 1687.414062 1357.691406 1581.855469 1584.449219 C 1581.855469 1584.449219 1567.972656 1627.210938 1581.855469 1584.449219 C 1595.742188 1541.6875 1703.230469 1349.3125 1725.375 1304.265625 C 1748.511719 1257.109375 1683.316406 1194.902344 1638.210938 1254.300781 C 1593.105469 1313.699219 1461.714844 1499.804688 1451.929688 1545.378906 C 1451.929688 1545.378906 1443.144531 1580.699219 1451.929688 1545.378906 C 1460.71875 1510.113281 1642.484375 1219.328125 1650.863281 1169.945312 C 1660.820312 1110.957031 1577.992188 1096.078125 1550.050781 1138.019531 C 1529.664062 1168.597656 1337.058594 1488.027344 1337.058594 1488.027344 C 1337.058594 1488.027344 1495.394531 1224.425781 1487.488281 1173.109375 C 1480.925781 1130.582031 1426.566406 1122.613281 1400.617188 1149.5625 C 1371.796875 1179.378906 1196.179688 1437.828125 1196.179688 1437.828125 Z M 1196.179688 1437.828125 " fill-opacity="1" fill-rule="nonzero"/></g><g clip-path="url(#8a8c7615bd)"><path fill="#dee4e9" d="M 1064.847656 1703.421875 C 1091.96875 1757.316406 1133.03125 1796.210938 1171.285156 1824.210938 C 1281.761719 1904.992188 1398.273438 1890.40625 1509.277344 1837.449219 C 1646.9375 1771.785156 1760.988281 1518.195312 1762.6875 1455.867188 C 1762.6875 1455.867188 1524.097656 2046.460938 1064.847656 1703.421875 Z M 1064.847656 1703.421875 " fill-opacity="1" fill-rule="nonzero"/></g><g clip-path="url(#0ad8f6209e)"><path fill="#ffffff" d="M 678.699219 1437.828125 C 678.699219 1437.828125 643.203125 1246.15625 729.371094 1242.523438 C 774.710938 1240.59375 806.578125 1349.371094 834.050781 1499.804688 C 865.449219 1671.847656 778.925781 1769.089844 703.539062 1824.210938 C 593.058594 1904.992188 476.546875 1890.40625 365.542969 1837.449219 C 227.882812 1771.785156 113.890625 1518.195312 112.132812 1455.925781 C 109.496094 1359.566406 187.464844 1357.691406 293.023438 1584.449219 C 293.023438 1584.449219 306.90625 1627.210938 293.023438 1584.449219 C 279.140625 1541.6875 171.648438 1349.3125 149.507812 1304.265625 C 126.308594 1257.109375 191.507812 1194.902344 236.671875 1254.300781 C 281.835938 1313.699219 413.167969 1499.804688 422.949219 1545.378906 C 422.949219 1545.378906 431.734375 1580.699219 422.949219 1545.378906 C 414.164062 1510.113281 232.394531 1219.328125 224.019531 1169.945312 C 214.058594 1110.957031 296.890625 1096.078125 324.832031 1138.019531 C 345.214844 1168.597656 537.820312 1488.027344 537.820312 1488.027344 C 537.820312 1488.027344 379.484375 1224.425781 387.390625 1173.109375 C 393.953125 1130.582031 448.3125 1122.613281 474.261719 1149.5625 C 503.082031 1179.378906 678.699219 1437.828125 678.699219 1437.828125 Z M 678.699219 1437.828125 " fill-opacity="1" fill-rule="nonzero"/></g><g clip-path="url(#5eb002d256)"><path fill="#dee4e9" d="M 809.972656 1703.421875 C 782.851562 1757.316406 741.789062 1796.210938 703.539062 1824.210938 C 593.058594 1904.992188 476.546875 1890.40625 365.542969 1837.449219 C 227.882812 1771.785156 113.890625 1518.195312 112.132812 1455.867188 C 112.191406 1455.867188 350.78125 2046.460938 809.972656 1703.421875 Z M 809.972656 1703.421875 " fill-opacity="1" fill-rule="nonzero"/></g><path fill="#3e4347" d="M 1286.742188 832.648438 C 1328.800781 842.082031 1251.359375 1149.386719 937.441406 1149.621094 C 623.460938 1149.386719 546.019531 842.082031 588.140625 832.648438 C 618.890625 816.1875 737.335938 963.867188 937.441406 963.867188 C 1141.351562 963.867188 1255.988281 816.1875 1286.742188 832.648438 Z M 1286.742188 832.648438 " fill-opacity="1" fill-rule="nonzero"/><path fill="#3e4347" d="M 784.667969 688.429688 C 762.234375 688.429688 743.078125 671.324219 740.96875 648.535156 C 734.234375 575.371094 678.464844 520.191406 611.277344 520.191406 C 544.089844 520.191406 488.320312 575.371094 481.585938 648.535156 C 479.359375 672.671875 457.804688 690.65625 433.84375 688.253906 C 409.652344 686.027344 391.902344 664.644531 394.128906 640.511719 C 405.082031 521.832031 498.398438 432.324219 611.335938 432.324219 C 724.214844 432.324219 817.589844 521.832031 828.484375 640.511719 C 830.710938 664.644531 812.902344 686.085938 788.769531 688.253906 C 787.363281 688.371094 786.015625 688.429688 784.667969 688.429688 Z M 784.667969 688.429688 " fill-opacity="1" fill-rule="nonzero"/><path fill="#3e4347" d="M 1436.992188 688.429688 C 1414.558594 688.429688 1395.402344 671.324219 1393.292969 648.535156 C 1386.558594 575.371094 1330.792969 520.191406 1263.601562 520.191406 C 1196.414062 520.191406 1140.648438 575.371094 1133.910156 648.535156 C 1131.742188 672.671875 1110.363281 690.65625 1086.167969 688.253906 C 1061.976562 686.027344 1044.226562 664.644531 1046.453125 640.511719 C 1057.347656 521.832031 1150.722656 432.324219 1263.601562 432.324219 C 1376.484375 432.324219 1469.855469 521.832031 1480.75 640.511719 C 1482.976562 664.644531 1465.167969 686.085938 1441.035156 688.253906 C 1439.6875 688.371094 1438.339844 688.429688 1436.992188 688.429688 Z M 1436.992188 688.429688 " fill-opacity="1" fill-rule="nonzero"/></svg>