<svg xmlns="http://www.w3.org/2000/svg" xmlns:xlink="http://www.w3.org/1999/xlink" width="2500" zoomAndPan="magnify" viewBox="0 0 1874.88 1867.499939" height="2490" preserveAspectRatio="xMidYMid meet" version="1.0"><defs><clipPath id="9bd1d64757"><path d="M 0.191406 25 L 1854 25 L 1854 1867 L 0.191406 1867 Z M 0.191406 25 " clip-rule="nonzero"/></clipPath><clipPath id="c8dbc7ae59"><path d="M 165 0 L 1874.570312 0 L 1874.570312 1716 L 165 1716 Z M 165 0 " clip-rule="nonzero"/></clipPath></defs><g clip-path="url(#9bd1d64757)"><path fill="#eb2c3b" d="M 63.335938 1199.378906 L 122.699219 1199.378906 L 122.699219 1260.125 L 63.058594 1260.125 L 63.058594 1384.113281 L 122.371094 1384.113281 L 122.371094 1445.480469 L 63.378906 1445.480469 L 63.378906 1569.46875 L 122.664062 1569.46875 L 122.664062 1630.902344 L 63.023438 1630.902344 L 63.023438 1816.214844 L 246.695312 1816.214844 L 246.695312 1756.582031 L 308.125 1756.582031 L 308.125 1815.886719 L 432.136719 1815.886719 L 432.136719 1756.96875 L 494.296875 1756.96875 L 494.296875 1816.214844 L 617.621094 1816.214844 L 617.621094 1756.640625 L 679.730469 1756.640625 L 679.730469 1815.886719 L 803.070312 1815.886719 L 803.070312 1757.042969 L 865.171875 1757.042969 L 865.171875 1816.214844 L 988.496094 1816.214844 L 988.496094 1756.707031 L 1050.65625 1756.707031 L 1050.65625 1815.855469 L 1174.667969 1815.855469 L 1174.667969 1756.386719 L 1236.097656 1756.386719 L 1236.097656 1816.179688 L 1359.421875 1816.179688 L 1359.421875 1756.738281 L 1421.582031 1756.738281 L 1421.582031 1815.820312 L 1545.585938 1815.820312 L 1545.585938 1756.421875 L 1607.027344 1756.421875 L 1607.027344 1816.148438 L 1730.25 1816.148438 L 1730.25 1756.773438 L 1792.410156 1756.773438 L 1792.410156 1816.46875 L 1853.628906 1816.46875 L 1853.628906 1878.882812 L 1834.109375 1878.882812 C 1236.574219 1878.882812 639.042969 1878.882812 41.511719 1878.882812 C 9.429688 1878.882812 0.234375 1869.71875 0.234375 1837.726562 C 0.234375 1240.257812 0.234375 642.789062 0.234375 45.320312 L 0.234375 25.515625 L 61.25 25.515625 L 61.25 85.453125 L 122.152344 85.453125 L 122.152344 147.554688 L 62.914062 147.554688 L 62.914062 270.867188 L 122.4375 270.867188 L 122.4375 333.019531 L 63.277344 333.019531 L 63.277344 457.019531 L 122.765625 457.019531 L 122.765625 518.441406 L 62.949219 518.441406 L 62.949219 641.753906 L 122.371094 641.753906 L 122.371094 703.90625 L 63.300781 703.90625 L 63.300781 827.898438 L 122.734375 827.898438 L 122.734375 889.328125 L 62.980469 889.328125 L 62.980469 1012.640625 L 122.371094 1012.640625 L 122.371094 1074.792969 L 63.335938 1074.792969 Z M 63.335938 1199.378906 " fill-opacity="1" fill-rule="nonzero"/></g><g clip-path="url(#c8dbc7ae59)"><path fill="#fde92b" d="M 783.960938 1138.957031 C 812.679688 1192.175781 809.632812 1233.027344 775.601562 1265.828125 C 742.539062 1297.660156 701.679688 1299.988281 652.363281 1272.203125 C 648.929688 1275.242188 645.011719 1278.359375 641.492188 1281.878906 C 562.695312 1360.628906 483.851562 1439.335938 404.960938 1518 C 396.664062 1526.222656 394.160156 1532.714844 397.839844 1544.464844 C 408.558594 1578.742188 400.113281 1609.710938 375.15625 1634.984375 C 349.554688 1660.855469 318.035156 1669.3125 283.050781 1658.25 C 271.851562 1654.707031 265.484375 1656.941406 258.21875 1664.878906 C 242.613281 1681.929688 226.296875 1698.324219 209.675781 1715.609375 C 194.921875 1699.265625 181.777344 1684.699219 165.589844 1666.75 C 180.023438 1653.109375 197.285156 1636.160156 215.285156 1620.050781 C 223.113281 1613.046875 224.074219 1606.8125 220.929688 1596.71875 C 210.078125 1561.777344 217.933594 1530.21875 243.710938 1504.425781 C 269.492188 1478.632812 300.960938 1470.703125 335.980469 1481.445312 C 345.851562 1484.476562 351.890625 1483.621094 359.398438 1476.0625 C 442.425781 1392.445312 526.007812 1309.371094 608.882812 1225.613281 C 614.34375 1220.101562 617.972656 1210.28125 618.125 1202.394531 C 618.964844 1145.777344 657.808594 1106.761719 714.121094 1105.9375 C 722.058594 1105.828125 731.878906 1102.417969 737.484375 1097.042969 C 770 1065.847656 801.324219 1033.378906 833.554688 1001.90625 C 841.007812 994.640625 842.375 988.683594 839.21875 978.554688 C 828.296875 943.621094 836.167969 912.058594 861.949219 886.265625 C 887.726562 860.46875 918.941406 853.355469 954.398438 862.613281 C 960.539062 864.214844 970.285156 863.796875 974.292969 860 C 1005.574219 830.375 1035.863281 799.699219 1068.375 767.429688 C 1010.933594 748.039062 979.828125 712.121094 992.429688 651.152344 C 1000.542969 611.894531 1035.183594 583.753906 1072.597656 581.035156 C 1121.195312 577.5 1150.257812 598.890625 1176.023438 658.746094 C 1208.277344 626.566406 1240.082031 595.195312 1271.1875 563.144531 C 1273.882812 560.363281 1273.230469 552.652344 1271.867188 547.882812 C 1261.671875 511.992188 1268.316406 479.957031 1294.699219 453.542969 C 1321.085938 427.125 1353.023438 420.464844 1389.023438 430.324219 C 1394.503906 431.828125 1403.429688 430.890625 1407.09375 427.320312 C 1448.105469 387.355469 1488.390625 346.6875 1532.542969 302.496094 C 1498.378906 304.613281 1470.734375 297.457031 1448.917969 275.226562 C 1427.101562 252.992188 1418.835938 226.0625 1422.878906 195.648438 C 1428.925781 149.882812 1470.113281 116.378906 1518.152344 117.242188 C 1570.671875 118.183594 1600.886719 153.257812 1609.546875 227.121094 C 1631.867188 204.25 1652.582031 183.570312 1672.421875 162.078125 C 1675.21875 159.054688 1675.3125 151.628906 1673.976562 147.011719 C 1663.417969 110.429688 1670.046875 77.824219 1697.269531 51.054688 C 1723.882812 24.875 1755.945312 18.675781 1791.847656 28.738281 C 1797.140625 30.21875 1805.472656 28.328125 1809.613281 24.757812 C 1817.28125 18.171875 1822.894531 9.195312 1830.246094 0.125 C 1846.800781 18.03125 1860.15625 32.460938 1874.328125 47.78125 C 1874.691406 46.605469 1874.699219 48.21875 1873.898438 48.914062 C 1856.261719 64.511719 1848.019531 78.925781 1852.898438 107.136719 C 1864.367188 173.375 1800.078125 224.863281 1735.699219 205.476562 C 1724.335938 202.050781 1718.394531 204.820312 1710.9375 212.3125 C 1625.984375 297.65625 1540.828125 382.804688 1455.472656 467.753906 C 1447.96875 475.21875 1445.039062 481.191406 1448.65625 492.53125 C 1459.78125 527.429688 1451.40625 559.003906 1425.566406 584.671875 C 1399.726562 610.339844 1368.117188 618.269531 1333.164062 607.230469 C 1322.890625 603.988281 1317.101562 605.945312 1309.914062 613.167969 C 1214.054688 709.480469 1117.972656 805.550781 1021.660156 901.382812 C 1014.394531 908.621094 1012.589844 914.425781 1015.78125 924.65625 C 1026.777344 959.589844 1018.8125 991.1875 993.152344 1017 C 967.488281 1042.808594 936.238281 1049.933594 900.75 1040.851562 C 894.265625 1039.171875 883.949219 1040.492188 879.511719 1044.714844 C 847.304688 1075.28125 816.140625 1106.988281 783.960938 1138.957031 Z M 1792.820312 116.503906 C 1792.417969 100.542969 1777.304688 85.996094 1761.472656 86.398438 C 1745.511719 86.804688 1730.988281 101.914062 1731.375 117.753906 C 1731.769531 133.714844 1746.898438 148.269531 1762.722656 147.875 C 1778.699219 147.472656 1793.25 132.300781 1792.847656 116.503906 Z M 1484.113281 209.433594 C 1483.847656 225.308594 1498.394531 240.324219 1514.355469 240.59375 C 1530.179688 240.863281 1545.234375 226.214844 1545.503906 210.28125 C 1545.773438 194.347656 1531.171875 179.390625 1515.203125 179.128906 C 1499.234375 178.867188 1484.382812 193.457031 1484.113281 209.433594 Z M 1390.980469 519.710938 C 1391.453125 503.871094 1377.03125 488.699219 1361.027344 488.214844 C 1345.191406 487.742188 1330.023438 502.171875 1329.542969 518.183594 C 1329.066406 534.007812 1343.503906 549.199219 1359.488281 549.6875 C 1375.273438 550.175781 1390.503906 535.679688 1390.980469 519.710938 Z M 1051.328125 672.023438 C 1050.421875 687.703125 1064.578125 703.292969 1080.578125 704.234375 C 1096.167969 705.148438 1111.84375 690.898438 1112.769531 674.964844 C 1113.675781 659.296875 1099.488281 643.683594 1083.519531 642.761719 C 1067.878906 641.851562 1052.269531 656.054688 1051.328125 672.023438 Z M 926.929688 982.417969 C 942.742188 982.761719 957.859375 968.140625 958.207031 952.230469 C 958.550781 936.324219 944.027344 921.289062 928.039062 920.945312 C 912.179688 920.601562 897.117188 935.140625 896.765625 951.125 C 896.421875 966.972656 910.972656 982.066406 926.929688 982.417969 Z M 741.816406 1199.867188 C 742.386719 1184.070312 728.015625 1168.789062 712.019531 1168.21875 C 696.210938 1167.640625 680.941406 1182.003906 680.378906 1198.027344 C 679.808594 1213.828125 694.171875 1229.105469 710.171875 1229.695312 C 725.921875 1230.273438 741.246094 1215.835938 741.816406 1199.867188 Z M 339.9375 1569.242188 C 339.53125 1553.285156 324.4375 1538.726562 308.59375 1539.125 C 292.632812 1539.527344 278.109375 1554.628906 278.496094 1570.476562 C 278.882812 1586.4375 294.003906 1600.992188 309.828125 1600.597656 C 325.65625 1600.203125 340.355469 1585.050781 339.9375 1569.242188 Z M 339.9375 1569.242188 " fill-opacity="1" fill-rule="nonzero"/></g><path fill="#00a8de" d="M 1298.394531 333.414062 C 1298.394531 385.296875 1257.292969 426.253906 1205.296875 426.132812 C 1153.550781 426.015625 1112.84375 384.699219 1113.085938 332.558594 C 1113.09375 331.054688 1113.132812 329.554688 1113.210938 328.050781 C 1113.289062 326.550781 1113.40625 325.050781 1113.558594 323.558594 C 1113.707031 322.0625 1113.898438 320.570312 1114.121094 319.085938 C 1114.347656 317.597656 1114.609375 316.117188 1114.90625 314.644531 C 1115.203125 313.171875 1115.535156 311.707031 1115.90625 310.25 C 1116.273438 308.792969 1116.679688 307.34375 1117.121094 305.90625 C 1117.558594 304.46875 1118.035156 303.042969 1118.546875 301.628906 C 1119.054688 300.214844 1119.601562 298.816406 1120.179688 297.429688 C 1120.757812 296.042969 1121.371094 294.667969 1122.015625 293.3125 C 1122.664062 291.953125 1123.339844 290.613281 1124.054688 289.289062 C 1124.765625 287.964844 1125.507812 286.660156 1126.285156 285.375 C 1127.0625 284.085938 1127.867188 282.816406 1128.707031 281.570312 C 1129.542969 280.320312 1130.410156 279.09375 1131.308594 277.890625 C 1132.207031 276.683594 1133.136719 275.5 1134.089844 274.34375 C 1135.046875 273.183594 1136.03125 272.046875 1137.042969 270.933594 C 1138.054688 269.824219 1139.09375 268.738281 1140.160156 267.675781 C 1141.222656 266.613281 1142.3125 265.582031 1143.429688 264.574219 C 1144.546875 263.566406 1145.683594 262.585938 1146.847656 261.636719 C 1148.011719 260.683594 1149.199219 259.761719 1150.410156 258.867188 C 1151.617188 257.976562 1152.847656 257.113281 1154.097656 256.277344 C 1155.351562 255.445312 1156.621094 254.644531 1157.910156 253.875 C 1159.203125 253.101562 1160.511719 252.363281 1161.839844 251.65625 C 1163.164062 250.949219 1164.507812 250.277344 1165.867188 249.636719 C 1167.230469 248.996094 1168.601562 248.390625 1169.992188 247.816406 C 1171.382812 247.242188 1172.785156 246.703125 1174.203125 246.199219 C 1175.617188 245.695312 1177.046875 245.226562 1178.484375 244.789062 C 1179.921875 244.355469 1181.371094 243.957031 1182.832031 243.59375 C 1184.289062 243.230469 1185.757812 242.902344 1187.230469 242.609375 C 1188.707031 242.320312 1190.1875 242.0625 1191.675781 241.84375 C 1193.160156 241.625 1194.652344 241.441406 1196.148438 241.296875 C 1197.644531 241.152344 1199.144531 241.042969 1200.644531 240.96875 C 1202.148438 240.898438 1203.648438 240.863281 1205.152344 240.863281 C 1257.234375 240.71875 1298.335938 281.539062 1298.394531 333.414062 Z M 1205.085938 302.742188 C 1189.125 303.160156 1174.609375 318.277344 1175.011719 334.121094 C 1175.425781 350.078125 1190.554688 364.625 1206.371094 364.214844 C 1222.332031 363.804688 1236.863281 348.632812 1236.453125 332.828125 C 1236 316.84375 1220.886719 302.335938 1205.050781 302.757812 Z M 1205.085938 302.742188 " fill-opacity="1" fill-rule="nonzero"/><path fill="#00a8de" d="M 1731.128906 426.5625 C 1731.046875 478.335938 1689.75 519.105469 1637.636719 518.878906 C 1585.992188 518.644531 1545.46875 477.167969 1545.832031 424.898438 C 1546.175781 374.175781 1587.261719 333.625 1638.339844 333.589844 C 1690.3125 333.558594 1731.222656 374.570312 1731.128906 426.5625 Z M 1639.105469 395.484375 C 1623.253906 395.097656 1608.152344 409.597656 1607.757812 425.589844 C 1607.363281 441.421875 1621.867188 456.554688 1637.835938 456.960938 C 1653.636719 457.363281 1668.800781 442.796875 1669.195312 426.847656 C 1669.589844 410.898438 1655.09375 395.886719 1639.105469 395.484375 Z M 1639.105469 395.484375 " fill-opacity="1" fill-rule="nonzero"/><path fill="#00a8de" d="M 711.023438 827.972656 C 659.132812 827.972656 618.308594 786.816406 618.460938 734.742188 C 618.601562 682.984375 659.914062 642.347656 712.148438 642.675781 C 713.652344 642.683594 715.15625 642.726562 716.65625 642.804688 C 718.160156 642.886719 719.65625 643 721.15625 643.15625 C 722.652344 643.308594 724.140625 643.496094 725.628906 643.722656 C 727.117188 643.949219 728.597656 644.214844 730.070312 644.511719 C 731.542969 644.8125 733.011719 645.148438 734.46875 645.519531 C 735.925781 645.890625 737.375 646.296875 738.8125 646.738281 C 740.25 647.179688 741.675781 647.65625 743.089844 648.167969 C 744.503906 648.679688 745.90625 649.226562 747.292969 649.808594 C 748.679688 650.386719 750.050781 651.003906 751.410156 651.648438 C 752.765625 652.296875 754.109375 652.980469 755.429688 653.691406 C 756.753906 654.40625 758.0625 655.152344 759.347656 655.929688 C 760.636719 656.707031 761.902344 657.515625 763.152344 658.355469 C 764.398438 659.195312 765.625 660.066406 766.828125 660.96875 C 768.035156 661.867188 769.21875 662.796875 770.375 663.753906 C 771.535156 664.710938 772.671875 665.699219 773.78125 666.710938 C 774.894531 667.726562 775.980469 668.765625 777.039062 669.832031 C 778.097656 670.902344 779.132812 671.992188 780.136719 673.109375 C 781.144531 674.230469 782.125 675.371094 783.074219 676.535156 C 784.023438 677.703125 784.945312 678.890625 785.835938 680.101562 C 786.730469 681.3125 787.589844 682.542969 788.421875 683.796875 C 789.253906 685.050781 790.054688 686.324219 790.824219 687.617188 C 791.59375 688.910156 792.328125 690.21875 793.035156 691.546875 C 793.738281 692.875 794.410156 694.222656 795.050781 695.582031 C 795.6875 696.945312 796.292969 698.320312 796.867188 699.710938 C 797.4375 701.101562 797.972656 702.507812 798.476562 703.925781 C 798.980469 705.34375 799.445312 706.773438 799.878906 708.210938 C 800.3125 709.652344 800.707031 711.101562 801.070312 712.5625 C 801.429688 714.023438 801.753906 715.492188 802.042969 716.96875 C 802.332031 718.441406 802.585938 719.925781 802.804688 721.414062 C 803.019531 722.902344 803.199219 724.394531 803.34375 725.890625 C 803.484375 727.390625 803.59375 728.886719 803.660156 730.390625 C 803.730469 731.894531 803.765625 733.394531 803.761719 734.902344 C 803.878906 786.875 762.902344 827.988281 711.023438 827.972656 Z M 710.183594 766.054688 C 725.914062 766.648438 741.261719 752.210938 741.84375 736.253906 C 742.429688 720.453125 728.058594 705.175781 712.0625 704.578125 C 696.253906 703.992188 680.984375 718.34375 680.402344 734.371094 C 679.789062 750.171875 694.15625 765.449219 710.15625 766.054688 Z M 710.183594 766.054688 " fill-opacity="1" fill-rule="nonzero"/><path fill="#00a8de" d="M 1268.441406 951.601562 C 1216.292969 951.863281 1174.988281 911.140625 1174.878906 859.378906 C 1174.769531 807.300781 1215.621094 766.304688 1267.574219 766.320312 C 1318.671875 766.320312 1359.800781 806.839844 1360.1875 857.539062 C 1360.558594 909.796875 1320.050781 951.359375 1268.441406 951.601562 Z M 1268.441406 889.691406 C 1284.402344 889.09375 1298.824219 873.730469 1298.246094 858.027344 C 1297.648438 842.015625 1282.386719 827.636719 1266.601562 828.214844 C 1250.589844 828.8125 1236.226562 844.058594 1236.804688 859.863281 C 1237.386719 875.882812 1252.65625 890.285156 1268.441406 889.691406 Z M 1268.441406 889.691406 " fill-opacity="1" fill-rule="nonzero"/><path fill="#00a8de" d="M 525.578125 983.300781 C 525.386719 1034.941406 483.898438 1075.582031 431.707031 1075.238281 C 380.238281 1074.910156 339.816406 1033.242188 340.28125 980.890625 C 340.726562 930.308594 382.003906 889.890625 433.167969 889.960938 C 485 890.019531 525.738281 931.183594 525.578125 983.300781 Z M 432.152344 1013.328125 C 447.9375 1013.808594 463.167969 999.308594 463.644531 983.351562 C 464.125 967.390625 449.683594 952.332031 433.683594 951.855469 C 417.855469 951.375 402.683594 965.8125 402.199219 981.824219 C 401.695312 997.648438 416.132812 1012.839844 432.121094 1013.328125 Z M 432.152344 1013.328125 " fill-opacity="1" fill-rule="nonzero"/><path fill="#00a8de" d="M 1113.253906 1353.421875 C 1061.265625 1353.507812 1020.265625 1312.535156 1020.316406 1260.578125 C 1020.367188 1208.621094 1061.519531 1167.957031 1113.632812 1168.136719 C 1115.136719 1168.136719 1116.640625 1168.171875 1118.144531 1168.246094 C 1119.644531 1168.320312 1121.144531 1168.433594 1122.640625 1168.582031 C 1124.136719 1168.726562 1125.628906 1168.914062 1127.117188 1169.132812 C 1128.605469 1169.355469 1130.085938 1169.609375 1131.5625 1169.90625 C 1133.035156 1170.199219 1134.503906 1170.527344 1135.960938 1170.894531 C 1137.421875 1171.257812 1138.871094 1171.660156 1140.308594 1172.097656 C 1141.75 1172.53125 1143.175781 1173.003906 1144.59375 1173.511719 C 1146.007812 1174.015625 1147.410156 1174.558594 1148.800781 1175.132812 C 1150.191406 1175.707031 1151.566406 1176.316406 1152.925781 1176.960938 C 1154.285156 1177.601562 1155.628906 1178.277344 1156.953125 1178.984375 C 1158.28125 1179.695312 1159.589844 1180.433594 1160.878906 1181.207031 C 1162.167969 1181.980469 1163.441406 1182.785156 1164.691406 1183.617188 C 1165.941406 1184.453125 1167.171875 1185.320312 1168.378906 1186.214844 C 1169.589844 1187.109375 1170.773438 1188.035156 1171.9375 1188.988281 C 1173.101562 1189.941406 1174.238281 1190.921875 1175.355469 1191.929688 C 1176.46875 1192.9375 1177.558594 1193.976562 1178.625 1195.039062 C 1179.6875 1196.101562 1180.726562 1197.1875 1181.734375 1198.300781 C 1182.746094 1199.414062 1183.730469 1200.554688 1184.683594 1201.714844 C 1185.640625 1202.875 1186.566406 1204.058594 1187.464844 1205.265625 C 1188.359375 1206.472656 1189.226562 1207.703125 1190.0625 1208.953125 C 1190.902344 1210.203125 1191.707031 1211.46875 1192.480469 1212.761719 C 1193.253906 1214.050781 1193.996094 1215.355469 1194.707031 1216.679688 C 1195.417969 1218.007812 1196.097656 1219.347656 1196.742188 1220.707031 C 1197.386719 1222.066406 1197.996094 1223.441406 1198.574219 1224.828125 C 1199.152344 1226.21875 1199.695312 1227.617188 1200.203125 1229.035156 C 1200.710938 1230.449219 1201.183594 1231.875 1201.625 1233.316406 C 1202.0625 1234.753906 1202.464844 1236.199219 1202.832031 1237.660156 C 1203.199219 1239.117188 1203.53125 1240.582031 1203.828125 1242.058594 C 1204.125 1243.53125 1204.382812 1245.011719 1204.605469 1246.5 C 1204.828125 1247.988281 1205.015625 1249.480469 1205.164062 1250.976562 C 1205.316406 1252.472656 1205.429688 1253.972656 1205.503906 1255.472656 C 1205.582031 1256.972656 1205.621094 1258.476562 1205.625 1259.980469 C 1205.84375 1312.074219 1165.042969 1353.347656 1113.253906 1353.421875 Z M 1143.679688 1260.140625 C 1143.277344 1244.140625 1128.175781 1229.632812 1112.332031 1230.039062 C 1096.371094 1230.441406 1081.847656 1245.550781 1082.242188 1261.390625 C 1082.636719 1277.351562 1097.757812 1291.90625 1113.582031 1291.511719 C 1129.550781 1291.109375 1144.085938 1275.949219 1143.679688 1260.140625 Z M 1143.679688 1260.140625 " fill-opacity="1" fill-rule="nonzero"/><path fill="#00a8de" d="M 341.011719 1415.242188 C 288.878906 1415.484375 247.601562 1374.75 247.507812 1322.96875 C 247.40625 1270.890625 288.292969 1229.929688 340.253906 1229.953125 C 391.335938 1229.953125 432.4375 1270.515625 432.808594 1321.230469 C 433.179688 1373.472656 392.636719 1415.007812 341.011719 1415.242188 Z M 370.875 1322.65625 C 370.875 1306.75 356.132812 1291.890625 340.222656 1291.855469 C 324.3125 1291.824219 309.476562 1306.597656 309.433594 1322.515625 C 309.394531 1338.429688 324.195312 1353.28125 340.078125 1353.332031 C 355.964844 1353.382812 370.832031 1338.546875 370.875 1322.65625 Z M 370.875 1322.65625 " fill-opacity="1" fill-rule="nonzero"/></svg>