<svg xmlns="http://www.w3.org/2000/svg" xmlns:xlink="http://www.w3.org/1999/xlink" width="2500" zoomAndPan="magnify" viewBox="0 0 1874.88 1867.499939" height="2490" preserveAspectRatio="xMidYMid meet" version="1.0"><defs><clipPath id="ce0b1cf186"><path d="M 0.191406 40 L 1867.15625 40 L 1867.15625 1864 L 0.191406 1864 Z M 0.191406 40 " clip-rule="nonzero"/></clipPath></defs><g clip-path="url(#ce0b1cf186)"><path fill="#5271ff" d="M 1719.972656 1450.429688 C 1618.382812 1447.601562 1539.574219 1458.011719 1473.515625 1485.800781 C 1454.5 1493.4375 1423.976562 1493.4375 1421.46875 1517.375 C 1431.636719 1527.421875 1432.859375 1543.859375 1441.769531 1557.78125 C 1457.003906 1583.050781 1483.710938 1617.089844 1507.828125 1634.746094 L 1589.113281 1692.835938 C 1638.65625 1723.113281 1694.546875 1740.796875 1742.804688 1771.101562 C 1770.765625 1788.785156 1798.695312 1811.507812 1826.65625 1830.464844 C 1840.890625 1840.566406 1849.519531 1857.007812 1867.3125 1863.289062 L 1867.3125 1859.46875 C 1858.429688 1848.152344 1855.867188 1831.738281 1847.011719 1819.0625 L 1808.859375 1782.476562 C 1772.046875 1733.242188 1726.292969 1690.289062 1676.75 1654.976562 C 1636.09375 1627.191406 1547.203125 1589.332031 1530.6875 1542.644531 L 1528.183594 1539.816406 C 1556.085938 1536.984375 1589.113281 1527.167969 1615.820312 1519.585938 C 1659.042969 1508.265625 1698.390625 1510.757812 1742.804688 1499.410156 L 1803.820312 1481.726562 L 1803.820312 1470.40625 C 1780.957031 1447.683594 1764.445312 1417.382812 1740.328125 1395.933594 C 1675.554688 1340.390625 1604.375 1286.089844 1530.691406 1240.648438 C 1491.3125 1215.40625 1440.492188 1198.96875 1398.578125 1177.546875 C 1383.289062 1169.964844 1357.921875 1166.171875 1349.039062 1153.554688 C 1326.117188 1125.824219 1313.449219 1089.183594 1296.933594 1056.332031 L 1192.785156 836.671875 C 1169.921875 787.4375 1155.914062 738.207031 1128.007812 692.761719 C 997.152344 478.140625 854.847656 348.125 636.355469 220.597656 C 589.375 194.082031 533.484375 182.679688 474.0625 168.816406 L 378.796875 163.722656 C 358.441406 154.894531 338.140625 130.898438 320.34375 119.523438 C 247.941406 74.082031 61.191406 -24.386719 7.808594 105.378906 C -26.5 187.433594 58.628906 268.21875 87.527344 309.898438 C 109.167969 338.929688 137.070312 371.75 152.359375 404.574219 C 160.902344 426.023438 163.75 448.769531 172.660156 471.492188 C 192.960938 527.035156 212.035156 588.917969 238.714844 640.699219 C 252.953125 667.210938 267.898438 695.027344 285.695312 718.992188 C 295.859375 733.140625 313.652344 739.195312 317.441406 761.917969 C 299.644531 787.183594 298.421875 825.015625 288.257812 856.621094 C 242.503906 999.289062 260.296875 1176.019531 325.070312 1281.054688 C 345.429688 1312.601562 393.402344 1382.066406 458.492188 1355.527344 C 515.664062 1332.804688 502.90625 1260.851562 519.421875 1197.722656 C 523.265625 1182.585938 520.703125 1172.484375 528.304688 1162.355469 L 528.304688 1165.183594 L 580.410156 1269.960938 C 619.785156 1331.816406 688.402344 1396.214844 745.546875 1439.167969 C 776.011719 1461.890625 800.15625 1501.050781 838.25 1514.914062 L 838.25 1511.09375 L 835.746094 1511.09375 C 828.113281 1499.777344 816.667969 1494.683594 806.503906 1485.855469 C 783.640625 1463.136719 758.246094 1435.347656 740.449219 1410.109375 C 687.121094 1339.425781 640.144531 1261.132812 598.203125 1180.351562 C 577.847656 1141.21875 560.050781 1098.292969 543.59375 1059.160156 C 535.90625 1043.996094 535.90625 1021.246094 523.238281 1013.71875 C 504.160156 1041.449219 476.257812 1065.5 462.222656 1099.566406 C 438.078125 1153.835938 435.570312 1220.753906 426.6875 1290.191406 C 421.5625 1291.464844 423.839844 1290.191406 421.5625 1293.023438 C 380.960938 1282.949219 366.953125 1241.242188 351.722656 1205.929688 C 313.625 1116.289062 307.246094 972.378906 340.277344 868.84375 C 349.160156 842.332031 387.3125 759.003906 372.078125 733.761719 C 364.390625 709.769531 339.050781 695.902344 325.042969 676.945312 C 308.53125 652.949219 290.792969 622.675781 279.347656 596.160156 C 248.882812 525.421875 233.648438 447.1875 200.59375 376.476562 C 185.304688 343.652344 158.652344 309.558594 137.042969 279.28125 C 112.898438 245.183594 86.277344 221.191406 67.199219 180.8125 C 60.851562 166.664062 51.96875 144.199219 62.132812 129.03125 C 64.636719 118.929688 69.761719 114.882812 79.871094 112.621094 C 96.382812 98.472656 143.421875 116.414062 159.933594 123.9375 C 206.914062 142.898438 246.289062 160.554688 285.667969 187.039062 C 303.460938 199.65625 322.539062 223.652344 345.402344 229.992188 L 372.109375 229.992188 C 412.765625 238.820312 458.464844 232.820312 496.53125 244.136719 C 563.867188 265.640625 624.824219 297.164062 679.492188 331.289062 C 845.882812 436.066406 983.117188 585.042969 1075.820312 763.078125 C 1091.054688 792.109375 1097.402344 818.621094 1111.410156 848.925781 C 1138.117188 910.808594 1171.144531 973.90625 1197.765625 1034.542969 C 1224.472656 1093.878906 1249.871094 1154.515625 1287.964844 1203.75 C 1307.042969 1230.261719 1383.234375 1244.128906 1417.515625 1258.019531 C 1442.941406 1269.339844 1482.289062 1279.523438 1505.207031 1293.390625 C 1548.371094 1319.902344 1591.5625 1350.207031 1632.195312 1379.238281 C 1652.492188 1394.347656 1716.042969 1425.925781 1719.832031 1451.109375 Z M 424.496094 353.359375 C 406.867188 353.203125 389.519531 355.308594 372.449219 359.667969 L 372.449219 362.5 L 374.953125 362.5 C 385.117188 382.699219 402.914062 396.59375 415.609375 414.277344 L 444.851562 474.886719 L 447.355469 472.058594 C 465.152344 459.4375 474.0625 439.234375 474.0625 408.960938 C 466.433594 400.132812 465.179688 391.273438 458.832031 382.445312 C 451.199219 369.828125 434.6875 363.488281 424.496094 353.414062 Z M 424.496094 353.359375 " fill-opacity="1" fill-rule="evenodd"/></g></svg>