<svg xmlns="http://www.w3.org/2000/svg" xmlns:xlink="http://www.w3.org/1999/xlink" width="2500" zoomAndPan="magnify" viewBox="0 0 1874.88 1867.499939" height="2490" preserveAspectRatio="xMidYMid meet" version="1.0"><defs><clipPath id="7b015cadc8"><path d="M 0.191406 312 L 995 312 L 995 1555 L 0.191406 1555 Z M 0.191406 312 " clip-rule="nonzero"/></clipPath></defs><path fill="#fcdd5e" d="M 497.230469 343.265625 C 239.886719 343.265625 31.257812 419.75 31.257812 514.125 L 31.257812 1399.472656 C 76.828125 1466.167969 274.027344 1523.734375 497.230469 1523.734375 C 717.480469 1523.734375 920.582031 1461.882812 963.203125 1399.472656 L 963.203125 514.125 C 963.203125 419.75 754.570312 343.265625 497.230469 343.265625 Z M 497.230469 343.265625 " fill-opacity="1" fill-rule="nonzero"/><path fill="#fcd821" d="M 963.203125 514.125 C 963.203125 516.921875 963.015625 519.714844 962.640625 522.507812 C 962.265625 525.300781 961.707031 528.089844 960.957031 530.871094 C 960.210938 533.652344 959.277344 536.429688 958.160156 539.195312 C 957.039062 541.960938 955.738281 544.714844 954.25 547.457031 C 952.761719 550.199219 951.089844 552.925781 949.238281 555.640625 C 947.386719 558.351562 945.351562 561.046875 943.136719 563.722656 C 940.925781 566.398438 938.53125 569.050781 935.964844 571.683594 C 933.394531 574.316406 930.652344 576.925781 927.734375 579.507812 C 924.8125 582.089844 921.726562 584.648438 918.464844 587.175781 C 915.203125 589.703125 911.777344 592.199219 908.179688 594.664062 C 904.585938 597.132812 900.828125 599.5625 896.90625 601.960938 C 892.988281 604.359375 888.910156 606.722656 884.671875 609.046875 C 880.433594 611.371094 876.046875 613.65625 871.503906 615.902344 C 866.960938 618.148438 862.269531 620.351562 857.433594 622.515625 C 852.59375 624.675781 847.613281 626.792969 842.492188 628.863281 C 837.371094 630.9375 832.113281 632.960938 826.722656 634.9375 C 821.328125 636.914062 815.808594 638.84375 810.15625 640.71875 C 804.507812 642.597656 798.734375 644.425781 792.839844 646.199219 C 786.945312 647.972656 780.933594 649.691406 774.808594 651.359375 C 768.683594 653.023438 762.449219 654.632812 756.109375 656.1875 C 749.769531 657.738281 743.328125 659.234375 736.789062 660.671875 C 730.246094 662.109375 723.613281 663.488281 716.886719 664.804688 C 710.160156 666.125 703.351562 667.382812 696.457031 668.578125 C 689.566406 669.773438 682.59375 670.90625 675.550781 671.976562 C 668.503906 673.046875 661.390625 674.050781 654.210938 674.992188 C 647.03125 675.933594 639.792969 676.8125 632.496094 677.625 C 625.195312 678.433594 617.847656 679.179688 610.453125 679.859375 C 603.054688 680.539062 595.617188 681.152344 588.136719 681.699219 C 580.65625 682.242188 573.144531 682.722656 565.601562 683.132812 C 558.058594 683.542969 550.492188 683.882812 542.902344 684.15625 C 535.3125 684.433594 527.710938 684.636719 520.09375 684.773438 C 512.476562 684.914062 504.855469 684.980469 497.230469 684.980469 C 489.601562 684.980469 481.980469 684.914062 474.363281 684.773438 C 466.75 684.636719 459.144531 684.433594 451.554688 684.15625 C 443.964844 683.882812 436.398438 683.542969 428.855469 683.132812 C 421.3125 682.722656 413.800781 682.242188 406.324219 681.699219 C 398.84375 681.152344 391.40625 680.539062 384.007812 679.859375 C 376.609375 679.179688 369.261719 678.433594 361.964844 677.625 C 354.667969 676.8125 347.429688 675.933594 340.246094 674.992188 C 333.066406 674.050781 325.953125 673.046875 318.910156 671.976562 C 311.863281 670.90625 304.894531 669.773438 298 668.578125 C 291.105469 667.382812 284.296875 666.125 277.570312 664.804688 C 270.84375 663.488281 264.210938 662.109375 257.671875 660.671875 C 251.128906 659.234375 244.6875 657.738281 238.347656 656.1875 C 232.007812 654.632812 225.773438 653.023438 219.648438 651.359375 C 213.523438 649.691406 207.515625 647.972656 201.617188 646.199219 C 195.722656 644.425781 189.949219 642.597656 184.300781 640.71875 C 178.648438 638.84375 173.128906 636.914062 167.734375 634.9375 C 162.34375 632.960938 157.085938 630.9375 151.964844 628.863281 C 146.84375 626.792969 141.863281 624.675781 137.027344 622.515625 C 132.1875 620.351562 127.5 618.148438 122.957031 615.902344 C 118.414062 613.65625 114.023438 611.371094 109.785156 609.046875 C 105.550781 606.722656 101.472656 604.359375 97.550781 601.960938 C 93.628906 599.5625 89.871094 597.132812 86.277344 594.664062 C 82.683594 592.199219 79.253906 589.703125 75.996094 587.175781 C 72.734375 584.648438 69.644531 582.089844 66.726562 579.507812 C 63.808594 576.925781 61.0625 574.316406 58.496094 571.683594 C 55.925781 569.050781 53.535156 566.398438 51.320312 563.722656 C 49.105469 561.046875 47.074219 558.351562 45.21875 555.640625 C 43.367188 552.925781 41.695312 550.199219 40.210938 547.457031 C 38.722656 544.714844 37.417969 541.960938 36.300781 539.195312 C 35.179688 536.429688 34.246094 533.652344 33.5 530.871094 C 32.753906 528.089844 32.191406 525.300781 31.816406 522.507812 C 31.441406 519.714844 31.257812 516.921875 31.257812 514.125 C 31.257812 511.328125 31.441406 508.535156 31.816406 505.742188 C 32.191406 502.949219 32.753906 500.160156 33.5 497.378906 C 34.246094 494.59375 35.179688 491.820312 36.300781 489.054688 C 37.417969 486.289062 38.722656 483.535156 40.210938 480.792969 C 41.695312 478.050781 43.367188 475.320312 45.21875 472.609375 C 47.074219 469.898438 49.105469 467.203125 51.320312 464.527344 C 53.535156 461.851562 55.925781 459.195312 58.496094 456.5625 C 61.0625 453.929688 63.808594 451.324219 66.726562 448.738281 C 69.644531 446.15625 72.734375 443.601562 75.996094 441.074219 C 79.253906 438.546875 82.683594 436.046875 86.277344 433.582031 C 89.871094 431.117188 93.628906 428.683594 97.550781 426.285156 C 101.472656 423.886719 105.550781 421.527344 109.785156 419.199219 C 114.023438 416.875 118.414062 414.589844 122.957031 412.34375 C 127.5 410.097656 132.1875 407.894531 137.027344 405.734375 C 141.863281 403.570312 146.84375 401.457031 151.964844 399.382812 C 157.085938 397.3125 162.34375 395.285156 167.734375 393.308594 C 173.128906 391.332031 178.648438 389.40625 184.300781 387.527344 C 189.949219 385.648438 195.722656 383.824219 201.617188 382.050781 C 207.515625 380.277344 213.523438 378.554688 219.648438 376.890625 C 225.773438 375.226562 232.007812 373.613281 238.347656 372.0625 C 244.6875 370.507812 251.128906 369.011719 257.671875 367.574219 C 264.210938 366.136719 270.84375 364.757812 277.570312 363.441406 C 284.296875 362.125 291.105469 360.867188 298 359.671875 C 304.894531 358.476562 311.863281 357.34375 318.910156 356.273438 C 325.953125 355.203125 333.066406 354.195312 340.246094 353.253906 C 347.429688 352.3125 354.667969 351.4375 361.964844 350.625 C 369.261719 349.8125 376.609375 349.066406 384.007812 348.386719 C 391.40625 347.707031 398.84375 347.09375 406.324219 346.550781 C 413.800781 346.003906 421.3125 345.527344 428.855469 345.117188 C 436.398438 344.707031 443.964844 344.363281 451.554688 344.089844 C 459.144531 343.816406 466.75 343.609375 474.363281 343.472656 C 481.980469 343.335938 489.601562 343.265625 497.230469 343.265625 C 504.855469 343.265625 512.476562 343.335938 520.09375 343.472656 C 527.710938 343.609375 535.3125 343.816406 542.902344 344.089844 C 550.492188 344.363281 558.058594 344.707031 565.601562 345.117188 C 573.144531 345.527344 580.65625 346.003906 588.136719 346.550781 C 595.617188 347.09375 603.054688 347.707031 610.453125 348.386719 C 617.847656 349.066406 625.195312 349.8125 632.496094 350.625 C 639.792969 351.4375 647.03125 352.3125 654.210938 353.253906 C 661.390625 354.195312 668.503906 355.203125 675.550781 356.273438 C 682.59375 357.34375 689.566406 358.476562 696.457031 359.671875 C 703.351562 360.867188 710.160156 362.125 716.886719 363.441406 C 723.613281 364.757812 730.246094 366.136719 736.789062 367.574219 C 743.328125 369.011719 749.769531 370.507812 756.109375 372.0625 C 762.449219 373.613281 768.683594 375.226562 774.808594 376.890625 C 780.933594 378.554688 786.945312 380.277344 792.839844 382.050781 C 798.734375 383.824219 804.507812 385.648438 810.15625 387.527344 C 815.808594 389.40625 821.328125 391.332031 826.722656 393.308594 C 832.113281 395.285156 837.371094 397.3125 842.492188 399.382812 C 847.613281 401.457031 852.59375 403.570312 857.433594 405.734375 C 862.269531 407.894531 866.960938 410.097656 871.503906 412.34375 C 876.046875 414.589844 880.433594 416.875 884.671875 419.199219 C 888.910156 421.527344 892.988281 423.886719 896.90625 426.285156 C 900.828125 428.683594 904.585938 431.117188 908.179688 433.582031 C 911.777344 436.046875 915.203125 438.546875 918.464844 441.074219 C 921.726562 443.601562 924.8125 446.15625 927.734375 448.738281 C 930.652344 451.324219 933.394531 453.929688 935.964844 456.5625 C 938.53125 459.195312 940.925781 461.851562 943.136719 464.527344 C 945.351562 467.203125 947.386719 469.898438 949.238281 472.609375 C 951.089844 475.320312 952.761719 478.050781 954.25 480.792969 C 955.738281 483.535156 957.039062 486.289062 958.160156 489.054688 C 959.277344 491.820312 960.210938 494.59375 960.957031 497.378906 C 961.707031 500.160156 962.265625 502.949219 962.640625 505.742188 C 963.015625 508.535156 963.203125 511.328125 963.203125 514.125 Z M 963.203125 514.125 " fill-opacity="1" fill-rule="nonzero"/><path fill="#47baaf" d="M 1646.628906 125.8125 L 1615.566406 32.617188 L 1180.65625 32.617188 L 1242.785156 436.460938 L 1367.046875 125.8125 Z M 1646.628906 125.8125 " fill-opacity="1" fill-rule="nonzero"/><path fill="#b6dedc" d="M 1367.046875 125.8125 L 1833.019531 125.8125 L 1708.761719 436.460938 L 1242.785156 436.460938 Z M 1367.046875 125.8125 " fill-opacity="1" fill-rule="nonzero"/><path fill="#47baaf" d="M 1646.628906 809.242188 L 1615.566406 716.046875 L 1180.65625 716.046875 L 1242.785156 1119.890625 L 1367.046875 809.242188 Z M 1646.628906 809.242188 " fill-opacity="1" fill-rule="nonzero"/><path fill="#b6dedc" d="M 1367.046875 809.242188 L 1833.019531 809.242188 L 1708.761719 1119.890625 L 1242.785156 1119.890625 Z M 1367.046875 809.242188 " fill-opacity="1" fill-rule="nonzero"/><path fill="#47baaf" d="M 1646.628906 1523.734375 L 1615.566406 1430.539062 L 1180.65625 1430.539062 L 1242.785156 1834.382812 L 1367.046875 1523.734375 Z M 1646.628906 1523.734375 " fill-opacity="1" fill-rule="nonzero"/><path fill="#b6dedc" d="M 1367.046875 1523.734375 L 1833.019531 1523.734375 L 1708.761719 1834.382812 L 1242.785156 1834.382812 Z M 1367.046875 1523.734375 " fill-opacity="1" fill-rule="nonzero"/><path fill="#000000" d="M 1858.742188 108.386719 C 1852.964844 99.875 1843.332031 94.746094 1833.019531 94.746094 L 1668.996094 94.746094 L 1645.015625 22.800781 C 1640.789062 10.097656 1628.953125 1.554688 1615.566406 1.554688 L 1180.65625 1.554688 C 1171.585938 1.554688 1162.980469 5.5 1157.078125 12.394531 C 1151.175781 19.292969 1148.566406 28.394531 1149.964844 37.339844 L 1212.09375 441.183594 L 1212.21875 441.152344 C 1212.902344 445.625 1214.457031 450.007812 1217.066406 453.859375 C 1222.84375 462.402344 1232.472656 467.527344 1242.785156 467.527344 L 1708.761719 467.527344 C 1721.464844 467.527344 1732.867188 459.792969 1737.621094 448.019531 L 1861.878906 137.367188 C 1865.699219 127.769531 1864.519531 116.929688 1858.742188 108.386719 Z M 1593.167969 63.683594 L 1603.511719 94.746094 L 1367.046875 94.746094 C 1354.339844 94.746094 1342.941406 102.484375 1338.1875 114.257812 L 1256.175781 319.253906 L 1216.878906 63.683594 Z M 1687.730469 405.398438 L 1288.667969 405.398438 L 1388.078125 156.878906 L 1787.167969 156.878906 Z M 1687.730469 405.398438 " fill-opacity="1" fill-rule="nonzero"/><path fill="#000000" d="M 1858.742188 791.8125 C 1852.964844 783.300781 1843.332031 778.175781 1833.019531 778.175781 L 1668.996094 778.175781 L 1645.015625 706.230469 C 1640.789062 693.523438 1628.953125 684.980469 1615.566406 684.980469 L 1180.65625 684.980469 C 1171.585938 684.980469 1162.980469 688.925781 1157.078125 695.824219 C 1151.175781 702.71875 1148.566406 711.820312 1149.964844 720.769531 L 1212.09375 1124.609375 L 1212.21875 1124.582031 C 1212.902344 1129.054688 1214.457031 1133.433594 1217.066406 1137.285156 C 1222.84375 1145.828125 1232.472656 1150.953125 1242.785156 1150.953125 L 1708.761719 1150.953125 C 1721.464844 1150.953125 1732.867188 1143.21875 1737.621094 1131.445312 L 1861.878906 820.796875 C 1865.699219 811.199219 1864.519531 800.355469 1858.742188 791.8125 Z M 1593.167969 747.109375 L 1603.511719 778.175781 L 1367.046875 778.175781 C 1354.339844 778.175781 1342.941406 785.910156 1338.1875 797.683594 L 1256.175781 1002.679688 L 1216.878906 747.109375 Z M 1687.730469 1088.824219 L 1288.667969 1088.824219 L 1388.078125 840.304688 L 1787.167969 840.304688 Z M 1687.730469 1088.824219 " fill-opacity="1" fill-rule="nonzero"/><path fill="#000000" d="M 1858.742188 1506.304688 C 1852.964844 1497.792969 1843.332031 1492.667969 1833.019531 1492.667969 L 1668.996094 1492.667969 L 1645.015625 1420.722656 C 1640.789062 1408.015625 1628.953125 1399.472656 1615.566406 1399.472656 L 1180.65625 1399.472656 C 1171.585938 1399.472656 1162.980469 1403.417969 1157.078125 1410.316406 C 1151.175781 1417.210938 1148.566406 1426.3125 1149.964844 1435.261719 L 1212.09375 1839.105469 L 1212.21875 1839.074219 C 1212.902344 1843.546875 1214.457031 1847.925781 1217.066406 1851.777344 C 1222.84375 1860.320312 1232.472656 1865.445312 1242.785156 1865.445312 L 1708.761719 1865.445312 C 1721.464844 1865.445312 1732.867188 1857.710938 1737.621094 1845.9375 L 1861.878906 1535.289062 C 1865.699219 1525.691406 1864.519531 1514.847656 1858.742188 1506.304688 Z M 1593.167969 1461.601562 L 1603.511719 1492.667969 L 1367.046875 1492.667969 C 1354.339844 1492.667969 1342.941406 1500.402344 1338.1875 1512.175781 L 1256.175781 1717.175781 L 1216.878906 1461.601562 Z M 1687.730469 1803.316406 L 1288.667969 1803.316406 L 1388.078125 1554.796875 L 1787.167969 1554.796875 Z M 1687.730469 1803.316406 " fill-opacity="1" fill-rule="nonzero"/><path fill="#000000" d="M 466.164062 187.941406 L 528.292969 187.941406 L 528.292969 250.074219 L 466.164062 250.074219 Z M 466.164062 187.941406 " fill-opacity="1" fill-rule="nonzero"/><path fill="#000000" d="M 466.164062 63.683594 L 528.292969 63.683594 L 528.292969 125.8125 L 466.164062 125.8125 Z M 466.164062 63.683594 " fill-opacity="1" fill-rule="nonzero"/><path fill="#000000" d="M 590.425781 63.683594 L 652.554688 63.683594 L 652.554688 125.8125 L 590.425781 125.8125 Z M 590.425781 63.683594 " fill-opacity="1" fill-rule="nonzero"/><path fill="#000000" d="M 714.683594 63.683594 L 776.8125 63.683594 L 776.8125 125.8125 L 714.683594 125.8125 Z M 714.683594 63.683594 " fill-opacity="1" fill-rule="nonzero"/><path fill="#000000" d="M 838.941406 63.683594 L 901.074219 63.683594 L 901.074219 125.8125 L 838.941406 125.8125 Z M 838.941406 63.683594 " fill-opacity="1" fill-rule="nonzero"/><path fill="#000000" d="M 963.203125 63.683594 L 1025.332031 63.683594 L 1025.332031 125.8125 L 963.203125 125.8125 Z M 963.203125 63.683594 " fill-opacity="1" fill-rule="nonzero"/><path fill="#000000" d="M 963.203125 63.683594 L 1025.332031 63.683594 L 1025.332031 125.8125 L 963.203125 125.8125 Z M 963.203125 63.683594 " fill-opacity="1" fill-rule="nonzero"/><path fill="#000000" d="M 466.164062 1616.929688 L 528.292969 1616.929688 L 528.292969 1679.058594 L 466.164062 1679.058594 Z M 466.164062 1616.929688 " fill-opacity="1" fill-rule="nonzero"/><path fill="#000000" d="M 466.164062 1741.1875 L 528.292969 1741.1875 L 528.292969 1803.316406 L 466.164062 1803.316406 Z M 466.164062 1741.1875 " fill-opacity="1" fill-rule="nonzero"/><path fill="#000000" d="M 590.425781 1741.1875 L 652.554688 1741.1875 L 652.554688 1803.316406 L 590.425781 1803.316406 Z M 590.425781 1741.1875 " fill-opacity="1" fill-rule="nonzero"/><path fill="#000000" d="M 714.683594 1741.1875 L 776.8125 1741.1875 L 776.8125 1803.316406 L 714.683594 1803.316406 Z M 714.683594 1741.1875 " fill-opacity="1" fill-rule="nonzero"/><path fill="#000000" d="M 838.941406 1741.1875 L 901.074219 1741.1875 L 901.074219 1803.316406 L 838.941406 1803.316406 Z M 838.941406 1741.1875 " fill-opacity="1" fill-rule="nonzero"/><path fill="#000000" d="M 963.203125 1741.1875 L 1025.332031 1741.1875 L 1025.332031 1803.316406 L 963.203125 1803.316406 Z M 963.203125 1741.1875 " fill-opacity="1" fill-rule="nonzero"/><path fill="#000000" d="M 963.203125 1741.1875 L 1025.332031 1741.1875 L 1025.332031 1803.316406 L 963.203125 1803.316406 Z M 963.203125 1741.1875 " fill-opacity="1" fill-rule="nonzero"/><g clip-path="url(#7b015cadc8)"><path fill="#000000" d="M 497.230469 312.203125 C 256.257812 312.203125 0.191406 382.96875 0.191406 514.125 L 0.191406 1399.472656 C 0.191406 1405.71875 2.085938 1411.835938 5.597656 1416.992188 C 60.175781 1496.832031 266.914062 1554.796875 497.230469 1554.796875 C 716.421875 1554.796875 936.953125 1492.980469 988.863281 1416.992188 C 992.371094 1411.835938 994.269531 1405.71875 994.269531 1399.472656 L 994.269531 514.125 C 994.269531 382.96875 738.199219 312.203125 497.230469 312.203125 Z M 497.230469 374.332031 C 766.6875 374.332031 932.136719 455.753906 932.136719 514.125 C 932.136719 572.496094 766.6875 653.914062 497.230469 653.914062 C 227.773438 653.914062 62.320312 572.496094 62.320312 514.125 C 62.320312 455.753906 227.773438 374.332031 497.230469 374.332031 Z M 932.136719 1093.171875 C 885.945312 1144.742188 706.792969 1197.550781 497.230469 1197.550781 C 287.664062 1197.550781 108.515625 1144.742188 62.320312 1093.171875 L 62.320312 879.476562 C 152.78125 945.304688 328.546875 980.097656 497.230469 980.097656 C 665.910156 980.097656 841.675781 945.304688 932.136719 879.476562 Z M 497.230469 1492.667969 C 288.285156 1492.667969 109.167969 1440.167969 62.320312 1388.726562 L 62.320312 1170.679688 C 152.160156 1224.207031 317.332031 1259.648438 497.230469 1259.648438 C 677.125 1259.648438 842.296875 1224.207031 932.136719 1170.679688 L 932.136719 1388.539062 C 888.769531 1434.078125 712.632812 1492.667969 497.230469 1492.667969 Z M 497.230469 917.96875 C 227.773438 917.96875 62.320312 836.546875 62.320312 778.175781 L 62.320312 615.425781 C 152.78125 681.253906 328.546875 716.046875 497.230469 716.046875 C 665.910156 716.046875 841.675781 681.253906 932.136719 615.425781 L 932.136719 778.175781 C 932.136719 836.546875 766.6875 917.96875 497.230469 917.96875 Z M 497.230469 917.96875 " fill-opacity="1" fill-rule="nonzero"/></g></svg>