<svg xmlns="http://www.w3.org/2000/svg" xmlns:xlink="http://www.w3.org/1999/xlink" width="2500" zoomAndPan="magnify" viewBox="0 0 1874.88 1867.499939" height="2490" preserveAspectRatio="xMidYMid meet" version="1.0"><defs><clipPath id="f7acffd063"><path d="M 66 287 L 1560 287 L 1560 1867 L 66 1867 Z M 66 287 " clip-rule="nonzero"/></clipPath><clipPath id="c63f219878"><path d="M 315 287 L 1809 287 L 1809 1867 L 315 1867 Z M 315 287 " clip-rule="nonzero"/></clipPath></defs><g clip-path="url(#f7acffd063)"><path fill="#e55b2d" d="M 1061.921875 287.253906 L 1061.921875 574.542969 L 1559.464844 861.796875 L 1559.464844 574.542969 Z M 66.765625 574.542969 L 66.765625 861.796875 L 315.535156 1005.40625 L 315.535156 718.1875 Z M 813.082031 718.1875 L 564.316406 861.796875 L 564.316406 1723.59375 L 813.082031 1867.273438 L 813.082031 1292.695312 L 1061.921875 1436.375 L 1061.921875 1149.085938 L 813.082031 1005.40625 Z M 813.082031 718.1875 " fill-opacity="1" fill-rule="nonzero"/></g><g clip-path="url(#c63f219878)"><path fill="#ed8e24" d="M 1061.921875 287.253906 L 315.535156 718.1875 L 315.535156 1005.40625 L 813.082031 718.1875 L 813.082031 1005.40625 L 1061.921875 861.796875 Z M 1808.238281 430.898438 L 1559.464844 574.542969 L 1559.464844 861.796875 L 1808.238281 718.1875 Z M 1310.695312 1005.40625 L 1061.921875 1149.085938 L 1061.921875 1436.375 L 1310.695312 1292.695312 Z M 1061.921875 1436.375 L 813.082031 1292.695312 L 813.082031 1867.273438 L 1061.921875 1723.59375 Z M 1061.921875 1436.375 " fill-opacity="1" fill-rule="nonzero"/></g><path fill="#f8bf3c" d="M 1061.921875 0 L 66.765625 574.542969 L 315.535156 718.1875 L 1061.921875 287.253906 L 1559.464844 574.542969 L 1808.238281 430.898438 Z M 1061.921875 861.796875 L 813.082031 1005.40625 L 1061.921875 1149.085938 L 1310.695312 1005.40625 Z M 1061.921875 861.796875 " fill-opacity="1" fill-rule="nonzero"/></svg>